<ttFont>
    <TTGlyph name=".notdef" xMin="60" yMin="0" xMax="384" yMax="714">
      <contour>
        <pt x="60" y="714" on="1"/>
        <pt x="384" y="714" on="1"/>
        <pt x="384" y="0" on="1"/>
        <pt x="60" y="0" on="1"/>
      </contour>
      <contour>
        <pt x="96" y="30" on="1"/>
        <pt x="348" y="30" on="1"/>
        <pt x="348" y="684" on="1"/>
        <pt x="96" y="684" on="1"/>
      </contour>
    </TTGlyph>
    <TTGlyph name="A" xMin="61" yMin="-76" xMax="716" yMax="736">
      <contour>
        <pt x="146" y="-76" on="1"/>
        <pt x="98" y="-62" on="0"/>
        <pt x="61" y="-34" on="0"/>
        <pt x="61" y="-13" on="1"/>
        <pt x="61" y="3" on="0"/>
        <pt x="79" y="61" on="0"/>
        <pt x="114" y="140" on="0"/>
        <pt x="163" y="236" on="0"/>
        <pt x="194" y="291" on="1"/>
        <pt x="168" y="292" on="0"/>
        <pt x="127" y="293" on="0"/>
        <pt x="114" y="293" on="1"/>
        <pt x="120" y="308" on="0"/>
        <pt x="176" y="330" on="0"/>
        <pt x="222" y="338" on="1"/>
        <pt x="261" y="403" on="0"/>
        <pt x="350" y="521" on="0"/>
        <pt x="440" y="620" on="0"/>
        <pt x="530" y="695" on="0"/>
        <pt x="571" y="717" on="1"/>
        <pt x="572" y="724" on="0"/>
        <pt x="573" y="734" on="0"/>
        <pt x="573" y="736" on="1"/>
        <pt x="587" y="736" on="0"/>
        <pt x="634" y="722" on="0"/>
        <pt x="679" y="702" on="0"/>
        <pt x="714" y="681" on="0"/>
        <pt x="716" y="674" on="1"/>
        <pt x="683" y="616" on="0"/>
        <pt x="619" y="385" on="0"/>
        <pt x="598" y="224" on="1"/>
        <pt x="593" y="184" on="0"/>
        <pt x="586" y="82" on="0"/>
        <pt x="586" y="19" on="1"/>
        <pt x="586" y="-3" on="0"/>
        <pt x="586" y="-49" on="0"/>
        <pt x="588" y="-74" on="1"/>
        <pt x="586" y="-75" on="0"/>
        <pt x="582" y="-75" on="0"/>
        <pt x="576" y="-75" on="1"/>
        <pt x="562" y="-75" on="0"/>
        <pt x="525" y="-66" on="0"/>
        <pt x="490" y="-53" on="0"/>
        <pt x="465" y="-37" on="0"/>
        <pt x="462" y="-31" on="1"/>
        <pt x="461" y="-18" on="0"/>
        <pt x="461" y="7" on="0"/>
        <pt x="461" y="21" on="1"/>
        <pt x="461" y="83" on="0"/>
        <pt x="470" y="211" on="0"/>
        <pt x="481" y="279" on="1"/>
        <pt x="467" y="280" on="0"/>
        <pt x="421" y="283" on="0"/>
        <pt x="364" y="285" on="0"/>
        <pt x="299" y="288" on="0"/>
        <pt x="268" y="289" on="1"/>
        <pt x="244" y="244" on="0"/>
        <pt x="202" y="155" on="0"/>
        <pt x="187" y="110" on="1"/>
        <pt x="170" y="62" on="0"/>
        <pt x="149" y="-34" on="0"/>
      </contour>
      <contour>
        <pt x="532" y="525" on="1"/>
        <pt x="536" y="539" on="0"/>
        <pt x="547" y="588" on="0"/>
        <pt x="552" y="615" on="1"/>
        <pt x="527" y="606" on="0"/>
        <pt x="466" y="558" on="0"/>
        <pt x="401" y="487" on="0"/>
        <pt x="334" y="398" on="0"/>
        <pt x="303" y="348" on="1"/>
        <pt x="387" y="355" on="0"/>
        <pt x="494" y="357" on="1"/>
        <pt x="502" y="399" on="0"/>
        <pt x="521" y="482" on="0"/>
      </contour>
    </TTGlyph>
    <TTGlyph name="AE" xMin="71" yMin="-81" xMax="1068" yMax="737">
      <contour>
        <pt x="777" y="418" on="1"/>
        <pt x="830" y="418" on="0"/>
        <pt x="889" y="382" on="0"/>
        <pt x="889" y="350" on="1"/>
        <pt x="889" y="342" on="0"/>
        <pt x="885" y="325" on="0"/>
        <pt x="881" y="319" on="1"/>
        <pt x="861" y="321" on="0"/>
        <pt x="809" y="324" on="0"/>
        <pt x="774" y="324" on="1"/>
        <pt x="748" y="324" on="0"/>
        <pt x="684" y="321" on="0"/>
        <pt x="649" y="319" on="1"/>
        <pt x="625" y="265" on="0"/>
        <pt x="586" y="164" on="0"/>
        <pt x="558" y="80" on="0"/>
        <pt x="542" y="18" on="0"/>
        <pt x="541" y="3" on="1"/>
        <pt x="622" y="20" on="0"/>
        <pt x="787" y="44" on="0"/>
        <pt x="878" y="50" on="1"/>
        <pt x="889" y="33" on="0"/>
        <pt x="904" y="-7" on="0"/>
        <pt x="904" y="-30" on="1"/>
        <pt x="904" y="-36" on="0"/>
        <pt x="904" y="-50" on="0"/>
        <pt x="902" y="-57" on="1"/>
        <pt x="874" y="-56" on="0"/>
        <pt x="812" y="-55" on="0"/>
        <pt x="762" y="-55" on="1"/>
        <pt x="729" y="-55" on="0"/>
        <pt x="670" y="-58" on="0"/>
        <pt x="610" y="-64" on="0"/>
        <pt x="543" y="-74" on="0"/>
        <pt x="501" y="-81" on="1"/>
        <pt x="455" y="-63" on="0"/>
        <pt x="412" y="7" on="1"/>
        <pt x="429" y="43" on="0"/>
        <pt x="490" y="190" on="0"/>
        <pt x="536" y="312" on="1"/>
        <pt x="466" y="307" on="0"/>
        <pt x="340" y="299" on="0"/>
        <pt x="301" y="299" on="1"/>
        <pt x="279" y="299" on="1"/>
        <pt x="256" y="256" on="0"/>
        <pt x="215" y="161" on="0"/>
        <pt x="197" y="110" on="1"/>
        <pt x="180" y="62" on="0"/>
        <pt x="159" y="-34" on="0"/>
        <pt x="156" y="-76" on="1"/>
        <pt x="108" y="-62" on="0"/>
        <pt x="71" y="-34" on="0"/>
        <pt x="71" y="-13" on="1"/>
        <pt x="71" y="0" on="0"/>
        <pt x="92" y="62" on="0"/>
        <pt x="130" y="149" on="0"/>
        <pt x="183" y="253" on="0"/>
        <pt x="216" y="308" on="1"/>
        <pt x="154" y="322" on="0"/>
        <pt x="133" y="355" on="1"/>
        <pt x="194" y="358" on="0"/>
        <pt x="250" y="364" on="1"/>
        <pt x="293" y="431" on="0"/>
        <pt x="390" y="559" on="0"/>
        <pt x="493" y="659" on="0"/>
        <pt x="598" y="719" on="0"/>
        <pt x="648" y="719" on="1"/>
        <pt x="675" y="719" on="0"/>
        <pt x="732" y="716" on="0"/>
        <pt x="759" y="716" on="1"/>
        <pt x="801" y="716" on="0"/>
        <pt x="883" y="723" on="0"/>
        <pt x="949" y="730" on="0"/>
        <pt x="994" y="737" on="0"/>
        <pt x="1000" y="737" on="1"/>
        <pt x="1023" y="737" on="0"/>
        <pt x="1059" y="679" on="0"/>
        <pt x="1068" y="630" on="1"/>
        <pt x="1055" y="634" on="0"/>
        <pt x="1007" y="642" on="0"/>
        <pt x="944" y="647" on="0"/>
        <pt x="870" y="650" on="0"/>
        <pt x="831" y="650" on="1"/>
        <pt x="820" y="650" on="0"/>
        <pt x="799" y="650" on="0"/>
        <pt x="788" y="649" on="1"/>
        <pt x="798" y="635" on="1"/>
        <pt x="792" y="626" on="0"/>
        <pt x="778" y="603" on="0"/>
        <pt x="755" y="556" on="0"/>
        <pt x="718" y="478" on="0"/>
        <pt x="690" y="414" on="1"/>
        <pt x="713" y="415" on="0"/>
        <pt x="757" y="418" on="0"/>
      </contour>
      <contour>
        <pt x="642" y="640" on="1"/>
        <pt x="561" y="628" on="0"/>
        <pt x="393" y="487" on="0"/>
        <pt x="320" y="370" on="1"/>
        <pt x="392" y="378" on="0"/>
        <pt x="515" y="393" on="0"/>
        <pt x="569" y="400" on="1"/>
        <pt x="584" y="440" on="0"/>
        <pt x="606" y="500" on="0"/>
        <pt x="622" y="553" on="0"/>
        <pt x="635" y="607" on="0"/>
      </contour>
    </TTGlyph>
    <TTGlyph name="AEacute" xMin="71" yMin="-81" xMax="1068" yMax="883">
      <contour>
        <pt x="777" y="418" on="1"/>
        <pt x="830" y="418" on="0"/>
        <pt x="889" y="382" on="0"/>
        <pt x="889" y="350" on="1"/>
        <pt x="889" y="342" on="0"/>
        <pt x="885" y="325" on="0"/>
        <pt x="881" y="319" on="1"/>
        <pt x="861" y="321" on="0"/>
        <pt x="809" y="324" on="0"/>
        <pt x="774" y="324" on="1"/>
        <pt x="748" y="324" on="0"/>
        <pt x="684" y="321" on="0"/>
        <pt x="649" y="319" on="1"/>
        <pt x="625" y="265" on="0"/>
        <pt x="586" y="164" on="0"/>
        <pt x="558" y="80" on="0"/>
        <pt x="542" y="18" on="0"/>
        <pt x="541" y="3" on="1"/>
        <pt x="622" y="20" on="0"/>
        <pt x="787" y="44" on="0"/>
        <pt x="878" y="50" on="1"/>
        <pt x="889" y="33" on="0"/>
        <pt x="904" y="-7" on="0"/>
        <pt x="904" y="-30" on="1"/>
        <pt x="904" y="-36" on="0"/>
        <pt x="904" y="-50" on="0"/>
        <pt x="902" y="-57" on="1"/>
        <pt x="874" y="-56" on="0"/>
        <pt x="812" y="-55" on="0"/>
        <pt x="762" y="-55" on="1"/>
        <pt x="729" y="-55" on="0"/>
        <pt x="670" y="-58" on="0"/>
        <pt x="610" y="-64" on="0"/>
        <pt x="543" y="-74" on="0"/>
        <pt x="501" y="-81" on="1"/>
        <pt x="455" y="-63" on="0"/>
        <pt x="412" y="7" on="1"/>
        <pt x="429" y="43" on="0"/>
        <pt x="490" y="190" on="0"/>
        <pt x="536" y="312" on="1"/>
        <pt x="466" y="307" on="0"/>
        <pt x="340" y="299" on="0"/>
        <pt x="301" y="299" on="1"/>
        <pt x="279" y="299" on="1"/>
        <pt x="256" y="256" on="0"/>
        <pt x="215" y="161" on="0"/>
        <pt x="197" y="110" on="1"/>
        <pt x="180" y="62" on="0"/>
        <pt x="159" y="-34" on="0"/>
        <pt x="156" y="-76" on="1"/>
        <pt x="108" y="-62" on="0"/>
        <pt x="71" y="-34" on="0"/>
        <pt x="71" y="-13" on="1"/>
        <pt x="71" y="0" on="0"/>
        <pt x="92" y="62" on="0"/>
        <pt x="130" y="149" on="0"/>
        <pt x="183" y="253" on="0"/>
        <pt x="216" y="308" on="1"/>
        <pt x="154" y="322" on="0"/>
        <pt x="133" y="355" on="1"/>
        <pt x="194" y="358" on="0"/>
        <pt x="250" y="364" on="1"/>
        <pt x="293" y="431" on="0"/>
        <pt x="390" y="559" on="0"/>
        <pt x="493" y="659" on="0"/>
        <pt x="598" y="719" on="0"/>
        <pt x="648" y="719" on="1"/>
        <pt x="675" y="719" on="0"/>
        <pt x="732" y="716" on="0"/>
        <pt x="759" y="716" on="1"/>
        <pt x="801" y="716" on="0"/>
        <pt x="883" y="723" on="0"/>
        <pt x="949" y="730" on="0"/>
        <pt x="994" y="737" on="0"/>
        <pt x="1000" y="737" on="1"/>
        <pt x="1023" y="737" on="0"/>
        <pt x="1059" y="679" on="0"/>
        <pt x="1068" y="630" on="1"/>
        <pt x="1055" y="634" on="0"/>
        <pt x="1007" y="642" on="0"/>
        <pt x="944" y="647" on="0"/>
        <pt x="870" y="650" on="0"/>
        <pt x="831" y="650" on="1"/>
        <pt x="820" y="650" on="0"/>
        <pt x="799" y="650" on="0"/>
        <pt x="788" y="649" on="1"/>
        <pt x="798" y="635" on="1"/>
        <pt x="792" y="626" on="0"/>
        <pt x="778" y="603" on="0"/>
        <pt x="755" y="556" on="0"/>
        <pt x="718" y="478" on="0"/>
        <pt x="690" y="414" on="1"/>
        <pt x="713" y="415" on="0"/>
        <pt x="757" y="418" on="0"/>
      </contour>
      <contour>
        <pt x="642" y="640" on="1"/>
        <pt x="561" y="628" on="0"/>
        <pt x="393" y="487" on="0"/>
        <pt x="320" y="370" on="1"/>
        <pt x="392" y="378" on="0"/>
        <pt x="515" y="393" on="0"/>
        <pt x="569" y="400" on="1"/>
        <pt x="584" y="440" on="0"/>
        <pt x="606" y="500" on="0"/>
        <pt x="622" y="553" on="0"/>
        <pt x="635" y="607" on="0"/>
      </contour>
      <contour>
        <pt x="871" y="883" on="1"/>
        <pt x="892" y="877" on="0"/>
        <pt x="929" y="837" on="0"/>
        <pt x="929" y="819" on="1"/>
        <pt x="891" y="803" on="0"/>
        <pt x="834" y="782" on="0"/>
        <pt x="789" y="769" on="0"/>
        <pt x="755" y="764" on="0"/>
        <pt x="739" y="764" on="1"/>
        <pt x="707" y="764" on="0"/>
        <pt x="684" y="783" on="1"/>
        <pt x="729" y="793" on="0"/>
        <pt x="829" y="846" on="0"/>
      </contour>
    </TTGlyph>
    <TTGlyph name="Aacute" xMin="61" yMin="-76" xMax="813" yMax="883">
      <contour>
        <pt x="146" y="-76" on="1"/>
        <pt x="98" y="-62" on="0"/>
        <pt x="61" y="-34" on="0"/>
        <pt x="61" y="-13" on="1"/>
        <pt x="61" y="3" on="0"/>
        <pt x="79" y="61" on="0"/>
        <pt x="114" y="140" on="0"/>
        <pt x="163" y="236" on="0"/>
        <pt x="194" y="291" on="1"/>
        <pt x="168" y="292" on="0"/>
        <pt x="127" y="293" on="0"/>
        <pt x="114" y="293" on="1"/>
        <pt x="120" y="308" on="0"/>
        <pt x="176" y="330" on="0"/>
        <pt x="222" y="338" on="1"/>
        <pt x="261" y="403" on="0"/>
        <pt x="350" y="521" on="0"/>
        <pt x="440" y="620" on="0"/>
        <pt x="530" y="695" on="0"/>
        <pt x="571" y="717" on="1"/>
        <pt x="572" y="724" on="0"/>
        <pt x="573" y="734" on="0"/>
        <pt x="573" y="736" on="1"/>
        <pt x="587" y="736" on="0"/>
        <pt x="634" y="722" on="0"/>
        <pt x="679" y="702" on="0"/>
        <pt x="714" y="681" on="0"/>
        <pt x="716" y="674" on="1"/>
        <pt x="683" y="616" on="0"/>
        <pt x="619" y="385" on="0"/>
        <pt x="598" y="224" on="1"/>
        <pt x="593" y="184" on="0"/>
        <pt x="586" y="82" on="0"/>
        <pt x="586" y="19" on="1"/>
        <pt x="586" y="-3" on="0"/>
        <pt x="586" y="-49" on="0"/>
        <pt x="588" y="-74" on="1"/>
        <pt x="586" y="-75" on="0"/>
        <pt x="582" y="-75" on="0"/>
        <pt x="576" y="-75" on="1"/>
        <pt x="562" y="-75" on="0"/>
        <pt x="525" y="-66" on="0"/>
        <pt x="490" y="-53" on="0"/>
        <pt x="465" y="-37" on="0"/>
        <pt x="462" y="-31" on="1"/>
        <pt x="461" y="-18" on="0"/>
        <pt x="461" y="7" on="0"/>
        <pt x="461" y="21" on="1"/>
        <pt x="461" y="83" on="0"/>
        <pt x="470" y="211" on="0"/>
        <pt x="481" y="279" on="1"/>
        <pt x="467" y="280" on="0"/>
        <pt x="421" y="283" on="0"/>
        <pt x="364" y="285" on="0"/>
        <pt x="299" y="288" on="0"/>
        <pt x="268" y="289" on="1"/>
        <pt x="244" y="244" on="0"/>
        <pt x="202" y="155" on="0"/>
        <pt x="187" y="110" on="1"/>
        <pt x="170" y="62" on="0"/>
        <pt x="149" y="-34" on="0"/>
      </contour>
      <contour>
        <pt x="532" y="525" on="1"/>
        <pt x="536" y="539" on="0"/>
        <pt x="547" y="588" on="0"/>
        <pt x="552" y="615" on="1"/>
        <pt x="527" y="606" on="0"/>
        <pt x="466" y="558" on="0"/>
        <pt x="401" y="487" on="0"/>
        <pt x="334" y="398" on="0"/>
        <pt x="303" y="348" on="1"/>
        <pt x="387" y="355" on="0"/>
        <pt x="494" y="357" on="1"/>
        <pt x="502" y="399" on="0"/>
        <pt x="521" y="482" on="0"/>
      </contour>
      <contour>
        <pt x="755" y="883" on="1"/>
        <pt x="776" y="877" on="0"/>
        <pt x="813" y="837" on="0"/>
        <pt x="813" y="819" on="1"/>
        <pt x="775" y="803" on="0"/>
        <pt x="718" y="782" on="0"/>
        <pt x="673" y="769" on="0"/>
        <pt x="639" y="764" on="0"/>
        <pt x="623" y="764" on="1"/>
        <pt x="591" y="764" on="0"/>
        <pt x="568" y="783" on="1"/>
        <pt x="613" y="793" on="0"/>
        <pt x="713" y="846" on="0"/>
      </contour>
    </TTGlyph>
    <TTGlyph name="Abreve" xMin="61" yMin="-76" xMax="826" yMax="883">
      <contour>
        <pt x="146" y="-76" on="1"/>
        <pt x="98" y="-62" on="0"/>
        <pt x="61" y="-34" on="0"/>
        <pt x="61" y="-13" on="1"/>
        <pt x="61" y="3" on="0"/>
        <pt x="79" y="61" on="0"/>
        <pt x="114" y="140" on="0"/>
        <pt x="163" y="236" on="0"/>
        <pt x="194" y="291" on="1"/>
        <pt x="168" y="292" on="0"/>
        <pt x="127" y="293" on="0"/>
        <pt x="114" y="293" on="1"/>
        <pt x="120" y="308" on="0"/>
        <pt x="176" y="330" on="0"/>
        <pt x="222" y="338" on="1"/>
        <pt x="261" y="403" on="0"/>
        <pt x="350" y="521" on="0"/>
        <pt x="440" y="620" on="0"/>
        <pt x="530" y="695" on="0"/>
        <pt x="571" y="717" on="1"/>
        <pt x="572" y="724" on="0"/>
        <pt x="573" y="734" on="0"/>
        <pt x="573" y="736" on="1"/>
        <pt x="587" y="736" on="0"/>
        <pt x="634" y="722" on="0"/>
        <pt x="679" y="702" on="0"/>
        <pt x="714" y="681" on="0"/>
        <pt x="716" y="674" on="1"/>
        <pt x="683" y="616" on="0"/>
        <pt x="619" y="385" on="0"/>
        <pt x="598" y="224" on="1"/>
        <pt x="593" y="184" on="0"/>
        <pt x="586" y="82" on="0"/>
        <pt x="586" y="19" on="1"/>
        <pt x="586" y="-3" on="0"/>
        <pt x="586" y="-49" on="0"/>
        <pt x="588" y="-74" on="1"/>
        <pt x="586" y="-75" on="0"/>
        <pt x="582" y="-75" on="0"/>
        <pt x="576" y="-75" on="1"/>
        <pt x="562" y="-75" on="0"/>
        <pt x="525" y="-66" on="0"/>
        <pt x="490" y="-53" on="0"/>
        <pt x="465" y="-37" on="0"/>
        <pt x="462" y="-31" on="1"/>
        <pt x="461" y="-18" on="0"/>
        <pt x="461" y="7" on="0"/>
        <pt x="461" y="21" on="1"/>
        <pt x="461" y="83" on="0"/>
        <pt x="470" y="211" on="0"/>
        <pt x="481" y="279" on="1"/>
        <pt x="467" y="280" on="0"/>
        <pt x="421" y="283" on="0"/>
        <pt x="364" y="285" on="0"/>
        <pt x="299" y="288" on="0"/>
        <pt x="268" y="289" on="1"/>
        <pt x="244" y="244" on="0"/>
        <pt x="202" y="155" on="0"/>
        <pt x="187" y="110" on="1"/>
        <pt x="170" y="62" on="0"/>
        <pt x="149" y="-34" on="0"/>
      </contour>
      <contour>
        <pt x="532" y="525" on="1"/>
        <pt x="536" y="539" on="0"/>
        <pt x="547" y="588" on="0"/>
        <pt x="552" y="615" on="1"/>
        <pt x="527" y="606" on="0"/>
        <pt x="466" y="558" on="0"/>
        <pt x="401" y="487" on="0"/>
        <pt x="334" y="398" on="0"/>
        <pt x="303" y="348" on="1"/>
        <pt x="387" y="355" on="0"/>
        <pt x="494" y="357" on="1"/>
        <pt x="502" y="399" on="0"/>
        <pt x="521" y="482" on="0"/>
      </contour>
      <contour>
        <pt x="680" y="764" on="1"/>
        <pt x="660" y="765" on="0"/>
        <pt x="616" y="776" on="0"/>
        <pt x="577" y="797" on="0"/>
        <pt x="546" y="829" on="0"/>
        <pt x="539" y="852" on="1"/>
        <pt x="552" y="866" on="0"/>
        <pt x="580" y="880" on="0"/>
        <pt x="608" y="883" on="1"/>
        <pt x="622" y="849" on="0"/>
        <pt x="675" y="821" on="0"/>
        <pt x="706" y="819" on="1"/>
        <pt x="744" y="825" on="0"/>
        <pt x="793" y="856" on="0"/>
        <pt x="810" y="880" on="1"/>
        <pt x="820" y="877" on="0"/>
        <pt x="826" y="861" on="1"/>
        <pt x="816" y="827" on="0"/>
        <pt x="738" y="775" on="0"/>
      </contour>
    </TTGlyph>
    <TTGlyph name="Acircumflex" xMin="61" yMin="-76" xMax="771" yMax="883">
      <contour>
        <pt x="146" y="-76" on="1"/>
        <pt x="98" y="-62" on="0"/>
        <pt x="61" y="-34" on="0"/>
        <pt x="61" y="-13" on="1"/>
        <pt x="61" y="3" on="0"/>
        <pt x="79" y="61" on="0"/>
        <pt x="114" y="140" on="0"/>
        <pt x="163" y="236" on="0"/>
        <pt x="194" y="291" on="1"/>
        <pt x="168" y="292" on="0"/>
        <pt x="127" y="293" on="0"/>
        <pt x="114" y="293" on="1"/>
        <pt x="120" y="308" on="0"/>
        <pt x="176" y="330" on="0"/>
        <pt x="222" y="338" on="1"/>
        <pt x="261" y="403" on="0"/>
        <pt x="350" y="521" on="0"/>
        <pt x="440" y="620" on="0"/>
        <pt x="530" y="695" on="0"/>
        <pt x="571" y="717" on="1"/>
        <pt x="572" y="724" on="0"/>
        <pt x="573" y="734" on="0"/>
        <pt x="573" y="736" on="1"/>
        <pt x="587" y="736" on="0"/>
        <pt x="634" y="722" on="0"/>
        <pt x="679" y="702" on="0"/>
        <pt x="714" y="681" on="0"/>
        <pt x="716" y="674" on="1"/>
        <pt x="683" y="616" on="0"/>
        <pt x="619" y="385" on="0"/>
        <pt x="598" y="224" on="1"/>
        <pt x="593" y="184" on="0"/>
        <pt x="586" y="82" on="0"/>
        <pt x="586" y="19" on="1"/>
        <pt x="586" y="-3" on="0"/>
        <pt x="586" y="-49" on="0"/>
        <pt x="588" y="-74" on="1"/>
        <pt x="586" y="-75" on="0"/>
        <pt x="582" y="-75" on="0"/>
        <pt x="576" y="-75" on="1"/>
        <pt x="562" y="-75" on="0"/>
        <pt x="525" y="-66" on="0"/>
        <pt x="490" y="-53" on="0"/>
        <pt x="465" y="-37" on="0"/>
        <pt x="462" y="-31" on="1"/>
        <pt x="461" y="-18" on="0"/>
        <pt x="461" y="7" on="0"/>
        <pt x="461" y="21" on="1"/>
        <pt x="461" y="83" on="0"/>
        <pt x="470" y="211" on="0"/>
        <pt x="481" y="279" on="1"/>
        <pt x="467" y="280" on="0"/>
        <pt x="421" y="283" on="0"/>
        <pt x="364" y="285" on="0"/>
        <pt x="299" y="288" on="0"/>
        <pt x="268" y="289" on="1"/>
        <pt x="244" y="244" on="0"/>
        <pt x="202" y="155" on="0"/>
        <pt x="187" y="110" on="1"/>
        <pt x="170" y="62" on="0"/>
        <pt x="149" y="-34" on="0"/>
      </contour>
      <contour>
        <pt x="532" y="525" on="1"/>
        <pt x="536" y="539" on="0"/>
        <pt x="547" y="588" on="0"/>
        <pt x="552" y="615" on="1"/>
        <pt x="527" y="606" on="0"/>
        <pt x="466" y="558" on="0"/>
        <pt x="401" y="487" on="0"/>
        <pt x="334" y="398" on="0"/>
        <pt x="303" y="348" on="1"/>
        <pt x="387" y="355" on="0"/>
        <pt x="494" y="357" on="1"/>
        <pt x="502" y="399" on="0"/>
        <pt x="521" y="482" on="0"/>
      </contour>
      <contour>
        <pt x="719" y="882" on="1"/>
        <pt x="726" y="826" on="0"/>
        <pt x="748" y="768" on="0"/>
        <pt x="771" y="754" on="1"/>
        <pt x="769" y="753" on="0"/>
        <pt x="762" y="753" on="1"/>
        <pt x="737" y="753" on="0"/>
        <pt x="684" y="784" on="0"/>
        <pt x="663" y="809" on="1"/>
        <pt x="636" y="789" on="0"/>
        <pt x="574" y="764" on="0"/>
        <pt x="551" y="764" on="1"/>
        <pt x="536" y="764" on="0"/>
        <pt x="509" y="773" on="0"/>
        <pt x="497" y="786" on="1"/>
        <pt x="573" y="805" on="0"/>
        <pt x="634" y="857" on="1"/>
        <pt x="632" y="861" on="0"/>
        <pt x="630" y="869" on="1"/>
        <pt x="650" y="883" on="0"/>
        <pt x="691" y="883" on="1"/>
        <pt x="703" y="883" on="0"/>
        <pt x="714" y="883" on="0"/>
      </contour>
    </TTGlyph>
    <TTGlyph name="Adieresis" xMin="61" yMin="-76" xMax="823" yMax="883">
      <contour>
        <pt x="146" y="-76" on="1"/>
        <pt x="98" y="-62" on="0"/>
        <pt x="61" y="-34" on="0"/>
        <pt x="61" y="-13" on="1"/>
        <pt x="61" y="3" on="0"/>
        <pt x="79" y="61" on="0"/>
        <pt x="114" y="140" on="0"/>
        <pt x="163" y="236" on="0"/>
        <pt x="194" y="291" on="1"/>
        <pt x="168" y="292" on="0"/>
        <pt x="127" y="293" on="0"/>
        <pt x="114" y="293" on="1"/>
        <pt x="120" y="308" on="0"/>
        <pt x="176" y="330" on="0"/>
        <pt x="222" y="338" on="1"/>
        <pt x="261" y="403" on="0"/>
        <pt x="350" y="521" on="0"/>
        <pt x="440" y="620" on="0"/>
        <pt x="530" y="695" on="0"/>
        <pt x="571" y="717" on="1"/>
        <pt x="572" y="724" on="0"/>
        <pt x="573" y="734" on="0"/>
        <pt x="573" y="736" on="1"/>
        <pt x="587" y="736" on="0"/>
        <pt x="634" y="722" on="0"/>
        <pt x="679" y="702" on="0"/>
        <pt x="714" y="681" on="0"/>
        <pt x="716" y="674" on="1"/>
        <pt x="683" y="616" on="0"/>
        <pt x="619" y="385" on="0"/>
        <pt x="598" y="224" on="1"/>
        <pt x="593" y="184" on="0"/>
        <pt x="586" y="82" on="0"/>
        <pt x="586" y="19" on="1"/>
        <pt x="586" y="-3" on="0"/>
        <pt x="586" y="-49" on="0"/>
        <pt x="588" y="-74" on="1"/>
        <pt x="586" y="-75" on="0"/>
        <pt x="582" y="-75" on="0"/>
        <pt x="576" y="-75" on="1"/>
        <pt x="562" y="-75" on="0"/>
        <pt x="525" y="-66" on="0"/>
        <pt x="490" y="-53" on="0"/>
        <pt x="465" y="-37" on="0"/>
        <pt x="462" y="-31" on="1"/>
        <pt x="461" y="-18" on="0"/>
        <pt x="461" y="7" on="0"/>
        <pt x="461" y="21" on="1"/>
        <pt x="461" y="83" on="0"/>
        <pt x="470" y="211" on="0"/>
        <pt x="481" y="279" on="1"/>
        <pt x="467" y="280" on="0"/>
        <pt x="421" y="283" on="0"/>
        <pt x="364" y="285" on="0"/>
        <pt x="299" y="288" on="0"/>
        <pt x="268" y="289" on="1"/>
        <pt x="244" y="244" on="0"/>
        <pt x="202" y="155" on="0"/>
        <pt x="187" y="110" on="1"/>
        <pt x="170" y="62" on="0"/>
        <pt x="149" y="-34" on="0"/>
      </contour>
      <contour>
        <pt x="532" y="525" on="1"/>
        <pt x="536" y="539" on="0"/>
        <pt x="547" y="588" on="0"/>
        <pt x="552" y="615" on="1"/>
        <pt x="527" y="606" on="0"/>
        <pt x="466" y="558" on="0"/>
        <pt x="401" y="487" on="0"/>
        <pt x="334" y="398" on="0"/>
        <pt x="303" y="348" on="1"/>
        <pt x="387" y="355" on="0"/>
        <pt x="494" y="357" on="1"/>
        <pt x="502" y="399" on="0"/>
        <pt x="521" y="482" on="0"/>
      </contour>
      <contour>
        <pt x="567" y="788" on="1"/>
        <pt x="567" y="803" on="0"/>
        <pt x="571" y="836" on="0"/>
        <pt x="583" y="863" on="0"/>
        <pt x="606" y="882" on="0"/>
        <pt x="625" y="883" on="1"/>
        <pt x="638" y="881" on="0"/>
        <pt x="683" y="856" on="0"/>
        <pt x="693" y="839" on="1"/>
        <pt x="693" y="839" on="0"/>
        <pt x="676" y="817" on="0"/>
        <pt x="653" y="791" on="0"/>
        <pt x="632" y="767" on="0"/>
        <pt x="628" y="764" on="1"/>
        <pt x="603" y="769" on="0"/>
        <pt x="572" y="779" on="0"/>
      </contour>
      <contour>
        <pt x="698" y="788" on="1"/>
        <pt x="698" y="804" on="0"/>
        <pt x="702" y="837" on="0"/>
        <pt x="714" y="864" on="0"/>
        <pt x="736" y="882" on="0"/>
        <pt x="754" y="883" on="1"/>
        <pt x="760" y="883" on="0"/>
        <pt x="779" y="875" on="0"/>
        <pt x="799" y="863" on="0"/>
        <pt x="817" y="847" on="0"/>
        <pt x="823" y="839" on="1"/>
        <pt x="823" y="838" on="0"/>
        <pt x="806" y="816" on="0"/>
        <pt x="784" y="789" on="0"/>
        <pt x="762" y="765" on="0"/>
        <pt x="756" y="763" on="1"/>
        <pt x="733" y="766" on="0"/>
        <pt x="704" y="780" on="0"/>
      </contour>
    </TTGlyph>
    <TTGlyph name="Agrave" xMin="61" yMin="-76" xMax="762" yMax="883">
      <contour>
        <pt x="146" y="-76" on="1"/>
        <pt x="98" y="-62" on="0"/>
        <pt x="61" y="-34" on="0"/>
        <pt x="61" y="-13" on="1"/>
        <pt x="61" y="3" on="0"/>
        <pt x="79" y="61" on="0"/>
        <pt x="114" y="140" on="0"/>
        <pt x="163" y="236" on="0"/>
        <pt x="194" y="291" on="1"/>
        <pt x="168" y="292" on="0"/>
        <pt x="127" y="293" on="0"/>
        <pt x="114" y="293" on="1"/>
        <pt x="120" y="308" on="0"/>
        <pt x="176" y="330" on="0"/>
        <pt x="222" y="338" on="1"/>
        <pt x="261" y="403" on="0"/>
        <pt x="350" y="521" on="0"/>
        <pt x="440" y="620" on="0"/>
        <pt x="530" y="695" on="0"/>
        <pt x="571" y="717" on="1"/>
        <pt x="572" y="724" on="0"/>
        <pt x="573" y="734" on="0"/>
        <pt x="573" y="736" on="1"/>
        <pt x="587" y="736" on="0"/>
        <pt x="634" y="722" on="0"/>
        <pt x="679" y="702" on="0"/>
        <pt x="714" y="681" on="0"/>
        <pt x="716" y="674" on="1"/>
        <pt x="683" y="616" on="0"/>
        <pt x="619" y="385" on="0"/>
        <pt x="598" y="224" on="1"/>
        <pt x="593" y="184" on="0"/>
        <pt x="586" y="82" on="0"/>
        <pt x="586" y="19" on="1"/>
        <pt x="586" y="-3" on="0"/>
        <pt x="586" y="-49" on="0"/>
        <pt x="588" y="-74" on="1"/>
        <pt x="586" y="-75" on="0"/>
        <pt x="582" y="-75" on="0"/>
        <pt x="576" y="-75" on="1"/>
        <pt x="562" y="-75" on="0"/>
        <pt x="525" y="-66" on="0"/>
        <pt x="490" y="-53" on="0"/>
        <pt x="465" y="-37" on="0"/>
        <pt x="462" y="-31" on="1"/>
        <pt x="461" y="-18" on="0"/>
        <pt x="461" y="7" on="0"/>
        <pt x="461" y="21" on="1"/>
        <pt x="461" y="83" on="0"/>
        <pt x="470" y="211" on="0"/>
        <pt x="481" y="279" on="1"/>
        <pt x="467" y="280" on="0"/>
        <pt x="421" y="283" on="0"/>
        <pt x="364" y="285" on="0"/>
        <pt x="299" y="288" on="0"/>
        <pt x="268" y="289" on="1"/>
        <pt x="244" y="244" on="0"/>
        <pt x="202" y="155" on="0"/>
        <pt x="187" y="110" on="1"/>
        <pt x="170" y="62" on="0"/>
        <pt x="149" y="-34" on="0"/>
      </contour>
      <contour>
        <pt x="532" y="525" on="1"/>
        <pt x="536" y="539" on="0"/>
        <pt x="547" y="588" on="0"/>
        <pt x="552" y="615" on="1"/>
        <pt x="527" y="606" on="0"/>
        <pt x="466" y="558" on="0"/>
        <pt x="401" y="487" on="0"/>
        <pt x="334" y="398" on="0"/>
        <pt x="303" y="348" on="1"/>
        <pt x="387" y="355" on="0"/>
        <pt x="494" y="357" on="1"/>
        <pt x="502" y="399" on="0"/>
        <pt x="521" y="482" on="0"/>
      </contour>
      <contour>
        <pt x="575" y="883" on="1"/>
        <pt x="617" y="846" on="0"/>
        <pt x="717" y="793" on="0"/>
        <pt x="762" y="783" on="1"/>
        <pt x="739" y="764" on="0"/>
        <pt x="707" y="764" on="1"/>
        <pt x="691" y="764" on="0"/>
        <pt x="657" y="769" on="0"/>
        <pt x="612" y="782" on="0"/>
        <pt x="555" y="803" on="0"/>
        <pt x="517" y="819" on="1"/>
        <pt x="517" y="828" on="0"/>
        <pt x="527" y="848" on="0"/>
        <pt x="544" y="866" on="0"/>
        <pt x="564" y="880" on="0"/>
      </contour>
    </TTGlyph>
    <TTGlyph name="Amacron" xMin="61" yMin="-76" xMax="810" yMax="883">
      <contour>
        <pt x="146" y="-76" on="1"/>
        <pt x="98" y="-62" on="0"/>
        <pt x="61" y="-34" on="0"/>
        <pt x="61" y="-13" on="1"/>
        <pt x="61" y="3" on="0"/>
        <pt x="79" y="61" on="0"/>
        <pt x="114" y="140" on="0"/>
        <pt x="163" y="236" on="0"/>
        <pt x="194" y="291" on="1"/>
        <pt x="168" y="292" on="0"/>
        <pt x="127" y="293" on="0"/>
        <pt x="114" y="293" on="1"/>
        <pt x="120" y="308" on="0"/>
        <pt x="176" y="330" on="0"/>
        <pt x="222" y="338" on="1"/>
        <pt x="261" y="403" on="0"/>
        <pt x="350" y="521" on="0"/>
        <pt x="440" y="620" on="0"/>
        <pt x="530" y="695" on="0"/>
        <pt x="571" y="717" on="1"/>
        <pt x="572" y="724" on="0"/>
        <pt x="573" y="734" on="0"/>
        <pt x="573" y="736" on="1"/>
        <pt x="587" y="736" on="0"/>
        <pt x="634" y="722" on="0"/>
        <pt x="679" y="702" on="0"/>
        <pt x="714" y="681" on="0"/>
        <pt x="716" y="674" on="1"/>
        <pt x="683" y="616" on="0"/>
        <pt x="619" y="385" on="0"/>
        <pt x="598" y="224" on="1"/>
        <pt x="593" y="184" on="0"/>
        <pt x="586" y="82" on="0"/>
        <pt x="586" y="19" on="1"/>
        <pt x="586" y="-3" on="0"/>
        <pt x="586" y="-49" on="0"/>
        <pt x="588" y="-74" on="1"/>
        <pt x="586" y="-75" on="0"/>
        <pt x="582" y="-75" on="0"/>
        <pt x="576" y="-75" on="1"/>
        <pt x="562" y="-75" on="0"/>
        <pt x="525" y="-66" on="0"/>
        <pt x="490" y="-53" on="0"/>
        <pt x="465" y="-37" on="0"/>
        <pt x="462" y="-31" on="1"/>
        <pt x="461" y="-18" on="0"/>
        <pt x="461" y="7" on="0"/>
        <pt x="461" y="21" on="1"/>
        <pt x="461" y="83" on="0"/>
        <pt x="470" y="211" on="0"/>
        <pt x="481" y="279" on="1"/>
        <pt x="467" y="280" on="0"/>
        <pt x="421" y="283" on="0"/>
        <pt x="364" y="285" on="0"/>
        <pt x="299" y="288" on="0"/>
        <pt x="268" y="289" on="1"/>
        <pt x="244" y="244" on="0"/>
        <pt x="202" y="155" on="0"/>
        <pt x="187" y="110" on="1"/>
        <pt x="170" y="62" on="0"/>
        <pt x="149" y="-34" on="0"/>
      </contour>
      <contour>
        <pt x="532" y="525" on="1"/>
        <pt x="536" y="539" on="0"/>
        <pt x="547" y="588" on="0"/>
        <pt x="552" y="615" on="1"/>
        <pt x="527" y="606" on="0"/>
        <pt x="466" y="558" on="0"/>
        <pt x="401" y="487" on="0"/>
        <pt x="334" y="398" on="0"/>
        <pt x="303" y="348" on="1"/>
        <pt x="387" y="355" on="0"/>
        <pt x="494" y="357" on="1"/>
        <pt x="502" y="399" on="0"/>
        <pt x="521" y="482" on="0"/>
      </contour>
      <contour>
        <pt x="506" y="866" on="1"/>
        <pt x="551" y="863" on="0"/>
        <pt x="597" y="863" on="1"/>
        <pt x="703" y="863" on="0"/>
        <pt x="792" y="883" on="1"/>
        <pt x="799" y="872" on="0"/>
        <pt x="810" y="825" on="0"/>
        <pt x="810" y="806" on="1"/>
        <pt x="773" y="799" on="0"/>
        <pt x="695" y="797" on="0"/>
        <pt x="656" y="797" on="1"/>
        <pt x="563" y="797" on="0"/>
        <pt x="504" y="810" on="1"/>
        <pt x="505" y="818" on="0"/>
        <pt x="506" y="843" on="0"/>
      </contour>
    </TTGlyph>
    <TTGlyph name="Aogonek" xMin="61" yMin="-309" xMax="716" yMax="736">
      <contour>
        <pt x="401" y="-212" on="1"/>
        <pt x="401" y="-189" on="0"/>
        <pt x="419" y="-143" on="0"/>
        <pt x="450" y="-103" on="0"/>
        <pt x="491" y="-70" on="0"/>
        <pt x="514" y="-61" on="1"/>
        <pt x="494" y="-54" on="0"/>
        <pt x="465" y="-38" on="0"/>
        <pt x="462" y="-31" on="1"/>
        <pt x="461" y="-18" on="0"/>
        <pt x="461" y="7" on="0"/>
        <pt x="461" y="21" on="1"/>
        <pt x="461" y="83" on="0"/>
        <pt x="470" y="211" on="0"/>
        <pt x="481" y="279" on="1"/>
        <pt x="467" y="280" on="0"/>
        <pt x="421" y="283" on="0"/>
        <pt x="364" y="285" on="0"/>
        <pt x="299" y="288" on="0"/>
        <pt x="268" y="289" on="1"/>
        <pt x="244" y="244" on="0"/>
        <pt x="202" y="155" on="0"/>
        <pt x="187" y="110" on="1"/>
        <pt x="170" y="62" on="0"/>
        <pt x="149" y="-34" on="0"/>
        <pt x="146" y="-76" on="1"/>
        <pt x="98" y="-62" on="0"/>
        <pt x="61" y="-34" on="0"/>
        <pt x="61" y="-13" on="1"/>
        <pt x="61" y="3" on="0"/>
        <pt x="79" y="61" on="0"/>
        <pt x="114" y="140" on="0"/>
        <pt x="163" y="236" on="0"/>
        <pt x="194" y="291" on="1"/>
        <pt x="168" y="292" on="0"/>
        <pt x="127" y="293" on="0"/>
        <pt x="114" y="293" on="1"/>
        <pt x="120" y="308" on="0"/>
        <pt x="176" y="330" on="0"/>
        <pt x="222" y="338" on="1"/>
        <pt x="261" y="403" on="0"/>
        <pt x="350" y="521" on="0"/>
        <pt x="440" y="620" on="0"/>
        <pt x="530" y="695" on="0"/>
        <pt x="571" y="717" on="1"/>
        <pt x="572" y="724" on="0"/>
        <pt x="573" y="734" on="0"/>
        <pt x="573" y="736" on="1"/>
        <pt x="587" y="736" on="0"/>
        <pt x="634" y="722" on="0"/>
        <pt x="679" y="702" on="0"/>
        <pt x="714" y="681" on="0"/>
        <pt x="716" y="674" on="1"/>
        <pt x="683" y="616" on="0"/>
        <pt x="619" y="385" on="0"/>
        <pt x="598" y="224" on="1"/>
        <pt x="593" y="184" on="0"/>
        <pt x="586" y="82" on="0"/>
        <pt x="586" y="19" on="1"/>
        <pt x="586" y="-3" on="0"/>
        <pt x="586" y="-49" on="0"/>
        <pt x="588" y="-74" on="1"/>
        <pt x="566" y="-79" on="0"/>
        <pt x="523" y="-103" on="0"/>
        <pt x="488" y="-141" on="0"/>
        <pt x="467" y="-193" on="0"/>
        <pt x="467" y="-224" on="1"/>
        <pt x="467" y="-250" on="0"/>
        <pt x="489" y="-271" on="0"/>
        <pt x="506" y="-271" on="1"/>
        <pt x="519" y="-271" on="0"/>
        <pt x="549" y="-261" on="0"/>
        <pt x="578" y="-247" on="0"/>
        <pt x="604" y="-231" on="0"/>
        <pt x="613" y="-225" on="1"/>
        <pt x="619" y="-237" on="1"/>
        <pt x="609" y="-249" on="0"/>
        <pt x="579" y="-274" on="0"/>
        <pt x="546" y="-294" on="0"/>
        <pt x="516" y="-308" on="0"/>
        <pt x="506" y="-309" on="1"/>
        <pt x="486" y="-308" on="0"/>
        <pt x="448" y="-293" on="0"/>
        <pt x="419" y="-268" on="0"/>
        <pt x="401" y="-234" on="0"/>
      </contour>
      <contour>
        <pt x="532" y="525" on="1"/>
        <pt x="536" y="539" on="0"/>
        <pt x="547" y="588" on="0"/>
        <pt x="552" y="615" on="1"/>
        <pt x="527" y="606" on="0"/>
        <pt x="466" y="558" on="0"/>
        <pt x="401" y="487" on="0"/>
        <pt x="334" y="398" on="0"/>
        <pt x="303" y="348" on="1"/>
        <pt x="387" y="355" on="0"/>
        <pt x="494" y="357" on="1"/>
        <pt x="502" y="399" on="0"/>
        <pt x="521" y="482" on="0"/>
      </contour>
    </TTGlyph>
    <TTGlyph name="Aring" xMin="62" yMin="-76" xMax="751" yMax="883">
      <contour>
        <pt x="740" y="766" on="1"/>
        <pt x="726" y="744" on="0"/>
        <pt x="684" y="715" on="0"/>
        <pt x="658" y="711" on="1"/>
        <pt x="681" y="701" on="0"/>
        <pt x="715" y="681" on="0"/>
        <pt x="717" y="674" on="1"/>
        <pt x="684" y="616" on="0"/>
        <pt x="620" y="385" on="0"/>
        <pt x="599" y="224" on="1"/>
        <pt x="594" y="184" on="0"/>
        <pt x="587" y="82" on="0"/>
        <pt x="587" y="19" on="1"/>
        <pt x="587" y="-3" on="0"/>
        <pt x="587" y="-49" on="0"/>
        <pt x="589" y="-74" on="1"/>
        <pt x="587" y="-75" on="0"/>
        <pt x="583" y="-75" on="0"/>
        <pt x="577" y="-75" on="1"/>
        <pt x="563" y="-75" on="0"/>
        <pt x="526" y="-66" on="0"/>
        <pt x="491" y="-53" on="0"/>
        <pt x="466" y="-37" on="0"/>
        <pt x="463" y="-31" on="1"/>
        <pt x="462" y="-18" on="0"/>
        <pt x="462" y="7" on="0"/>
        <pt x="462" y="21" on="1"/>
        <pt x="462" y="83" on="0"/>
        <pt x="471" y="211" on="0"/>
        <pt x="482" y="279" on="1"/>
        <pt x="468" y="280" on="0"/>
        <pt x="422" y="283" on="0"/>
        <pt x="365" y="285" on="0"/>
        <pt x="300" y="288" on="0"/>
        <pt x="269" y="289" on="1"/>
        <pt x="245" y="244" on="0"/>
        <pt x="203" y="155" on="0"/>
        <pt x="188" y="110" on="1"/>
        <pt x="171" y="62" on="0"/>
        <pt x="150" y="-34" on="0"/>
        <pt x="147" y="-76" on="1"/>
        <pt x="99" y="-62" on="0"/>
        <pt x="62" y="-34" on="0"/>
        <pt x="62" y="-13" on="1"/>
        <pt x="62" y="3" on="0"/>
        <pt x="80" y="61" on="0"/>
        <pt x="115" y="140" on="0"/>
        <pt x="164" y="236" on="0"/>
        <pt x="195" y="291" on="1"/>
        <pt x="169" y="292" on="0"/>
        <pt x="128" y="293" on="0"/>
        <pt x="115" y="293" on="1"/>
        <pt x="121" y="308" on="0"/>
        <pt x="177" y="330" on="0"/>
        <pt x="223" y="338" on="1"/>
        <pt x="263" y="408" on="0"/>
        <pt x="357" y="529" on="0"/>
        <pt x="452" y="630" on="0"/>
        <pt x="539" y="708" on="0"/>
        <pt x="574" y="734" on="1"/>
        <pt x="559" y="745" on="0"/>
        <pt x="541" y="776" on="0"/>
        <pt x="541" y="793" on="1"/>
        <pt x="541" y="813" on="0"/>
        <pt x="561" y="846" on="0"/>
        <pt x="593" y="870" on="0"/>
        <pt x="632" y="883" on="0"/>
        <pt x="651" y="883" on="1"/>
        <pt x="672" y="883" on="0"/>
        <pt x="708" y="870" on="0"/>
        <pt x="735" y="849" on="0"/>
        <pt x="751" y="820" on="0"/>
        <pt x="751" y="804" on="1"/>
        <pt x="751" y="785" on="0"/>
      </contour>
      <contour>
        <pt x="533" y="525" on="1"/>
        <pt x="537" y="539" on="0"/>
        <pt x="548" y="588" on="0"/>
        <pt x="553" y="615" on="1"/>
        <pt x="528" y="606" on="0"/>
        <pt x="467" y="558" on="0"/>
        <pt x="402" y="487" on="0"/>
        <pt x="335" y="398" on="0"/>
        <pt x="304" y="348" on="1"/>
        <pt x="388" y="355" on="0"/>
        <pt x="495" y="357" on="1"/>
        <pt x="503" y="399" on="0"/>
        <pt x="522" y="482" on="0"/>
      </contour>
      <contour>
        <pt x="709" y="813" on="1"/>
        <pt x="709" y="829" on="0"/>
        <pt x="689" y="853" on="0"/>
        <pt x="670" y="853" on="1"/>
        <pt x="659" y="853" on="0"/>
        <pt x="634" y="841" on="0"/>
        <pt x="613" y="822" on="0"/>
        <pt x="599" y="795" on="0"/>
        <pt x="599" y="780" on="1"/>
        <pt x="599" y="761" on="0"/>
        <pt x="615" y="734" on="0"/>
        <pt x="633" y="734" on="1"/>
        <pt x="651" y="734" on="0"/>
        <pt x="679" y="749" on="0"/>
        <pt x="699" y="773" on="0"/>
        <pt x="709" y="801" on="0"/>
      </contour>
    </TTGlyph>
    <TTGlyph name="Aringacute" xMin="49" yMin="-76" xMax="794" yMax="883">
      <contour>
        <pt x="683" y="649" on="1"/>
        <pt x="672" y="631" on="0"/>
        <pt x="655" y="619" on="1"/>
        <pt x="675" y="608" on="0"/>
        <pt x="678" y="600" on="1"/>
        <pt x="653" y="552" on="0"/>
        <pt x="603" y="357" on="0"/>
        <pt x="586" y="224" on="1"/>
        <pt x="581" y="184" on="0"/>
        <pt x="574" y="82" on="0"/>
        <pt x="574" y="19" on="1"/>
        <pt x="574" y="-3" on="0"/>
        <pt x="574" y="-49" on="0"/>
        <pt x="576" y="-74" on="1"/>
        <pt x="574" y="-75" on="0"/>
        <pt x="570" y="-75" on="0"/>
        <pt x="564" y="-75" on="1"/>
        <pt x="550" y="-75" on="0"/>
        <pt x="513" y="-66" on="0"/>
        <pt x="478" y="-53" on="0"/>
        <pt x="453" y="-37" on="0"/>
        <pt x="450" y="-31" on="1"/>
        <pt x="449" y="-18" on="0"/>
        <pt x="449" y="7" on="0"/>
        <pt x="449" y="21" on="1"/>
        <pt x="449" y="68" on="0"/>
        <pt x="454" y="167" on="0"/>
        <pt x="459" y="220" on="1"/>
        <pt x="442" y="221" on="0"/>
        <pt x="390" y="224" on="0"/>
        <pt x="329" y="226" on="0"/>
        <pt x="263" y="229" on="0"/>
        <pt x="232" y="230" on="1"/>
        <pt x="187" y="149" on="0"/>
        <pt x="139" y="-4" on="0"/>
        <pt x="134" y="-76" on="1"/>
        <pt x="86" y="-62" on="0"/>
        <pt x="49" y="-34" on="0"/>
        <pt x="49" y="-13" on="1"/>
        <pt x="49" y="15" on="0"/>
        <pt x="101" y="144" on="0"/>
        <pt x="149" y="232" on="1"/>
        <pt x="134" y="233" on="0"/>
        <pt x="110" y="233" on="0"/>
        <pt x="102" y="233" on="1"/>
        <pt x="111" y="254" on="0"/>
        <pt x="170" y="270" on="1"/>
        <pt x="205" y="330" on="1"/>
        <pt x="239" y="381" on="0"/>
        <pt x="318" y="473" on="0"/>
        <pt x="399" y="552" on="0"/>
        <pt x="481" y="615" on="0"/>
        <pt x="518" y="636" on="1"/>
        <pt x="504" y="653" on="0"/>
        <pt x="504" y="674" on="1"/>
        <pt x="504" y="692" on="0"/>
        <pt x="522" y="722" on="0"/>
        <pt x="551" y="743" on="0"/>
        <pt x="586" y="755" on="0"/>
        <pt x="603" y="755" on="1"/>
        <pt x="640" y="755" on="0"/>
        <pt x="693" y="713" on="0"/>
        <pt x="693" y="684" on="1"/>
        <pt x="693" y="668" on="0"/>
      </contour>
      <contour>
        <pt x="514" y="541" on="1"/>
        <pt x="487" y="532" on="0"/>
        <pt x="425" y="485" on="0"/>
        <pt x="359" y="417" on="0"/>
        <pt x="294" y="332" on="0"/>
        <pt x="264" y="285" on="1"/>
        <pt x="351" y="295" on="0"/>
        <pt x="468" y="297" on="1"/>
        <pt x="472" y="328" on="0"/>
        <pt x="481" y="379" on="0"/>
        <pt x="492" y="433" on="0"/>
        <pt x="505" y="497" on="0"/>
      </contour>
      <contour>
        <pt x="648" y="692" on="1"/>
        <pt x="648" y="706" on="0"/>
        <pt x="630" y="728" on="0"/>
        <pt x="613" y="728" on="1"/>
        <pt x="603" y="728" on="0"/>
        <pt x="581" y="717" on="0"/>
        <pt x="562" y="699" on="0"/>
        <pt x="549" y="675" on="0"/>
        <pt x="549" y="662" on="1"/>
        <pt x="549" y="645" on="0"/>
        <pt x="563" y="621" on="0"/>
        <pt x="580" y="621" on="1"/>
        <pt x="596" y="621" on="0"/>
        <pt x="621" y="635" on="0"/>
        <pt x="639" y="656" on="0"/>
        <pt x="648" y="681" on="0"/>
      </contour>
      <contour>
        <pt x="736" y="883" on="1"/>
        <pt x="757" y="877" on="0"/>
        <pt x="794" y="837" on="0"/>
        <pt x="794" y="819" on="1"/>
        <pt x="756" y="805" on="0"/>
        <pt x="703" y="786" on="0"/>
        <pt x="664" y="775" on="0"/>
        <pt x="634" y="770" on="0"/>
        <pt x="618" y="770" on="1"/>
        <pt x="586" y="770" on="0"/>
        <pt x="563" y="789" on="1"/>
        <pt x="608" y="799" on="0"/>
        <pt x="694" y="848" on="0"/>
      </contour>
    </TTGlyph>
    <TTGlyph name="Atilde" xMin="61" yMin="-76" xMax="781" yMax="883">
      <contour>
        <pt x="146" y="-76" on="1"/>
        <pt x="98" y="-62" on="0"/>
        <pt x="61" y="-34" on="0"/>
        <pt x="61" y="-13" on="1"/>
        <pt x="61" y="3" on="0"/>
        <pt x="79" y="61" on="0"/>
        <pt x="114" y="140" on="0"/>
        <pt x="163" y="236" on="0"/>
        <pt x="194" y="291" on="1"/>
        <pt x="168" y="292" on="0"/>
        <pt x="127" y="293" on="0"/>
        <pt x="114" y="293" on="1"/>
        <pt x="120" y="308" on="0"/>
        <pt x="176" y="330" on="0"/>
        <pt x="222" y="338" on="1"/>
        <pt x="261" y="403" on="0"/>
        <pt x="350" y="521" on="0"/>
        <pt x="440" y="620" on="0"/>
        <pt x="530" y="695" on="0"/>
        <pt x="571" y="717" on="1"/>
        <pt x="572" y="724" on="0"/>
        <pt x="573" y="734" on="0"/>
        <pt x="573" y="736" on="1"/>
        <pt x="587" y="736" on="0"/>
        <pt x="634" y="722" on="0"/>
        <pt x="679" y="702" on="0"/>
        <pt x="714" y="681" on="0"/>
        <pt x="716" y="674" on="1"/>
        <pt x="683" y="616" on="0"/>
        <pt x="619" y="385" on="0"/>
        <pt x="598" y="224" on="1"/>
        <pt x="593" y="184" on="0"/>
        <pt x="586" y="82" on="0"/>
        <pt x="586" y="19" on="1"/>
        <pt x="586" y="-3" on="0"/>
        <pt x="586" y="-49" on="0"/>
        <pt x="588" y="-74" on="1"/>
        <pt x="586" y="-75" on="0"/>
        <pt x="582" y="-75" on="0"/>
        <pt x="576" y="-75" on="1"/>
        <pt x="562" y="-75" on="0"/>
        <pt x="525" y="-66" on="0"/>
        <pt x="490" y="-53" on="0"/>
        <pt x="465" y="-37" on="0"/>
        <pt x="462" y="-31" on="1"/>
        <pt x="461" y="-18" on="0"/>
        <pt x="461" y="7" on="0"/>
        <pt x="461" y="21" on="1"/>
        <pt x="461" y="83" on="0"/>
        <pt x="470" y="211" on="0"/>
        <pt x="481" y="279" on="1"/>
        <pt x="467" y="280" on="0"/>
        <pt x="421" y="283" on="0"/>
        <pt x="364" y="285" on="0"/>
        <pt x="299" y="288" on="0"/>
        <pt x="268" y="289" on="1"/>
        <pt x="244" y="244" on="0"/>
        <pt x="202" y="155" on="0"/>
        <pt x="187" y="110" on="1"/>
        <pt x="170" y="62" on="0"/>
        <pt x="149" y="-34" on="0"/>
      </contour>
      <contour>
        <pt x="532" y="525" on="1"/>
        <pt x="536" y="539" on="0"/>
        <pt x="547" y="588" on="0"/>
        <pt x="552" y="615" on="1"/>
        <pt x="527" y="606" on="0"/>
        <pt x="466" y="558" on="0"/>
        <pt x="401" y="487" on="0"/>
        <pt x="334" y="398" on="0"/>
        <pt x="303" y="348" on="1"/>
        <pt x="387" y="355" on="0"/>
        <pt x="494" y="357" on="1"/>
        <pt x="502" y="399" on="0"/>
        <pt x="521" y="482" on="0"/>
      </contour>
      <contour>
        <pt x="484" y="853" on="1"/>
        <pt x="531" y="837" on="0"/>
        <pt x="576" y="837" on="1"/>
        <pt x="614" y="837" on="0"/>
        <pt x="696" y="859" on="0"/>
        <pt x="747" y="883" on="1"/>
        <pt x="759" y="871" on="0"/>
        <pt x="777" y="821" on="0"/>
        <pt x="781" y="803" on="1"/>
        <pt x="736" y="782" on="0"/>
        <pt x="660" y="771" on="0"/>
        <pt x="627" y="771" on="1"/>
        <pt x="565" y="771" on="0"/>
        <pt x="491" y="818" on="0"/>
      </contour>
    </TTGlyph>
    <TTGlyph name="B" xMin="135" yMin="-76" xMax="790" yMax="732">
      <contour>
        <pt x="790" y="551" on="1"/>
        <pt x="790" y="489" on="0"/>
        <pt x="722" y="392" on="0"/>
        <pt x="663" y="360" on="1"/>
        <pt x="701" y="334" on="0"/>
        <pt x="746" y="259" on="0"/>
        <pt x="746" y="214" on="1"/>
        <pt x="746" y="160" on="0"/>
        <pt x="681" y="55" on="0"/>
        <pt x="573" y="-26" on="0"/>
        <pt x="435" y="-76" on="0"/>
        <pt x="363" y="-76" on="1"/>
        <pt x="285" y="-76" on="0"/>
        <pt x="168" y="-17" on="0"/>
        <pt x="135" y="37" on="1"/>
        <pt x="145" y="67" on="0"/>
        <pt x="178" y="156" on="0"/>
        <pt x="218" y="255" on="0"/>
        <pt x="259" y="353" on="0"/>
        <pt x="277" y="392" on="1"/>
        <pt x="315" y="477" on="0"/>
        <pt x="375" y="589" on="0"/>
        <pt x="400" y="622" on="1"/>
        <pt x="345" y="605" on="0"/>
        <pt x="255" y="562" on="0"/>
        <pt x="234" y="542" on="1"/>
        <pt x="225" y="548" on="0"/>
        <pt x="206" y="572" on="0"/>
        <pt x="189" y="601" on="0"/>
        <pt x="178" y="631" on="0"/>
        <pt x="177" y="643" on="1"/>
        <pt x="203" y="661" on="0"/>
        <pt x="286" y="694" on="0"/>
        <pt x="384" y="718" on="0"/>
        <pt x="487" y="732" on="0"/>
        <pt x="534" y="732" on="1"/>
        <pt x="654" y="732" on="0"/>
        <pt x="790" y="636" on="0"/>
      </contour>
      <contour>
        <pt x="409" y="312" on="1"/>
        <pt x="390" y="321" on="0"/>
        <pt x="374" y="339" on="1"/>
        <pt x="351" y="288" on="0"/>
        <pt x="310" y="190" on="0"/>
        <pt x="278" y="106" on="0"/>
        <pt x="258" y="44" on="0"/>
        <pt x="257" y="30" on="1"/>
        <pt x="271" y="22" on="0"/>
        <pt x="310" y="14" on="0"/>
        <pt x="339" y="14" on="1"/>
        <pt x="407" y="14" on="0"/>
        <pt x="531" y="52" on="0"/>
        <pt x="625" y="117" on="0"/>
        <pt x="681" y="201" on="0"/>
        <pt x="681" y="247" on="1"/>
        <pt x="681" y="313" on="0"/>
        <pt x="624" y="342" on="1"/>
        <pt x="546" y="310" on="0"/>
        <pt x="448" y="310" on="1"/>
        <pt x="434" y="310" on="0"/>
        <pt x="419" y="310" on="0"/>
      </contour>
      <contour>
        <pt x="603" y="659" on="1"/>
        <pt x="582" y="659" on="0"/>
        <pt x="535" y="654" on="0"/>
        <pt x="509" y="649" on="1"/>
        <pt x="513" y="645" on="0"/>
        <pt x="518" y="636" on="0"/>
        <pt x="520" y="631" on="1"/>
        <pt x="511" y="619" on="0"/>
        <pt x="485" y="573" on="0"/>
        <pt x="453" y="512" on="0"/>
        <pt x="418" y="438" on="0"/>
        <pt x="400" y="399" on="1"/>
        <pt x="417" y="403" on="0"/>
        <pt x="466" y="408" on="0"/>
        <pt x="490" y="408" on="1"/>
        <pt x="503" y="408" on="0"/>
        <pt x="528" y="406" on="0"/>
        <pt x="540" y="404" on="1"/>
        <pt x="588" y="412" on="0"/>
        <pt x="665" y="443" on="0"/>
        <pt x="721" y="484" on="0"/>
        <pt x="751" y="534" on="0"/>
        <pt x="751" y="562" on="1"/>
        <pt x="751" y="610" on="0"/>
        <pt x="675" y="659" on="0"/>
      </contour>
    </TTGlyph>
    <TTGlyph name="C" xMin="142" yMin="-78" xMax="734" yMax="738">
      <contour>
        <pt x="142" y="196" on="1"/>
        <pt x="142" y="266" on="0"/>
        <pt x="175" y="401" on="0"/>
        <pt x="235" y="522" on="0"/>
        <pt x="318" y="623" on="0"/>
        <pt x="417" y="697" on="0"/>
        <pt x="529" y="738" on="0"/>
        <pt x="588" y="738" on="1"/>
        <pt x="657" y="738" on="0"/>
        <pt x="734" y="680" on="0"/>
        <pt x="734" y="628" on="1"/>
        <pt x="734" y="608" on="0"/>
        <pt x="723" y="566" on="0"/>
        <pt x="702" y="525" on="0"/>
        <pt x="674" y="487" on="0"/>
        <pt x="657" y="473" on="1"/>
        <pt x="631" y="477" on="0"/>
        <pt x="593" y="516" on="0"/>
        <pt x="588" y="542" on="1"/>
        <pt x="623" y="571" on="0"/>
        <pt x="664" y="634" on="0"/>
        <pt x="664" y="660" on="1"/>
        <pt x="664" y="704" on="0"/>
        <pt x="609" y="704" on="1"/>
        <pt x="586" y="704" on="0"/>
        <pt x="537" y="685" on="0"/>
        <pt x="487" y="651" on="0"/>
        <pt x="440" y="603" on="0"/>
        <pt x="420" y="574" on="1"/>
        <pt x="281" y="374" on="0"/>
        <pt x="281" y="165" on="1"/>
        <pt x="281" y="91" on="0"/>
        <pt x="327" y="1" on="0"/>
        <pt x="365" y="-7" on="1"/>
        <pt x="408" y="3" on="0"/>
        <pt x="540" y="93" on="0"/>
        <pt x="618" y="165" on="1"/>
        <pt x="628" y="155" on="0"/>
        <pt x="630" y="144" on="1"/>
        <pt x="601" y="106" on="0"/>
        <pt x="539" y="36" on="0"/>
        <pt x="478" y="-22" on="0"/>
        <pt x="419" y="-66" on="0"/>
        <pt x="394" y="-78" on="1"/>
        <pt x="270" y="-76" on="0"/>
        <pt x="142" y="62" on="0"/>
      </contour>
    </TTGlyph>
    <TTGlyph name="Cacute" xMin="142" yMin="-78" xMax="820" yMax="883">
      <contour>
        <pt x="142" y="196" on="1"/>
        <pt x="142" y="266" on="0"/>
        <pt x="175" y="401" on="0"/>
        <pt x="235" y="522" on="0"/>
        <pt x="318" y="623" on="0"/>
        <pt x="417" y="697" on="0"/>
        <pt x="529" y="738" on="0"/>
        <pt x="588" y="738" on="1"/>
        <pt x="657" y="738" on="0"/>
        <pt x="734" y="680" on="0"/>
        <pt x="734" y="628" on="1"/>
        <pt x="734" y="608" on="0"/>
        <pt x="723" y="566" on="0"/>
        <pt x="702" y="525" on="0"/>
        <pt x="674" y="487" on="0"/>
        <pt x="657" y="473" on="1"/>
        <pt x="631" y="477" on="0"/>
        <pt x="593" y="516" on="0"/>
        <pt x="588" y="542" on="1"/>
        <pt x="623" y="571" on="0"/>
        <pt x="664" y="634" on="0"/>
        <pt x="664" y="660" on="1"/>
        <pt x="664" y="704" on="0"/>
        <pt x="609" y="704" on="1"/>
        <pt x="586" y="704" on="0"/>
        <pt x="537" y="685" on="0"/>
        <pt x="487" y="651" on="0"/>
        <pt x="440" y="603" on="0"/>
        <pt x="420" y="574" on="1"/>
        <pt x="281" y="374" on="0"/>
        <pt x="281" y="165" on="1"/>
        <pt x="281" y="91" on="0"/>
        <pt x="327" y="1" on="0"/>
        <pt x="365" y="-7" on="1"/>
        <pt x="408" y="3" on="0"/>
        <pt x="540" y="93" on="0"/>
        <pt x="618" y="165" on="1"/>
        <pt x="628" y="155" on="0"/>
        <pt x="630" y="144" on="1"/>
        <pt x="601" y="106" on="0"/>
        <pt x="539" y="36" on="0"/>
        <pt x="478" y="-22" on="0"/>
        <pt x="419" y="-66" on="0"/>
        <pt x="394" y="-78" on="1"/>
        <pt x="270" y="-76" on="0"/>
        <pt x="142" y="62" on="0"/>
      </contour>
      <contour>
        <pt x="762" y="883" on="1"/>
        <pt x="783" y="877" on="0"/>
        <pt x="820" y="837" on="0"/>
        <pt x="820" y="819" on="1"/>
        <pt x="782" y="803" on="0"/>
        <pt x="725" y="782" on="0"/>
        <pt x="680" y="769" on="0"/>
        <pt x="646" y="764" on="0"/>
        <pt x="630" y="764" on="1"/>
        <pt x="598" y="764" on="0"/>
        <pt x="575" y="783" on="1"/>
        <pt x="620" y="793" on="0"/>
        <pt x="720" y="846" on="0"/>
      </contour>
    </TTGlyph>
    <TTGlyph name="Ccaron" xMin="142" yMin="-78" xMax="812" yMax="883">
      <contour>
        <pt x="142" y="196" on="1"/>
        <pt x="142" y="266" on="0"/>
        <pt x="175" y="401" on="0"/>
        <pt x="235" y="522" on="0"/>
        <pt x="318" y="623" on="0"/>
        <pt x="417" y="697" on="0"/>
        <pt x="529" y="738" on="0"/>
        <pt x="588" y="738" on="1"/>
        <pt x="657" y="738" on="0"/>
        <pt x="734" y="680" on="0"/>
        <pt x="734" y="628" on="1"/>
        <pt x="734" y="608" on="0"/>
        <pt x="723" y="566" on="0"/>
        <pt x="702" y="525" on="0"/>
        <pt x="674" y="487" on="0"/>
        <pt x="657" y="473" on="1"/>
        <pt x="631" y="477" on="0"/>
        <pt x="593" y="516" on="0"/>
        <pt x="588" y="542" on="1"/>
        <pt x="623" y="571" on="0"/>
        <pt x="664" y="634" on="0"/>
        <pt x="664" y="660" on="1"/>
        <pt x="664" y="704" on="0"/>
        <pt x="609" y="704" on="1"/>
        <pt x="586" y="704" on="0"/>
        <pt x="537" y="685" on="0"/>
        <pt x="487" y="651" on="0"/>
        <pt x="440" y="603" on="0"/>
        <pt x="420" y="574" on="1"/>
        <pt x="281" y="374" on="0"/>
        <pt x="281" y="165" on="1"/>
        <pt x="281" y="91" on="0"/>
        <pt x="327" y="1" on="0"/>
        <pt x="365" y="-7" on="1"/>
        <pt x="408" y="3" on="0"/>
        <pt x="540" y="93" on="0"/>
        <pt x="618" y="165" on="1"/>
        <pt x="628" y="155" on="0"/>
        <pt x="630" y="144" on="1"/>
        <pt x="601" y="106" on="0"/>
        <pt x="539" y="36" on="0"/>
        <pt x="478" y="-22" on="0"/>
        <pt x="419" y="-66" on="0"/>
        <pt x="394" y="-78" on="1"/>
        <pt x="270" y="-76" on="0"/>
        <pt x="142" y="62" on="0"/>
      </contour>
      <contour>
        <pt x="662" y="751" on="1"/>
        <pt x="647" y="759" on="0"/>
        <pt x="619" y="764" on="0"/>
        <pt x="609" y="764" on="1"/>
        <pt x="598" y="786" on="0"/>
        <pt x="582" y="818" on="0"/>
        <pt x="566" y="844" on="0"/>
        <pt x="546" y="867" on="0"/>
        <pt x="531" y="881" on="1"/>
        <pt x="539" y="883" on="0"/>
        <pt x="545" y="883" on="0"/>
        <pt x="548" y="883" on="1"/>
        <pt x="577" y="883" on="0"/>
        <pt x="622" y="848" on="0"/>
        <pt x="649" y="803" on="1"/>
        <pt x="679" y="835" on="0"/>
        <pt x="741" y="876" on="0"/>
        <pt x="763" y="883" on="1"/>
        <pt x="780" y="879" on="0"/>
        <pt x="812" y="838" on="1"/>
        <pt x="780" y="827" on="0"/>
        <pt x="703" y="790" on="0"/>
      </contour>
    </TTGlyph>
    <TTGlyph name="Ccedilla" xMin="142" yMin="-331" xMax="734" yMax="738">
      <contour>
        <pt x="142" y="196" on="1"/>
        <pt x="142" y="266" on="0"/>
        <pt x="175" y="401" on="0"/>
        <pt x="235" y="522" on="0"/>
        <pt x="318" y="623" on="0"/>
        <pt x="417" y="697" on="0"/>
        <pt x="529" y="738" on="0"/>
        <pt x="588" y="738" on="1"/>
        <pt x="657" y="738" on="0"/>
        <pt x="734" y="680" on="0"/>
        <pt x="734" y="628" on="1"/>
        <pt x="734" y="608" on="0"/>
        <pt x="723" y="566" on="0"/>
        <pt x="702" y="525" on="0"/>
        <pt x="674" y="487" on="0"/>
        <pt x="657" y="473" on="1"/>
        <pt x="631" y="477" on="0"/>
        <pt x="593" y="516" on="0"/>
        <pt x="588" y="542" on="1"/>
        <pt x="623" y="571" on="0"/>
        <pt x="664" y="634" on="0"/>
        <pt x="664" y="660" on="1"/>
        <pt x="664" y="704" on="0"/>
        <pt x="609" y="704" on="1"/>
        <pt x="586" y="704" on="0"/>
        <pt x="537" y="685" on="0"/>
        <pt x="487" y="651" on="0"/>
        <pt x="440" y="603" on="0"/>
        <pt x="420" y="574" on="1"/>
        <pt x="281" y="374" on="0"/>
        <pt x="281" y="165" on="1"/>
        <pt x="281" y="91" on="0"/>
        <pt x="327" y="1" on="0"/>
        <pt x="365" y="-7" on="1"/>
        <pt x="408" y="3" on="0"/>
        <pt x="540" y="93" on="0"/>
        <pt x="618" y="165" on="1"/>
        <pt x="628" y="155" on="0"/>
        <pt x="630" y="144" on="1"/>
        <pt x="601" y="106" on="0"/>
        <pt x="539" y="36" on="0"/>
        <pt x="478" y="-22" on="0"/>
        <pt x="419" y="-66" on="0"/>
        <pt x="394" y="-78" on="1"/>
        <pt x="380" y="-95" on="0"/>
        <pt x="361" y="-128" on="0"/>
        <pt x="356" y="-142" on="1"/>
        <pt x="365" y="-137" on="0"/>
        <pt x="392" y="-128" on="0"/>
        <pt x="420" y="-120" on="0"/>
        <pt x="447" y="-116" on="0"/>
        <pt x="456" y="-116" on="1"/>
        <pt x="460" y="-116" on="0"/>
        <pt x="480" y="-129" on="0"/>
        <pt x="499" y="-145" on="0"/>
        <pt x="514" y="-161" on="0"/>
        <pt x="514" y="-165" on="1"/>
        <pt x="514" y="-172" on="0"/>
        <pt x="490" y="-202" on="0"/>
        <pt x="453" y="-238" on="0"/>
        <pt x="407" y="-278" on="0"/>
        <pt x="365" y="-310" on="0"/>
        <pt x="330" y="-331" on="0"/>
        <pt x="322" y="-331" on="1"/>
        <pt x="320" y="-331" on="0"/>
        <pt x="313" y="-322" on="0"/>
        <pt x="306" y="-310" on="0"/>
        <pt x="301" y="-298" on="0"/>
        <pt x="301" y="-295" on="1"/>
        <pt x="324" y="-276" on="0"/>
        <pt x="358" y="-244" on="0"/>
        <pt x="386" y="-214" on="0"/>
        <pt x="410" y="-180" on="0"/>
        <pt x="423" y="-159" on="1"/>
        <pt x="415" y="-161" on="0"/>
        <pt x="385" y="-168" on="0"/>
        <pt x="352" y="-179" on="0"/>
        <pt x="319" y="-190" on="0"/>
        <pt x="307" y="-194" on="1"/>
        <pt x="304" y="-192" on="0"/>
        <pt x="300" y="-185" on="0"/>
        <pt x="299" y="-182" on="1"/>
        <pt x="304" y="-168" on="0"/>
        <pt x="339" y="-108" on="0"/>
        <pt x="362" y="-76" on="1"/>
        <pt x="253" y="-65" on="0"/>
        <pt x="142" y="71" on="0"/>
      </contour>
    </TTGlyph>
    <TTGlyph name="Ccircumflex" xMin="142" yMin="-78" xMax="778" yMax="883">
      <contour>
        <pt x="142" y="196" on="1"/>
        <pt x="142" y="266" on="0"/>
        <pt x="175" y="401" on="0"/>
        <pt x="235" y="522" on="0"/>
        <pt x="318" y="623" on="0"/>
        <pt x="417" y="697" on="0"/>
        <pt x="529" y="738" on="0"/>
        <pt x="588" y="738" on="1"/>
        <pt x="657" y="738" on="0"/>
        <pt x="734" y="680" on="0"/>
        <pt x="734" y="628" on="1"/>
        <pt x="734" y="608" on="0"/>
        <pt x="723" y="566" on="0"/>
        <pt x="702" y="525" on="0"/>
        <pt x="674" y="487" on="0"/>
        <pt x="657" y="473" on="1"/>
        <pt x="631" y="477" on="0"/>
        <pt x="593" y="516" on="0"/>
        <pt x="588" y="542" on="1"/>
        <pt x="623" y="571" on="0"/>
        <pt x="664" y="634" on="0"/>
        <pt x="664" y="660" on="1"/>
        <pt x="664" y="704" on="0"/>
        <pt x="609" y="704" on="1"/>
        <pt x="586" y="704" on="0"/>
        <pt x="537" y="685" on="0"/>
        <pt x="487" y="651" on="0"/>
        <pt x="440" y="603" on="0"/>
        <pt x="420" y="574" on="1"/>
        <pt x="281" y="374" on="0"/>
        <pt x="281" y="165" on="1"/>
        <pt x="281" y="91" on="0"/>
        <pt x="327" y="1" on="0"/>
        <pt x="365" y="-7" on="1"/>
        <pt x="408" y="3" on="0"/>
        <pt x="540" y="93" on="0"/>
        <pt x="618" y="165" on="1"/>
        <pt x="628" y="155" on="0"/>
        <pt x="630" y="144" on="1"/>
        <pt x="601" y="106" on="0"/>
        <pt x="539" y="36" on="0"/>
        <pt x="478" y="-22" on="0"/>
        <pt x="419" y="-66" on="0"/>
        <pt x="394" y="-78" on="1"/>
        <pt x="270" y="-76" on="0"/>
        <pt x="142" y="62" on="0"/>
      </contour>
      <contour>
        <pt x="726" y="882" on="1"/>
        <pt x="733" y="826" on="0"/>
        <pt x="755" y="768" on="0"/>
        <pt x="778" y="754" on="1"/>
        <pt x="776" y="753" on="0"/>
        <pt x="769" y="753" on="1"/>
        <pt x="744" y="753" on="0"/>
        <pt x="691" y="784" on="0"/>
        <pt x="670" y="809" on="1"/>
        <pt x="643" y="789" on="0"/>
        <pt x="581" y="764" on="0"/>
        <pt x="558" y="764" on="1"/>
        <pt x="543" y="764" on="0"/>
        <pt x="516" y="773" on="0"/>
        <pt x="504" y="786" on="1"/>
        <pt x="580" y="805" on="0"/>
        <pt x="641" y="857" on="1"/>
        <pt x="639" y="861" on="0"/>
        <pt x="637" y="869" on="1"/>
        <pt x="657" y="883" on="0"/>
        <pt x="698" y="883" on="1"/>
        <pt x="710" y="883" on="0"/>
        <pt x="721" y="883" on="0"/>
      </contour>
    </TTGlyph>
    <TTGlyph name="Cdotaccent" xMin="142" yMin="-78" xMax="748" yMax="883">
      <contour>
        <pt x="142" y="196" on="1"/>
        <pt x="142" y="266" on="0"/>
        <pt x="175" y="401" on="0"/>
        <pt x="235" y="522" on="0"/>
        <pt x="318" y="623" on="0"/>
        <pt x="417" y="697" on="0"/>
        <pt x="529" y="738" on="0"/>
        <pt x="588" y="738" on="1"/>
        <pt x="657" y="738" on="0"/>
        <pt x="734" y="680" on="0"/>
        <pt x="734" y="628" on="1"/>
        <pt x="734" y="608" on="0"/>
        <pt x="723" y="566" on="0"/>
        <pt x="702" y="525" on="0"/>
        <pt x="674" y="487" on="0"/>
        <pt x="657" y="473" on="1"/>
        <pt x="631" y="477" on="0"/>
        <pt x="593" y="516" on="0"/>
        <pt x="588" y="542" on="1"/>
        <pt x="623" y="571" on="0"/>
        <pt x="664" y="634" on="0"/>
        <pt x="664" y="660" on="1"/>
        <pt x="664" y="704" on="0"/>
        <pt x="609" y="704" on="1"/>
        <pt x="586" y="704" on="0"/>
        <pt x="537" y="685" on="0"/>
        <pt x="487" y="651" on="0"/>
        <pt x="440" y="603" on="0"/>
        <pt x="420" y="574" on="1"/>
        <pt x="281" y="374" on="0"/>
        <pt x="281" y="165" on="1"/>
        <pt x="281" y="91" on="0"/>
        <pt x="327" y="1" on="0"/>
        <pt x="365" y="-7" on="1"/>
        <pt x="408" y="3" on="0"/>
        <pt x="540" y="93" on="0"/>
        <pt x="618" y="165" on="1"/>
        <pt x="628" y="155" on="0"/>
        <pt x="630" y="144" on="1"/>
        <pt x="601" y="106" on="0"/>
        <pt x="539" y="36" on="0"/>
        <pt x="478" y="-22" on="0"/>
        <pt x="419" y="-66" on="0"/>
        <pt x="394" y="-78" on="1"/>
        <pt x="270" y="-76" on="0"/>
        <pt x="142" y="62" on="0"/>
      </contour>
      <contour>
        <pt x="637" y="791" on="1"/>
        <pt x="637" y="797" on="0"/>
        <pt x="640" y="809" on="1"/>
        <pt x="625" y="824" on="0"/>
        <pt x="625" y="849" on="1"/>
        <pt x="625" y="865" on="0"/>
        <pt x="630" y="883" on="1"/>
        <pt x="642" y="883" on="0"/>
        <pt x="676" y="879" on="0"/>
        <pt x="710" y="873" on="0"/>
        <pt x="740" y="864" on="0"/>
        <pt x="748" y="860" on="1"/>
        <pt x="740" y="855" on="0"/>
        <pt x="717" y="829" on="0"/>
        <pt x="694" y="799" on="0"/>
        <pt x="675" y="771" on="0"/>
        <pt x="672" y="764" on="1"/>
        <pt x="659" y="766" on="0"/>
        <pt x="637" y="783" on="0"/>
      </contour>
    </TTGlyph>
    <TTGlyph name="D" xMin="156" yMin="-76" xMax="842" yMax="738">
      <contour>
        <pt x="168" y="52" on="1"/>
        <pt x="183" y="85" on="0"/>
        <pt x="225" y="189" on="0"/>
        <pt x="271" y="310" on="0"/>
        <pt x="319" y="437" on="0"/>
        <pt x="361" y="551" on="0"/>
        <pt x="392" y="641" on="0"/>
        <pt x="399" y="665" on="1"/>
        <pt x="336" y="639" on="0"/>
        <pt x="246" y="533" on="0"/>
        <pt x="223" y="453" on="1"/>
        <pt x="200" y="461" on="0"/>
        <pt x="162" y="502" on="0"/>
        <pt x="156" y="533" on="1"/>
        <pt x="166" y="579" on="0"/>
        <pt x="221" y="655" on="0"/>
        <pt x="305" y="709" on="0"/>
        <pt x="415" y="738" on="0"/>
        <pt x="478" y="738" on="1"/>
        <pt x="558" y="738" on="0"/>
        <pt x="692" y="691" on="0"/>
        <pt x="788" y="607" on="0"/>
        <pt x="842" y="489" on="0"/>
        <pt x="842" y="417" on="1"/>
        <pt x="842" y="319" on="0"/>
        <pt x="770" y="141" on="0"/>
        <pt x="647" y="5" on="0"/>
        <pt x="485" y="-76" on="0"/>
        <pt x="396" y="-76" on="1"/>
        <pt x="314" y="-76" on="0"/>
        <pt x="197" y="-11" on="0"/>
      </contour>
      <contour>
        <pt x="521" y="688" on="1"/>
        <pt x="471" y="688" on="0"/>
        <pt x="426" y="674" on="1"/>
        <pt x="470" y="658" on="0"/>
        <pt x="528" y="623" on="0"/>
        <pt x="539" y="613" on="1"/>
        <pt x="531" y="602" on="0"/>
        <pt x="500" y="546" on="0"/>
        <pt x="459" y="466" on="0"/>
        <pt x="413" y="371" on="0"/>
        <pt x="391" y="321" on="1"/>
        <pt x="334" y="194" on="0"/>
        <pt x="283" y="48" on="0"/>
        <pt x="283" y="20" on="1"/>
        <pt x="297" y="15" on="0"/>
        <pt x="337" y="11" on="0"/>
        <pt x="360" y="11" on="1"/>
        <pt x="441" y="11" on="0"/>
        <pt x="586" y="86" on="0"/>
        <pt x="695" y="212" on="0"/>
        <pt x="758" y="379" on="0"/>
        <pt x="758" y="471" on="1"/>
        <pt x="758" y="574" on="0"/>
        <pt x="630" y="688" on="0"/>
      </contour>
    </TTGlyph>
    <TTGlyph name="Dcaron" xMin="156" yMin="-76" xMax="842" yMax="883">
      <contour>
        <pt x="168" y="52" on="1"/>
        <pt x="183" y="85" on="0"/>
        <pt x="225" y="189" on="0"/>
        <pt x="271" y="310" on="0"/>
        <pt x="319" y="437" on="0"/>
        <pt x="361" y="551" on="0"/>
        <pt x="392" y="641" on="0"/>
        <pt x="399" y="665" on="1"/>
        <pt x="336" y="639" on="0"/>
        <pt x="246" y="533" on="0"/>
        <pt x="223" y="453" on="1"/>
        <pt x="200" y="461" on="0"/>
        <pt x="162" y="502" on="0"/>
        <pt x="156" y="533" on="1"/>
        <pt x="166" y="579" on="0"/>
        <pt x="221" y="655" on="0"/>
        <pt x="305" y="709" on="0"/>
        <pt x="415" y="738" on="0"/>
        <pt x="478" y="738" on="1"/>
        <pt x="558" y="738" on="0"/>
        <pt x="692" y="691" on="0"/>
        <pt x="788" y="607" on="0"/>
        <pt x="842" y="489" on="0"/>
        <pt x="842" y="417" on="1"/>
        <pt x="842" y="319" on="0"/>
        <pt x="770" y="141" on="0"/>
        <pt x="647" y="5" on="0"/>
        <pt x="485" y="-76" on="0"/>
        <pt x="396" y="-76" on="1"/>
        <pt x="314" y="-76" on="0"/>
        <pt x="197" y="-11" on="0"/>
      </contour>
      <contour>
        <pt x="521" y="688" on="1"/>
        <pt x="471" y="688" on="0"/>
        <pt x="426" y="674" on="1"/>
        <pt x="470" y="658" on="0"/>
        <pt x="528" y="623" on="0"/>
        <pt x="539" y="613" on="1"/>
        <pt x="531" y="602" on="0"/>
        <pt x="500" y="546" on="0"/>
        <pt x="459" y="466" on="0"/>
        <pt x="413" y="371" on="0"/>
        <pt x="391" y="321" on="1"/>
        <pt x="334" y="194" on="0"/>
        <pt x="283" y="48" on="0"/>
        <pt x="283" y="20" on="1"/>
        <pt x="297" y="15" on="0"/>
        <pt x="337" y="11" on="0"/>
        <pt x="360" y="11" on="1"/>
        <pt x="441" y="11" on="0"/>
        <pt x="586" y="86" on="0"/>
        <pt x="695" y="212" on="0"/>
        <pt x="758" y="379" on="0"/>
        <pt x="758" y="471" on="1"/>
        <pt x="758" y="574" on="0"/>
        <pt x="630" y="688" on="0"/>
      </contour>
      <contour>
        <pt x="627" y="751" on="1"/>
        <pt x="612" y="759" on="0"/>
        <pt x="584" y="764" on="0"/>
        <pt x="574" y="764" on="1"/>
        <pt x="563" y="786" on="0"/>
        <pt x="547" y="818" on="0"/>
        <pt x="531" y="844" on="0"/>
        <pt x="511" y="867" on="0"/>
        <pt x="496" y="881" on="1"/>
        <pt x="504" y="883" on="0"/>
        <pt x="510" y="883" on="0"/>
        <pt x="513" y="883" on="1"/>
        <pt x="542" y="883" on="0"/>
        <pt x="587" y="848" on="0"/>
        <pt x="614" y="803" on="1"/>
        <pt x="644" y="835" on="0"/>
        <pt x="706" y="876" on="0"/>
        <pt x="728" y="883" on="1"/>
        <pt x="745" y="879" on="0"/>
        <pt x="777" y="838" on="1"/>
        <pt x="745" y="827" on="0"/>
        <pt x="668" y="790" on="0"/>
      </contour>
    </TTGlyph>
    <TTGlyph name="Dcroat" xMin="156" yMin="-76" xMax="842" yMax="738">
      <contour>
        <pt x="168" y="52" on="1"/>
        <pt x="185" y="90" on="0"/>
        <pt x="233" y="209" on="0"/>
        <pt x="259" y="278" on="1"/>
        <pt x="233" y="280" on="0"/>
        <pt x="187" y="285" on="0"/>
        <pt x="167" y="289" on="1"/>
        <pt x="169" y="299" on="0"/>
        <pt x="170" y="327" on="0"/>
        <pt x="170" y="355" on="1"/>
        <pt x="197" y="353" on="0"/>
        <pt x="253" y="352" on="0"/>
        <pt x="287" y="352" on="1"/>
        <pt x="306" y="401" on="0"/>
        <pt x="341" y="498" on="0"/>
        <pt x="371" y="581" on="0"/>
        <pt x="393" y="646" on="0"/>
        <pt x="399" y="665" on="1"/>
        <pt x="336" y="639" on="0"/>
        <pt x="246" y="533" on="0"/>
        <pt x="223" y="453" on="1"/>
        <pt x="200" y="461" on="0"/>
        <pt x="162" y="502" on="0"/>
        <pt x="156" y="533" on="1"/>
        <pt x="166" y="579" on="0"/>
        <pt x="221" y="655" on="0"/>
        <pt x="305" y="709" on="0"/>
        <pt x="415" y="738" on="0"/>
        <pt x="478" y="738" on="1"/>
        <pt x="558" y="738" on="0"/>
        <pt x="692" y="691" on="0"/>
        <pt x="788" y="607" on="0"/>
        <pt x="842" y="489" on="0"/>
        <pt x="842" y="417" on="1"/>
        <pt x="842" y="319" on="0"/>
        <pt x="770" y="141" on="0"/>
        <pt x="647" y="5" on="0"/>
        <pt x="485" y="-76" on="0"/>
        <pt x="396" y="-76" on="1"/>
        <pt x="314" y="-76" on="0"/>
        <pt x="197" y="-11" on="0"/>
      </contour>
      <contour>
        <pt x="521" y="688" on="1"/>
        <pt x="471" y="688" on="0"/>
        <pt x="426" y="674" on="1"/>
        <pt x="470" y="658" on="0"/>
        <pt x="528" y="623" on="0"/>
        <pt x="539" y="613" on="1"/>
        <pt x="532" y="603" on="0"/>
        <pt x="505" y="554" on="0"/>
        <pt x="469" y="486" on="0"/>
        <pt x="428" y="402" on="0"/>
        <pt x="407" y="357" on="1"/>
        <pt x="461" y="363" on="0"/>
        <pt x="513" y="372" on="1"/>
        <pt x="521" y="359" on="0"/>
        <pt x="535" y="306" on="0"/>
        <pt x="535" y="285" on="1"/>
        <pt x="455" y="276" on="0"/>
        <pt x="371" y="276" on="1"/>
        <pt x="324" y="170" on="0"/>
        <pt x="283" y="46" on="0"/>
        <pt x="283" y="20" on="1"/>
        <pt x="297" y="15" on="0"/>
        <pt x="337" y="11" on="0"/>
        <pt x="360" y="11" on="1"/>
        <pt x="441" y="11" on="0"/>
        <pt x="586" y="86" on="0"/>
        <pt x="695" y="212" on="0"/>
        <pt x="758" y="379" on="0"/>
        <pt x="758" y="471" on="1"/>
        <pt x="758" y="574" on="0"/>
        <pt x="630" y="688" on="0"/>
      </contour>
    </TTGlyph>
    <TTGlyph name="E" xMin="108" yMin="-81" xMax="764" yMax="737">
      <contour>
        <pt x="514" y="426" on="1"/>
        <pt x="547" y="426" on="0"/>
        <pt x="584" y="390" on="0"/>
        <pt x="584" y="358" on="1"/>
        <pt x="584" y="350" on="0"/>
        <pt x="581" y="333" on="0"/>
        <pt x="579" y="327" on="1"/>
        <pt x="566" y="329" on="0"/>
        <pt x="534" y="332" on="0"/>
        <pt x="512" y="332" on="1"/>
        <pt x="469" y="332" on="0"/>
        <pt x="381" y="317" on="0"/>
        <pt x="341" y="312" on="1"/>
        <pt x="318" y="259" on="0"/>
        <pt x="280" y="160" on="0"/>
        <pt x="253" y="78" on="0"/>
        <pt x="238" y="18" on="0"/>
        <pt x="237" y="3" on="1"/>
        <pt x="318" y="20" on="0"/>
        <pt x="483" y="44" on="0"/>
        <pt x="574" y="50" on="1"/>
        <pt x="585" y="33" on="0"/>
        <pt x="600" y="-7" on="0"/>
        <pt x="600" y="-30" on="1"/>
        <pt x="600" y="-36" on="0"/>
        <pt x="600" y="-50" on="0"/>
        <pt x="598" y="-57" on="1"/>
        <pt x="570" y="-56" on="0"/>
        <pt x="508" y="-55" on="0"/>
        <pt x="458" y="-55" on="1"/>
        <pt x="425" y="-55" on="0"/>
        <pt x="366" y="-58" on="0"/>
        <pt x="306" y="-64" on="0"/>
        <pt x="239" y="-74" on="0"/>
        <pt x="197" y="-81" on="1"/>
        <pt x="151" y="-63" on="0"/>
        <pt x="108" y="7" on="1"/>
        <pt x="125" y="43" on="0"/>
        <pt x="186" y="190" on="0"/>
        <pt x="233" y="313" on="1"/>
        <pt x="188" y="327" on="0"/>
        <pt x="174" y="363" on="1"/>
        <pt x="179" y="368" on="0"/>
        <pt x="227" y="383" on="0"/>
        <pt x="262" y="391" on="1"/>
        <pt x="277" y="430" on="0"/>
        <pt x="298" y="488" on="0"/>
        <pt x="314" y="539" on="0"/>
        <pt x="327" y="588" on="0"/>
        <pt x="333" y="617" on="1"/>
        <pt x="298" y="619" on="0"/>
        <pt x="258" y="654" on="0"/>
        <pt x="258" y="682" on="1"/>
        <pt x="258" y="690" on="0"/>
        <pt x="263" y="712" on="0"/>
        <pt x="266" y="720" on="1"/>
        <pt x="286" y="717" on="0"/>
        <pt x="323" y="715" on="0"/>
        <pt x="353" y="715" on="1"/>
        <pt x="416" y="715" on="0"/>
        <pt x="526" y="722" on="0"/>
        <pt x="615" y="730" on="0"/>
        <pt x="679" y="737" on="0"/>
        <pt x="696" y="737" on="1"/>
        <pt x="719" y="737" on="0"/>
        <pt x="755" y="689" on="0"/>
        <pt x="764" y="645" on="1"/>
        <pt x="733" y="648" on="0"/>
        <pt x="694" y="650" on="0"/>
        <pt x="679" y="650" on="1"/>
        <pt x="624" y="650" on="0"/>
        <pt x="533" y="639" on="0"/>
        <pt x="491" y="633" on="1"/>
        <pt x="485" y="624" on="0"/>
        <pt x="470" y="596" on="0"/>
        <pt x="446" y="546" on="0"/>
        <pt x="411" y="470" on="0"/>
        <pt x="386" y="413" on="1"/>
        <pt x="424" y="419" on="0"/>
        <pt x="491" y="426" on="0"/>
      </contour>
    </TTGlyph>
    <TTGlyph name="Eacute" xMin="108" yMin="-81" xMax="764" yMax="883">
      <contour>
        <pt x="514" y="426" on="1"/>
        <pt x="547" y="426" on="0"/>
        <pt x="584" y="390" on="0"/>
        <pt x="584" y="358" on="1"/>
        <pt x="584" y="350" on="0"/>
        <pt x="581" y="333" on="0"/>
        <pt x="579" y="327" on="1"/>
        <pt x="566" y="329" on="0"/>
        <pt x="534" y="332" on="0"/>
        <pt x="512" y="332" on="1"/>
        <pt x="469" y="332" on="0"/>
        <pt x="381" y="317" on="0"/>
        <pt x="341" y="312" on="1"/>
        <pt x="318" y="259" on="0"/>
        <pt x="280" y="160" on="0"/>
        <pt x="253" y="78" on="0"/>
        <pt x="238" y="18" on="0"/>
        <pt x="237" y="3" on="1"/>
        <pt x="318" y="20" on="0"/>
        <pt x="483" y="44" on="0"/>
        <pt x="574" y="50" on="1"/>
        <pt x="585" y="33" on="0"/>
        <pt x="600" y="-7" on="0"/>
        <pt x="600" y="-30" on="1"/>
        <pt x="600" y="-36" on="0"/>
        <pt x="600" y="-50" on="0"/>
        <pt x="598" y="-57" on="1"/>
        <pt x="570" y="-56" on="0"/>
        <pt x="508" y="-55" on="0"/>
        <pt x="458" y="-55" on="1"/>
        <pt x="425" y="-55" on="0"/>
        <pt x="366" y="-58" on="0"/>
        <pt x="306" y="-64" on="0"/>
        <pt x="239" y="-74" on="0"/>
        <pt x="197" y="-81" on="1"/>
        <pt x="151" y="-63" on="0"/>
        <pt x="108" y="7" on="1"/>
        <pt x="125" y="43" on="0"/>
        <pt x="186" y="190" on="0"/>
        <pt x="233" y="313" on="1"/>
        <pt x="188" y="327" on="0"/>
        <pt x="174" y="363" on="1"/>
        <pt x="179" y="368" on="0"/>
        <pt x="227" y="383" on="0"/>
        <pt x="262" y="391" on="1"/>
        <pt x="277" y="430" on="0"/>
        <pt x="298" y="488" on="0"/>
        <pt x="314" y="539" on="0"/>
        <pt x="327" y="588" on="0"/>
        <pt x="333" y="617" on="1"/>
        <pt x="298" y="619" on="0"/>
        <pt x="258" y="654" on="0"/>
        <pt x="258" y="682" on="1"/>
        <pt x="258" y="690" on="0"/>
        <pt x="263" y="712" on="0"/>
        <pt x="266" y="720" on="1"/>
        <pt x="286" y="717" on="0"/>
        <pt x="323" y="715" on="0"/>
        <pt x="353" y="715" on="1"/>
        <pt x="416" y="715" on="0"/>
        <pt x="526" y="722" on="0"/>
        <pt x="615" y="730" on="0"/>
        <pt x="679" y="737" on="0"/>
        <pt x="696" y="737" on="1"/>
        <pt x="719" y="737" on="0"/>
        <pt x="755" y="689" on="0"/>
        <pt x="764" y="645" on="1"/>
        <pt x="733" y="648" on="0"/>
        <pt x="694" y="650" on="0"/>
        <pt x="679" y="650" on="1"/>
        <pt x="624" y="650" on="0"/>
        <pt x="533" y="639" on="0"/>
        <pt x="491" y="633" on="1"/>
        <pt x="485" y="624" on="0"/>
        <pt x="470" y="596" on="0"/>
        <pt x="446" y="546" on="0"/>
        <pt x="411" y="470" on="0"/>
        <pt x="386" y="413" on="1"/>
        <pt x="424" y="419" on="0"/>
        <pt x="491" y="426" on="0"/>
      </contour>
      <contour>
        <pt x="634" y="883" on="1"/>
        <pt x="655" y="877" on="0"/>
        <pt x="692" y="837" on="0"/>
        <pt x="692" y="819" on="1"/>
        <pt x="654" y="803" on="0"/>
        <pt x="597" y="782" on="0"/>
        <pt x="552" y="769" on="0"/>
        <pt x="518" y="764" on="0"/>
        <pt x="502" y="764" on="1"/>
        <pt x="470" y="764" on="0"/>
        <pt x="447" y="783" on="1"/>
        <pt x="492" y="793" on="0"/>
        <pt x="592" y="846" on="0"/>
      </contour>
    </TTGlyph>
    <TTGlyph name="Ebreve" xMin="108" yMin="-81" xMax="764" yMax="883">
      <contour>
        <pt x="514" y="426" on="1"/>
        <pt x="547" y="426" on="0"/>
        <pt x="584" y="390" on="0"/>
        <pt x="584" y="358" on="1"/>
        <pt x="584" y="350" on="0"/>
        <pt x="581" y="333" on="0"/>
        <pt x="579" y="327" on="1"/>
        <pt x="566" y="329" on="0"/>
        <pt x="534" y="332" on="0"/>
        <pt x="512" y="332" on="1"/>
        <pt x="469" y="332" on="0"/>
        <pt x="381" y="317" on="0"/>
        <pt x="341" y="312" on="1"/>
        <pt x="318" y="259" on="0"/>
        <pt x="280" y="160" on="0"/>
        <pt x="253" y="78" on="0"/>
        <pt x="238" y="18" on="0"/>
        <pt x="237" y="3" on="1"/>
        <pt x="318" y="20" on="0"/>
        <pt x="483" y="44" on="0"/>
        <pt x="574" y="50" on="1"/>
        <pt x="585" y="33" on="0"/>
        <pt x="600" y="-7" on="0"/>
        <pt x="600" y="-30" on="1"/>
        <pt x="600" y="-36" on="0"/>
        <pt x="600" y="-50" on="0"/>
        <pt x="598" y="-57" on="1"/>
        <pt x="570" y="-56" on="0"/>
        <pt x="508" y="-55" on="0"/>
        <pt x="458" y="-55" on="1"/>
        <pt x="425" y="-55" on="0"/>
        <pt x="366" y="-58" on="0"/>
        <pt x="306" y="-64" on="0"/>
        <pt x="239" y="-74" on="0"/>
        <pt x="197" y="-81" on="1"/>
        <pt x="151" y="-63" on="0"/>
        <pt x="108" y="7" on="1"/>
        <pt x="125" y="43" on="0"/>
        <pt x="186" y="190" on="0"/>
        <pt x="233" y="313" on="1"/>
        <pt x="188" y="327" on="0"/>
        <pt x="174" y="363" on="1"/>
        <pt x="179" y="368" on="0"/>
        <pt x="227" y="383" on="0"/>
        <pt x="262" y="391" on="1"/>
        <pt x="277" y="430" on="0"/>
        <pt x="298" y="488" on="0"/>
        <pt x="314" y="539" on="0"/>
        <pt x="327" y="588" on="0"/>
        <pt x="333" y="617" on="1"/>
        <pt x="298" y="619" on="0"/>
        <pt x="258" y="654" on="0"/>
        <pt x="258" y="682" on="1"/>
        <pt x="258" y="690" on="0"/>
        <pt x="263" y="712" on="0"/>
        <pt x="266" y="720" on="1"/>
        <pt x="286" y="717" on="0"/>
        <pt x="323" y="715" on="0"/>
        <pt x="353" y="715" on="1"/>
        <pt x="416" y="715" on="0"/>
        <pt x="526" y="722" on="0"/>
        <pt x="615" y="730" on="0"/>
        <pt x="679" y="737" on="0"/>
        <pt x="696" y="737" on="1"/>
        <pt x="719" y="737" on="0"/>
        <pt x="755" y="689" on="0"/>
        <pt x="764" y="645" on="1"/>
        <pt x="733" y="648" on="0"/>
        <pt x="694" y="650" on="0"/>
        <pt x="679" y="650" on="1"/>
        <pt x="624" y="650" on="0"/>
        <pt x="533" y="639" on="0"/>
        <pt x="491" y="633" on="1"/>
        <pt x="485" y="624" on="0"/>
        <pt x="470" y="596" on="0"/>
        <pt x="446" y="546" on="0"/>
        <pt x="411" y="470" on="0"/>
        <pt x="386" y="413" on="1"/>
        <pt x="424" y="419" on="0"/>
        <pt x="491" y="426" on="0"/>
      </contour>
      <contour>
        <pt x="559" y="764" on="1"/>
        <pt x="539" y="765" on="0"/>
        <pt x="495" y="776" on="0"/>
        <pt x="456" y="797" on="0"/>
        <pt x="425" y="829" on="0"/>
        <pt x="418" y="852" on="1"/>
        <pt x="431" y="866" on="0"/>
        <pt x="459" y="880" on="0"/>
        <pt x="487" y="883" on="1"/>
        <pt x="501" y="849" on="0"/>
        <pt x="554" y="821" on="0"/>
        <pt x="585" y="819" on="1"/>
        <pt x="623" y="825" on="0"/>
        <pt x="672" y="856" on="0"/>
        <pt x="689" y="880" on="1"/>
        <pt x="699" y="877" on="0"/>
        <pt x="705" y="861" on="1"/>
        <pt x="695" y="827" on="0"/>
        <pt x="617" y="775" on="0"/>
      </contour>
    </TTGlyph>
    <TTGlyph name="Ecaron" xMin="108" yMin="-81" xMax="764" yMax="883">
      <contour>
        <pt x="514" y="426" on="1"/>
        <pt x="547" y="426" on="0"/>
        <pt x="584" y="390" on="0"/>
        <pt x="584" y="358" on="1"/>
        <pt x="584" y="350" on="0"/>
        <pt x="581" y="333" on="0"/>
        <pt x="579" y="327" on="1"/>
        <pt x="566" y="329" on="0"/>
        <pt x="534" y="332" on="0"/>
        <pt x="512" y="332" on="1"/>
        <pt x="469" y="332" on="0"/>
        <pt x="381" y="317" on="0"/>
        <pt x="341" y="312" on="1"/>
        <pt x="318" y="259" on="0"/>
        <pt x="280" y="160" on="0"/>
        <pt x="253" y="78" on="0"/>
        <pt x="238" y="18" on="0"/>
        <pt x="237" y="3" on="1"/>
        <pt x="318" y="20" on="0"/>
        <pt x="483" y="44" on="0"/>
        <pt x="574" y="50" on="1"/>
        <pt x="585" y="33" on="0"/>
        <pt x="600" y="-7" on="0"/>
        <pt x="600" y="-30" on="1"/>
        <pt x="600" y="-36" on="0"/>
        <pt x="600" y="-50" on="0"/>
        <pt x="598" y="-57" on="1"/>
        <pt x="570" y="-56" on="0"/>
        <pt x="508" y="-55" on="0"/>
        <pt x="458" y="-55" on="1"/>
        <pt x="425" y="-55" on="0"/>
        <pt x="366" y="-58" on="0"/>
        <pt x="306" y="-64" on="0"/>
        <pt x="239" y="-74" on="0"/>
        <pt x="197" y="-81" on="1"/>
        <pt x="151" y="-63" on="0"/>
        <pt x="108" y="7" on="1"/>
        <pt x="125" y="43" on="0"/>
        <pt x="186" y="190" on="0"/>
        <pt x="233" y="313" on="1"/>
        <pt x="188" y="327" on="0"/>
        <pt x="174" y="363" on="1"/>
        <pt x="179" y="368" on="0"/>
        <pt x="227" y="383" on="0"/>
        <pt x="262" y="391" on="1"/>
        <pt x="277" y="430" on="0"/>
        <pt x="298" y="488" on="0"/>
        <pt x="314" y="539" on="0"/>
        <pt x="327" y="588" on="0"/>
        <pt x="333" y="617" on="1"/>
        <pt x="298" y="619" on="0"/>
        <pt x="258" y="654" on="0"/>
        <pt x="258" y="682" on="1"/>
        <pt x="258" y="690" on="0"/>
        <pt x="263" y="712" on="0"/>
        <pt x="266" y="720" on="1"/>
        <pt x="286" y="717" on="0"/>
        <pt x="323" y="715" on="0"/>
        <pt x="353" y="715" on="1"/>
        <pt x="416" y="715" on="0"/>
        <pt x="526" y="722" on="0"/>
        <pt x="615" y="730" on="0"/>
        <pt x="679" y="737" on="0"/>
        <pt x="696" y="737" on="1"/>
        <pt x="719" y="737" on="0"/>
        <pt x="755" y="689" on="0"/>
        <pt x="764" y="645" on="1"/>
        <pt x="733" y="648" on="0"/>
        <pt x="694" y="650" on="0"/>
        <pt x="679" y="650" on="1"/>
        <pt x="624" y="650" on="0"/>
        <pt x="533" y="639" on="0"/>
        <pt x="491" y="633" on="1"/>
        <pt x="485" y="624" on="0"/>
        <pt x="470" y="596" on="0"/>
        <pt x="446" y="546" on="0"/>
        <pt x="411" y="470" on="0"/>
        <pt x="386" y="413" on="1"/>
        <pt x="424" y="419" on="0"/>
        <pt x="491" y="426" on="0"/>
      </contour>
      <contour>
        <pt x="534" y="751" on="1"/>
        <pt x="519" y="759" on="0"/>
        <pt x="491" y="764" on="0"/>
        <pt x="481" y="764" on="1"/>
        <pt x="470" y="786" on="0"/>
        <pt x="454" y="818" on="0"/>
        <pt x="438" y="844" on="0"/>
        <pt x="418" y="867" on="0"/>
        <pt x="403" y="881" on="1"/>
        <pt x="411" y="883" on="0"/>
        <pt x="417" y="883" on="0"/>
        <pt x="420" y="883" on="1"/>
        <pt x="449" y="883" on="0"/>
        <pt x="494" y="848" on="0"/>
        <pt x="521" y="803" on="1"/>
        <pt x="551" y="835" on="0"/>
        <pt x="613" y="876" on="0"/>
        <pt x="635" y="883" on="1"/>
        <pt x="652" y="879" on="0"/>
        <pt x="684" y="838" on="1"/>
        <pt x="652" y="827" on="0"/>
        <pt x="575" y="790" on="0"/>
      </contour>
    </TTGlyph>
    <TTGlyph name="Ecircumflex" xMin="108" yMin="-81" xMax="764" yMax="883">
      <contour>
        <pt x="514" y="426" on="1"/>
        <pt x="547" y="426" on="0"/>
        <pt x="584" y="390" on="0"/>
        <pt x="584" y="358" on="1"/>
        <pt x="584" y="350" on="0"/>
        <pt x="581" y="333" on="0"/>
        <pt x="579" y="327" on="1"/>
        <pt x="566" y="329" on="0"/>
        <pt x="534" y="332" on="0"/>
        <pt x="512" y="332" on="1"/>
        <pt x="469" y="332" on="0"/>
        <pt x="381" y="317" on="0"/>
        <pt x="341" y="312" on="1"/>
        <pt x="318" y="259" on="0"/>
        <pt x="280" y="160" on="0"/>
        <pt x="253" y="78" on="0"/>
        <pt x="238" y="18" on="0"/>
        <pt x="237" y="3" on="1"/>
        <pt x="318" y="20" on="0"/>
        <pt x="483" y="44" on="0"/>
        <pt x="574" y="50" on="1"/>
        <pt x="585" y="33" on="0"/>
        <pt x="600" y="-7" on="0"/>
        <pt x="600" y="-30" on="1"/>
        <pt x="600" y="-36" on="0"/>
        <pt x="600" y="-50" on="0"/>
        <pt x="598" y="-57" on="1"/>
        <pt x="570" y="-56" on="0"/>
        <pt x="508" y="-55" on="0"/>
        <pt x="458" y="-55" on="1"/>
        <pt x="425" y="-55" on="0"/>
        <pt x="366" y="-58" on="0"/>
        <pt x="306" y="-64" on="0"/>
        <pt x="239" y="-74" on="0"/>
        <pt x="197" y="-81" on="1"/>
        <pt x="151" y="-63" on="0"/>
        <pt x="108" y="7" on="1"/>
        <pt x="125" y="43" on="0"/>
        <pt x="186" y="190" on="0"/>
        <pt x="233" y="313" on="1"/>
        <pt x="188" y="327" on="0"/>
        <pt x="174" y="363" on="1"/>
        <pt x="179" y="368" on="0"/>
        <pt x="227" y="383" on="0"/>
        <pt x="262" y="391" on="1"/>
        <pt x="277" y="430" on="0"/>
        <pt x="298" y="488" on="0"/>
        <pt x="314" y="539" on="0"/>
        <pt x="327" y="588" on="0"/>
        <pt x="333" y="617" on="1"/>
        <pt x="298" y="619" on="0"/>
        <pt x="258" y="654" on="0"/>
        <pt x="258" y="682" on="1"/>
        <pt x="258" y="690" on="0"/>
        <pt x="263" y="712" on="0"/>
        <pt x="266" y="720" on="1"/>
        <pt x="286" y="717" on="0"/>
        <pt x="323" y="715" on="0"/>
        <pt x="353" y="715" on="1"/>
        <pt x="416" y="715" on="0"/>
        <pt x="526" y="722" on="0"/>
        <pt x="615" y="730" on="0"/>
        <pt x="679" y="737" on="0"/>
        <pt x="696" y="737" on="1"/>
        <pt x="719" y="737" on="0"/>
        <pt x="755" y="689" on="0"/>
        <pt x="764" y="645" on="1"/>
        <pt x="733" y="648" on="0"/>
        <pt x="694" y="650" on="0"/>
        <pt x="679" y="650" on="1"/>
        <pt x="624" y="650" on="0"/>
        <pt x="533" y="639" on="0"/>
        <pt x="491" y="633" on="1"/>
        <pt x="485" y="624" on="0"/>
        <pt x="470" y="596" on="0"/>
        <pt x="446" y="546" on="0"/>
        <pt x="411" y="470" on="0"/>
        <pt x="386" y="413" on="1"/>
        <pt x="424" y="419" on="0"/>
        <pt x="491" y="426" on="0"/>
      </contour>
      <contour>
        <pt x="598" y="882" on="1"/>
        <pt x="605" y="826" on="0"/>
        <pt x="627" y="768" on="0"/>
        <pt x="650" y="754" on="1"/>
        <pt x="648" y="753" on="0"/>
        <pt x="641" y="753" on="1"/>
        <pt x="616" y="753" on="0"/>
        <pt x="563" y="784" on="0"/>
        <pt x="542" y="809" on="1"/>
        <pt x="515" y="789" on="0"/>
        <pt x="453" y="764" on="0"/>
        <pt x="430" y="764" on="1"/>
        <pt x="415" y="764" on="0"/>
        <pt x="388" y="773" on="0"/>
        <pt x="376" y="786" on="1"/>
        <pt x="452" y="805" on="0"/>
        <pt x="513" y="857" on="1"/>
        <pt x="511" y="861" on="0"/>
        <pt x="509" y="869" on="1"/>
        <pt x="529" y="883" on="0"/>
        <pt x="570" y="883" on="1"/>
        <pt x="582" y="883" on="0"/>
        <pt x="593" y="883" on="0"/>
      </contour>
    </TTGlyph>
    <TTGlyph name="Edieresis" xMin="108" yMin="-81" xMax="764" yMax="883">
      <contour>
        <pt x="514" y="426" on="1"/>
        <pt x="547" y="426" on="0"/>
        <pt x="584" y="390" on="0"/>
        <pt x="584" y="358" on="1"/>
        <pt x="584" y="350" on="0"/>
        <pt x="581" y="333" on="0"/>
        <pt x="579" y="327" on="1"/>
        <pt x="566" y="329" on="0"/>
        <pt x="534" y="332" on="0"/>
        <pt x="512" y="332" on="1"/>
        <pt x="469" y="332" on="0"/>
        <pt x="381" y="317" on="0"/>
        <pt x="341" y="312" on="1"/>
        <pt x="318" y="259" on="0"/>
        <pt x="280" y="160" on="0"/>
        <pt x="253" y="78" on="0"/>
        <pt x="238" y="18" on="0"/>
        <pt x="237" y="3" on="1"/>
        <pt x="318" y="20" on="0"/>
        <pt x="483" y="44" on="0"/>
        <pt x="574" y="50" on="1"/>
        <pt x="585" y="33" on="0"/>
        <pt x="600" y="-7" on="0"/>
        <pt x="600" y="-30" on="1"/>
        <pt x="600" y="-36" on="0"/>
        <pt x="600" y="-50" on="0"/>
        <pt x="598" y="-57" on="1"/>
        <pt x="570" y="-56" on="0"/>
        <pt x="508" y="-55" on="0"/>
        <pt x="458" y="-55" on="1"/>
        <pt x="425" y="-55" on="0"/>
        <pt x="366" y="-58" on="0"/>
        <pt x="306" y="-64" on="0"/>
        <pt x="239" y="-74" on="0"/>
        <pt x="197" y="-81" on="1"/>
        <pt x="151" y="-63" on="0"/>
        <pt x="108" y="7" on="1"/>
        <pt x="125" y="43" on="0"/>
        <pt x="186" y="190" on="0"/>
        <pt x="233" y="313" on="1"/>
        <pt x="188" y="327" on="0"/>
        <pt x="174" y="363" on="1"/>
        <pt x="179" y="368" on="0"/>
        <pt x="227" y="383" on="0"/>
        <pt x="262" y="391" on="1"/>
        <pt x="277" y="430" on="0"/>
        <pt x="298" y="488" on="0"/>
        <pt x="314" y="539" on="0"/>
        <pt x="327" y="588" on="0"/>
        <pt x="333" y="617" on="1"/>
        <pt x="298" y="619" on="0"/>
        <pt x="258" y="654" on="0"/>
        <pt x="258" y="682" on="1"/>
        <pt x="258" y="690" on="0"/>
        <pt x="263" y="712" on="0"/>
        <pt x="266" y="720" on="1"/>
        <pt x="286" y="717" on="0"/>
        <pt x="323" y="715" on="0"/>
        <pt x="353" y="715" on="1"/>
        <pt x="416" y="715" on="0"/>
        <pt x="526" y="722" on="0"/>
        <pt x="615" y="730" on="0"/>
        <pt x="679" y="737" on="0"/>
        <pt x="696" y="737" on="1"/>
        <pt x="719" y="737" on="0"/>
        <pt x="755" y="689" on="0"/>
        <pt x="764" y="645" on="1"/>
        <pt x="733" y="648" on="0"/>
        <pt x="694" y="650" on="0"/>
        <pt x="679" y="650" on="1"/>
        <pt x="624" y="650" on="0"/>
        <pt x="533" y="639" on="0"/>
        <pt x="491" y="633" on="1"/>
        <pt x="485" y="624" on="0"/>
        <pt x="470" y="596" on="0"/>
        <pt x="446" y="546" on="0"/>
        <pt x="411" y="470" on="0"/>
        <pt x="386" y="413" on="1"/>
        <pt x="424" y="419" on="0"/>
        <pt x="491" y="426" on="0"/>
      </contour>
      <contour>
        <pt x="446" y="788" on="1"/>
        <pt x="446" y="803" on="0"/>
        <pt x="450" y="836" on="0"/>
        <pt x="462" y="863" on="0"/>
        <pt x="485" y="882" on="0"/>
        <pt x="504" y="883" on="1"/>
        <pt x="517" y="881" on="0"/>
        <pt x="562" y="856" on="0"/>
        <pt x="572" y="839" on="1"/>
        <pt x="572" y="839" on="0"/>
        <pt x="555" y="817" on="0"/>
        <pt x="532" y="791" on="0"/>
        <pt x="511" y="767" on="0"/>
        <pt x="507" y="764" on="1"/>
        <pt x="482" y="769" on="0"/>
        <pt x="451" y="779" on="0"/>
      </contour>
      <contour>
        <pt x="577" y="788" on="1"/>
        <pt x="577" y="804" on="0"/>
        <pt x="581" y="837" on="0"/>
        <pt x="593" y="864" on="0"/>
        <pt x="615" y="882" on="0"/>
        <pt x="633" y="883" on="1"/>
        <pt x="639" y="883" on="0"/>
        <pt x="658" y="875" on="0"/>
        <pt x="678" y="863" on="0"/>
        <pt x="696" y="847" on="0"/>
        <pt x="702" y="839" on="1"/>
        <pt x="702" y="838" on="0"/>
        <pt x="685" y="816" on="0"/>
        <pt x="663" y="789" on="0"/>
        <pt x="641" y="765" on="0"/>
        <pt x="635" y="763" on="1"/>
        <pt x="612" y="766" on="0"/>
        <pt x="583" y="780" on="0"/>
      </contour>
    </TTGlyph>
    <TTGlyph name="Edotaccent" xMin="108" yMin="-81" xMax="764" yMax="883">
      <contour>
        <pt x="514" y="426" on="1"/>
        <pt x="547" y="426" on="0"/>
        <pt x="584" y="390" on="0"/>
        <pt x="584" y="358" on="1"/>
        <pt x="584" y="350" on="0"/>
        <pt x="581" y="333" on="0"/>
        <pt x="579" y="327" on="1"/>
        <pt x="566" y="329" on="0"/>
        <pt x="534" y="332" on="0"/>
        <pt x="512" y="332" on="1"/>
        <pt x="469" y="332" on="0"/>
        <pt x="381" y="317" on="0"/>
        <pt x="341" y="312" on="1"/>
        <pt x="318" y="259" on="0"/>
        <pt x="280" y="160" on="0"/>
        <pt x="253" y="78" on="0"/>
        <pt x="238" y="18" on="0"/>
        <pt x="237" y="3" on="1"/>
        <pt x="318" y="20" on="0"/>
        <pt x="483" y="44" on="0"/>
        <pt x="574" y="50" on="1"/>
        <pt x="585" y="33" on="0"/>
        <pt x="600" y="-7" on="0"/>
        <pt x="600" y="-30" on="1"/>
        <pt x="600" y="-36" on="0"/>
        <pt x="600" y="-50" on="0"/>
        <pt x="598" y="-57" on="1"/>
        <pt x="570" y="-56" on="0"/>
        <pt x="508" y="-55" on="0"/>
        <pt x="458" y="-55" on="1"/>
        <pt x="425" y="-55" on="0"/>
        <pt x="366" y="-58" on="0"/>
        <pt x="306" y="-64" on="0"/>
        <pt x="239" y="-74" on="0"/>
        <pt x="197" y="-81" on="1"/>
        <pt x="151" y="-63" on="0"/>
        <pt x="108" y="7" on="1"/>
        <pt x="125" y="43" on="0"/>
        <pt x="186" y="190" on="0"/>
        <pt x="233" y="313" on="1"/>
        <pt x="188" y="327" on="0"/>
        <pt x="174" y="363" on="1"/>
        <pt x="179" y="368" on="0"/>
        <pt x="227" y="383" on="0"/>
        <pt x="262" y="391" on="1"/>
        <pt x="277" y="430" on="0"/>
        <pt x="298" y="488" on="0"/>
        <pt x="314" y="539" on="0"/>
        <pt x="327" y="588" on="0"/>
        <pt x="333" y="617" on="1"/>
        <pt x="298" y="619" on="0"/>
        <pt x="258" y="654" on="0"/>
        <pt x="258" y="682" on="1"/>
        <pt x="258" y="690" on="0"/>
        <pt x="263" y="712" on="0"/>
        <pt x="266" y="720" on="1"/>
        <pt x="286" y="717" on="0"/>
        <pt x="323" y="715" on="0"/>
        <pt x="353" y="715" on="1"/>
        <pt x="416" y="715" on="0"/>
        <pt x="526" y="722" on="0"/>
        <pt x="615" y="730" on="0"/>
        <pt x="679" y="737" on="0"/>
        <pt x="696" y="737" on="1"/>
        <pt x="719" y="737" on="0"/>
        <pt x="755" y="689" on="0"/>
        <pt x="764" y="645" on="1"/>
        <pt x="733" y="648" on="0"/>
        <pt x="694" y="650" on="0"/>
        <pt x="679" y="650" on="1"/>
        <pt x="624" y="650" on="0"/>
        <pt x="533" y="639" on="0"/>
        <pt x="491" y="633" on="1"/>
        <pt x="485" y="624" on="0"/>
        <pt x="470" y="596" on="0"/>
        <pt x="446" y="546" on="0"/>
        <pt x="411" y="470" on="0"/>
        <pt x="386" y="413" on="1"/>
        <pt x="424" y="419" on="0"/>
        <pt x="491" y="426" on="0"/>
      </contour>
      <contour>
        <pt x="509" y="791" on="1"/>
        <pt x="509" y="797" on="0"/>
        <pt x="512" y="809" on="1"/>
        <pt x="497" y="824" on="0"/>
        <pt x="497" y="849" on="1"/>
        <pt x="497" y="865" on="0"/>
        <pt x="502" y="883" on="1"/>
        <pt x="514" y="883" on="0"/>
        <pt x="548" y="879" on="0"/>
        <pt x="582" y="873" on="0"/>
        <pt x="612" y="864" on="0"/>
        <pt x="620" y="860" on="1"/>
        <pt x="612" y="855" on="0"/>
        <pt x="589" y="829" on="0"/>
        <pt x="566" y="799" on="0"/>
        <pt x="547" y="771" on="0"/>
        <pt x="544" y="764" on="1"/>
        <pt x="531" y="766" on="0"/>
        <pt x="509" y="783" on="0"/>
      </contour>
    </TTGlyph>
    <TTGlyph name="Egrave" xMin="108" yMin="-81" xMax="764" yMax="883">
      <contour>
        <pt x="514" y="426" on="1"/>
        <pt x="547" y="426" on="0"/>
        <pt x="584" y="390" on="0"/>
        <pt x="584" y="358" on="1"/>
        <pt x="584" y="350" on="0"/>
        <pt x="581" y="333" on="0"/>
        <pt x="579" y="327" on="1"/>
        <pt x="566" y="329" on="0"/>
        <pt x="534" y="332" on="0"/>
        <pt x="512" y="332" on="1"/>
        <pt x="469" y="332" on="0"/>
        <pt x="381" y="317" on="0"/>
        <pt x="341" y="312" on="1"/>
        <pt x="318" y="259" on="0"/>
        <pt x="280" y="160" on="0"/>
        <pt x="253" y="78" on="0"/>
        <pt x="238" y="18" on="0"/>
        <pt x="237" y="3" on="1"/>
        <pt x="318" y="20" on="0"/>
        <pt x="483" y="44" on="0"/>
        <pt x="574" y="50" on="1"/>
        <pt x="585" y="33" on="0"/>
        <pt x="600" y="-7" on="0"/>
        <pt x="600" y="-30" on="1"/>
        <pt x="600" y="-36" on="0"/>
        <pt x="600" y="-50" on="0"/>
        <pt x="598" y="-57" on="1"/>
        <pt x="570" y="-56" on="0"/>
        <pt x="508" y="-55" on="0"/>
        <pt x="458" y="-55" on="1"/>
        <pt x="425" y="-55" on="0"/>
        <pt x="366" y="-58" on="0"/>
        <pt x="306" y="-64" on="0"/>
        <pt x="239" y="-74" on="0"/>
        <pt x="197" y="-81" on="1"/>
        <pt x="151" y="-63" on="0"/>
        <pt x="108" y="7" on="1"/>
        <pt x="125" y="43" on="0"/>
        <pt x="186" y="190" on="0"/>
        <pt x="233" y="313" on="1"/>
        <pt x="188" y="327" on="0"/>
        <pt x="174" y="363" on="1"/>
        <pt x="179" y="368" on="0"/>
        <pt x="227" y="383" on="0"/>
        <pt x="262" y="391" on="1"/>
        <pt x="277" y="430" on="0"/>
        <pt x="298" y="488" on="0"/>
        <pt x="314" y="539" on="0"/>
        <pt x="327" y="588" on="0"/>
        <pt x="333" y="617" on="1"/>
        <pt x="298" y="619" on="0"/>
        <pt x="258" y="654" on="0"/>
        <pt x="258" y="682" on="1"/>
        <pt x="258" y="690" on="0"/>
        <pt x="263" y="712" on="0"/>
        <pt x="266" y="720" on="1"/>
        <pt x="286" y="717" on="0"/>
        <pt x="323" y="715" on="0"/>
        <pt x="353" y="715" on="1"/>
        <pt x="416" y="715" on="0"/>
        <pt x="526" y="722" on="0"/>
        <pt x="615" y="730" on="0"/>
        <pt x="679" y="737" on="0"/>
        <pt x="696" y="737" on="1"/>
        <pt x="719" y="737" on="0"/>
        <pt x="755" y="689" on="0"/>
        <pt x="764" y="645" on="1"/>
        <pt x="733" y="648" on="0"/>
        <pt x="694" y="650" on="0"/>
        <pt x="679" y="650" on="1"/>
        <pt x="624" y="650" on="0"/>
        <pt x="533" y="639" on="0"/>
        <pt x="491" y="633" on="1"/>
        <pt x="485" y="624" on="0"/>
        <pt x="470" y="596" on="0"/>
        <pt x="446" y="546" on="0"/>
        <pt x="411" y="470" on="0"/>
        <pt x="386" y="413" on="1"/>
        <pt x="424" y="419" on="0"/>
        <pt x="491" y="426" on="0"/>
      </contour>
      <contour>
        <pt x="454" y="883" on="1"/>
        <pt x="496" y="846" on="0"/>
        <pt x="596" y="793" on="0"/>
        <pt x="641" y="783" on="1"/>
        <pt x="618" y="764" on="0"/>
        <pt x="586" y="764" on="1"/>
        <pt x="570" y="764" on="0"/>
        <pt x="536" y="769" on="0"/>
        <pt x="491" y="782" on="0"/>
        <pt x="434" y="803" on="0"/>
        <pt x="396" y="819" on="1"/>
        <pt x="396" y="828" on="0"/>
        <pt x="406" y="848" on="0"/>
        <pt x="423" y="866" on="0"/>
        <pt x="443" y="880" on="0"/>
      </contour>
    </TTGlyph>
    <TTGlyph name="Emacron" xMin="108" yMin="-81" xMax="764" yMax="883">
      <contour>
        <pt x="514" y="426" on="1"/>
        <pt x="547" y="426" on="0"/>
        <pt x="584" y="390" on="0"/>
        <pt x="584" y="358" on="1"/>
        <pt x="584" y="350" on="0"/>
        <pt x="581" y="333" on="0"/>
        <pt x="579" y="327" on="1"/>
        <pt x="566" y="329" on="0"/>
        <pt x="534" y="332" on="0"/>
        <pt x="512" y="332" on="1"/>
        <pt x="469" y="332" on="0"/>
        <pt x="381" y="317" on="0"/>
        <pt x="341" y="312" on="1"/>
        <pt x="318" y="259" on="0"/>
        <pt x="280" y="160" on="0"/>
        <pt x="253" y="78" on="0"/>
        <pt x="238" y="18" on="0"/>
        <pt x="237" y="3" on="1"/>
        <pt x="318" y="20" on="0"/>
        <pt x="483" y="44" on="0"/>
        <pt x="574" y="50" on="1"/>
        <pt x="585" y="33" on="0"/>
        <pt x="600" y="-7" on="0"/>
        <pt x="600" y="-30" on="1"/>
        <pt x="600" y="-36" on="0"/>
        <pt x="600" y="-50" on="0"/>
        <pt x="598" y="-57" on="1"/>
        <pt x="570" y="-56" on="0"/>
        <pt x="508" y="-55" on="0"/>
        <pt x="458" y="-55" on="1"/>
        <pt x="425" y="-55" on="0"/>
        <pt x="366" y="-58" on="0"/>
        <pt x="306" y="-64" on="0"/>
        <pt x="239" y="-74" on="0"/>
        <pt x="197" y="-81" on="1"/>
        <pt x="151" y="-63" on="0"/>
        <pt x="108" y="7" on="1"/>
        <pt x="125" y="43" on="0"/>
        <pt x="186" y="190" on="0"/>
        <pt x="233" y="313" on="1"/>
        <pt x="188" y="327" on="0"/>
        <pt x="174" y="363" on="1"/>
        <pt x="179" y="368" on="0"/>
        <pt x="227" y="383" on="0"/>
        <pt x="262" y="391" on="1"/>
        <pt x="277" y="430" on="0"/>
        <pt x="298" y="488" on="0"/>
        <pt x="314" y="539" on="0"/>
        <pt x="327" y="588" on="0"/>
        <pt x="333" y="617" on="1"/>
        <pt x="298" y="619" on="0"/>
        <pt x="258" y="654" on="0"/>
        <pt x="258" y="682" on="1"/>
        <pt x="258" y="690" on="0"/>
        <pt x="263" y="712" on="0"/>
        <pt x="266" y="720" on="1"/>
        <pt x="286" y="717" on="0"/>
        <pt x="323" y="715" on="0"/>
        <pt x="353" y="715" on="1"/>
        <pt x="416" y="715" on="0"/>
        <pt x="526" y="722" on="0"/>
        <pt x="615" y="730" on="0"/>
        <pt x="679" y="737" on="0"/>
        <pt x="696" y="737" on="1"/>
        <pt x="719" y="737" on="0"/>
        <pt x="755" y="689" on="0"/>
        <pt x="764" y="645" on="1"/>
        <pt x="733" y="648" on="0"/>
        <pt x="694" y="650" on="0"/>
        <pt x="679" y="650" on="1"/>
        <pt x="624" y="650" on="0"/>
        <pt x="533" y="639" on="0"/>
        <pt x="491" y="633" on="1"/>
        <pt x="485" y="624" on="0"/>
        <pt x="470" y="596" on="0"/>
        <pt x="446" y="546" on="0"/>
        <pt x="411" y="470" on="0"/>
        <pt x="386" y="413" on="1"/>
        <pt x="424" y="419" on="0"/>
        <pt x="491" y="426" on="0"/>
      </contour>
      <contour>
        <pt x="385" y="866" on="1"/>
        <pt x="430" y="863" on="0"/>
        <pt x="476" y="863" on="1"/>
        <pt x="582" y="863" on="0"/>
        <pt x="671" y="883" on="1"/>
        <pt x="678" y="872" on="0"/>
        <pt x="689" y="825" on="0"/>
        <pt x="689" y="806" on="1"/>
        <pt x="652" y="799" on="0"/>
        <pt x="574" y="797" on="0"/>
        <pt x="535" y="797" on="1"/>
        <pt x="442" y="797" on="0"/>
        <pt x="383" y="810" on="1"/>
        <pt x="384" y="818" on="0"/>
        <pt x="385" y="843" on="0"/>
      </contour>
    </TTGlyph>
    <TTGlyph name="Eng" xMin="93" yMin="-362" xMax="851" yMax="736">
      <contour>
        <pt x="190" y="-76" on="1"/>
        <pt x="161" y="-67" on="0"/>
        <pt x="124" y="-52" on="0"/>
        <pt x="102" y="-35" on="0"/>
        <pt x="93" y="-13" on="0"/>
        <pt x="93" y="2" on="1"/>
        <pt x="93" y="31" on="0"/>
        <pt x="121" y="139" on="0"/>
        <pt x="166" y="272" on="0"/>
        <pt x="224" y="418" on="0"/>
        <pt x="284" y="552" on="0"/>
        <pt x="341" y="663" on="0"/>
        <pt x="363" y="694" on="1"/>
        <pt x="356" y="736" on="1"/>
        <pt x="370" y="736" on="0"/>
        <pt x="420" y="722" on="0"/>
        <pt x="471" y="702" on="0"/>
        <pt x="510" y="681" on="0"/>
        <pt x="512" y="674" on="1"/>
        <pt x="507" y="650" on="0"/>
        <pt x="501" y="555" on="0"/>
        <pt x="501" y="484" on="1"/>
        <pt x="501" y="349" on="0"/>
        <pt x="520" y="203" on="0"/>
        <pt x="523" y="186" on="1"/>
        <pt x="526" y="169" on="0"/>
        <pt x="531" y="145" on="0"/>
        <pt x="536" y="121" on="0"/>
        <pt x="543" y="93" on="0"/>
        <pt x="549" y="72" on="1"/>
        <pt x="565" y="152" on="0"/>
        <pt x="602" y="311" on="0"/>
        <pt x="642" y="456" on="0"/>
        <pt x="682" y="580" on="0"/>
        <pt x="719" y="673" on="0"/>
        <pt x="751" y="726" on="0"/>
        <pt x="764" y="728" on="1"/>
        <pt x="775" y="726" on="0"/>
        <pt x="801" y="713" on="0"/>
        <pt x="825" y="695" on="0"/>
        <pt x="845" y="673" on="0"/>
        <pt x="851" y="662" on="1"/>
        <pt x="819" y="649" on="0"/>
        <pt x="759" y="554" on="0"/>
        <pt x="705" y="419" on="0"/>
        <pt x="658" y="260" on="0"/>
        <pt x="620" y="107" on="0"/>
        <pt x="592" y="-26" on="0"/>
        <pt x="584" y="-66" on="1"/>
        <pt x="573" y="-121" on="0"/>
        <pt x="532" y="-227" on="0"/>
        <pt x="477" y="-311" on="0"/>
        <pt x="409" y="-362" on="0"/>
        <pt x="371" y="-362" on="1"/>
        <pt x="359" y="-362" on="0"/>
        <pt x="321" y="-356" on="0"/>
        <pt x="282" y="-342" on="0"/>
        <pt x="245" y="-320" on="0"/>
        <pt x="234" y="-304" on="1"/>
        <pt x="235" y="-298" on="0"/>
        <pt x="244" y="-287" on="0"/>
        <pt x="252" y="-285" on="1"/>
        <pt x="260" y="-292" on="0"/>
        <pt x="284" y="-305" on="0"/>
        <pt x="310" y="-315" on="0"/>
        <pt x="333" y="-321" on="0"/>
        <pt x="341" y="-321" on="1"/>
        <pt x="366" y="-313" on="0"/>
        <pt x="409" y="-267" on="0"/>
        <pt x="440" y="-203" on="0"/>
        <pt x="457" y="-127" on="0"/>
        <pt x="457" y="-89" on="1"/>
        <pt x="457" y="-73" on="0"/>
        <pt x="454" y="-47" on="0"/>
        <pt x="451" y="-31" on="1"/>
        <pt x="438" y="41" on="0"/>
        <pt x="417" y="151" on="0"/>
        <pt x="402" y="245" on="0"/>
        <pt x="390" y="332" on="0"/>
        <pt x="381" y="426" on="0"/>
        <pt x="373" y="538" on="0"/>
        <pt x="369" y="611" on="1"/>
        <pt x="350" y="582" on="0"/>
        <pt x="309" y="487" on="0"/>
        <pt x="269" y="371" on="0"/>
        <pt x="232" y="244" on="0"/>
        <pt x="204" y="120" on="0"/>
        <pt x="187" y="6" on="0"/>
        <pt x="187" y="-37" on="1"/>
        <pt x="187" y="-50" on="0"/>
        <pt x="188" y="-71" on="0"/>
      </contour>
    </TTGlyph>
    <TTGlyph name="Eogonek" xMin="108" yMin="-290" xMax="764" yMax="737">
      <contour>
        <pt x="273" y="-193" on="1"/>
        <pt x="273" y="-155" on="0"/>
        <pt x="319" y="-82" on="0"/>
        <pt x="354" y="-59" on="1"/>
        <pt x="320" y="-62" on="0"/>
        <pt x="246" y="-72" on="0"/>
        <pt x="197" y="-81" on="1"/>
        <pt x="151" y="-63" on="0"/>
        <pt x="108" y="7" on="1"/>
        <pt x="125" y="43" on="0"/>
        <pt x="186" y="190" on="0"/>
        <pt x="233" y="313" on="1"/>
        <pt x="188" y="327" on="0"/>
        <pt x="174" y="363" on="1"/>
        <pt x="179" y="368" on="0"/>
        <pt x="227" y="383" on="0"/>
        <pt x="262" y="391" on="1"/>
        <pt x="277" y="430" on="0"/>
        <pt x="298" y="488" on="0"/>
        <pt x="314" y="539" on="0"/>
        <pt x="327" y="588" on="0"/>
        <pt x="333" y="617" on="1"/>
        <pt x="298" y="619" on="0"/>
        <pt x="258" y="654" on="0"/>
        <pt x="258" y="682" on="1"/>
        <pt x="258" y="690" on="0"/>
        <pt x="263" y="712" on="0"/>
        <pt x="266" y="720" on="1"/>
        <pt x="286" y="717" on="0"/>
        <pt x="323" y="715" on="0"/>
        <pt x="353" y="715" on="1"/>
        <pt x="416" y="715" on="0"/>
        <pt x="526" y="722" on="0"/>
        <pt x="615" y="730" on="0"/>
        <pt x="679" y="737" on="0"/>
        <pt x="696" y="737" on="1"/>
        <pt x="719" y="737" on="0"/>
        <pt x="755" y="689" on="0"/>
        <pt x="764" y="645" on="1"/>
        <pt x="733" y="648" on="0"/>
        <pt x="694" y="650" on="0"/>
        <pt x="679" y="650" on="1"/>
        <pt x="624" y="650" on="0"/>
        <pt x="533" y="639" on="0"/>
        <pt x="491" y="633" on="1"/>
        <pt x="485" y="624" on="0"/>
        <pt x="470" y="596" on="0"/>
        <pt x="446" y="546" on="0"/>
        <pt x="411" y="470" on="0"/>
        <pt x="386" y="413" on="1"/>
        <pt x="424" y="419" on="0"/>
        <pt x="491" y="426" on="0"/>
        <pt x="514" y="426" on="1"/>
        <pt x="547" y="426" on="0"/>
        <pt x="584" y="390" on="0"/>
        <pt x="584" y="358" on="1"/>
        <pt x="584" y="350" on="0"/>
        <pt x="581" y="333" on="0"/>
        <pt x="579" y="327" on="1"/>
        <pt x="566" y="329" on="0"/>
        <pt x="534" y="332" on="0"/>
        <pt x="512" y="332" on="1"/>
        <pt x="469" y="332" on="0"/>
        <pt x="381" y="317" on="0"/>
        <pt x="341" y="312" on="1"/>
        <pt x="318" y="259" on="0"/>
        <pt x="280" y="160" on="0"/>
        <pt x="253" y="78" on="0"/>
        <pt x="238" y="18" on="0"/>
        <pt x="237" y="3" on="1"/>
        <pt x="318" y="20" on="0"/>
        <pt x="483" y="44" on="0"/>
        <pt x="574" y="50" on="1"/>
        <pt x="585" y="33" on="0"/>
        <pt x="600" y="-7" on="0"/>
        <pt x="600" y="-30" on="1"/>
        <pt x="600" y="-36" on="0"/>
        <pt x="600" y="-50" on="0"/>
        <pt x="598" y="-57" on="1"/>
        <pt x="570" y="-56" on="0"/>
        <pt x="508" y="-55" on="0"/>
        <pt x="458" y="-55" on="1"/>
        <pt x="436" y="-58" on="0"/>
        <pt x="393" y="-83" on="0"/>
        <pt x="360" y="-123" on="0"/>
        <pt x="339" y="-175" on="0"/>
        <pt x="339" y="-205" on="1"/>
        <pt x="339" y="-231" on="0"/>
        <pt x="361" y="-252" on="0"/>
        <pt x="378" y="-252" on="1"/>
        <pt x="391" y="-252" on="0"/>
        <pt x="421" y="-242" on="0"/>
        <pt x="450" y="-228" on="0"/>
        <pt x="476" y="-212" on="0"/>
        <pt x="485" y="-206" on="1"/>
        <pt x="491" y="-218" on="1"/>
        <pt x="481" y="-230" on="0"/>
        <pt x="451" y="-255" on="0"/>
        <pt x="418" y="-275" on="0"/>
        <pt x="388" y="-289" on="0"/>
        <pt x="378" y="-290" on="1"/>
        <pt x="358" y="-289" on="0"/>
        <pt x="320" y="-274" on="0"/>
        <pt x="291" y="-249" on="0"/>
        <pt x="273" y="-215" on="0"/>
      </contour>
    </TTGlyph>
    <TTGlyph name="Eth" xMin="156" yMin="-76" xMax="842" yMax="738">
      <contour>
        <pt x="168" y="52" on="1"/>
        <pt x="185" y="90" on="0"/>
        <pt x="233" y="209" on="0"/>
        <pt x="259" y="278" on="1"/>
        <pt x="233" y="280" on="0"/>
        <pt x="187" y="285" on="0"/>
        <pt x="167" y="289" on="1"/>
        <pt x="169" y="299" on="0"/>
        <pt x="170" y="327" on="0"/>
        <pt x="170" y="355" on="1"/>
        <pt x="197" y="353" on="0"/>
        <pt x="253" y="352" on="0"/>
        <pt x="287" y="352" on="1"/>
        <pt x="306" y="401" on="0"/>
        <pt x="341" y="498" on="0"/>
        <pt x="371" y="581" on="0"/>
        <pt x="393" y="646" on="0"/>
        <pt x="399" y="665" on="1"/>
        <pt x="336" y="639" on="0"/>
        <pt x="246" y="533" on="0"/>
        <pt x="223" y="453" on="1"/>
        <pt x="200" y="461" on="0"/>
        <pt x="162" y="502" on="0"/>
        <pt x="156" y="533" on="1"/>
        <pt x="166" y="579" on="0"/>
        <pt x="221" y="655" on="0"/>
        <pt x="305" y="709" on="0"/>
        <pt x="415" y="738" on="0"/>
        <pt x="478" y="738" on="1"/>
        <pt x="558" y="738" on="0"/>
        <pt x="692" y="691" on="0"/>
        <pt x="788" y="607" on="0"/>
        <pt x="842" y="489" on="0"/>
        <pt x="842" y="417" on="1"/>
        <pt x="842" y="319" on="0"/>
        <pt x="770" y="141" on="0"/>
        <pt x="647" y="5" on="0"/>
        <pt x="485" y="-76" on="0"/>
        <pt x="396" y="-76" on="1"/>
        <pt x="314" y="-76" on="0"/>
        <pt x="197" y="-11" on="0"/>
      </contour>
      <contour>
        <pt x="521" y="688" on="1"/>
        <pt x="471" y="688" on="0"/>
        <pt x="426" y="674" on="1"/>
        <pt x="470" y="658" on="0"/>
        <pt x="528" y="623" on="0"/>
        <pt x="539" y="613" on="1"/>
        <pt x="532" y="603" on="0"/>
        <pt x="505" y="554" on="0"/>
        <pt x="469" y="486" on="0"/>
        <pt x="428" y="402" on="0"/>
        <pt x="407" y="357" on="1"/>
        <pt x="461" y="363" on="0"/>
        <pt x="513" y="372" on="1"/>
        <pt x="521" y="359" on="0"/>
        <pt x="535" y="306" on="0"/>
        <pt x="535" y="285" on="1"/>
        <pt x="455" y="276" on="0"/>
        <pt x="371" y="276" on="1"/>
        <pt x="324" y="170" on="0"/>
        <pt x="283" y="46" on="0"/>
        <pt x="283" y="20" on="1"/>
        <pt x="297" y="15" on="0"/>
        <pt x="337" y="11" on="0"/>
        <pt x="360" y="11" on="1"/>
        <pt x="441" y="11" on="0"/>
        <pt x="586" y="86" on="0"/>
        <pt x="695" y="212" on="0"/>
        <pt x="758" y="379" on="0"/>
        <pt x="758" y="471" on="1"/>
        <pt x="758" y="574" on="0"/>
        <pt x="630" y="688" on="0"/>
      </contour>
    </TTGlyph>
    <TTGlyph name="Etilde" xMin="108" yMin="-81" xMax="764" yMax="883">
      <contour>
        <pt x="514" y="426" on="1"/>
        <pt x="547" y="426" on="0"/>
        <pt x="584" y="390" on="0"/>
        <pt x="584" y="358" on="1"/>
        <pt x="584" y="350" on="0"/>
        <pt x="581" y="333" on="0"/>
        <pt x="579" y="327" on="1"/>
        <pt x="566" y="329" on="0"/>
        <pt x="534" y="332" on="0"/>
        <pt x="512" y="332" on="1"/>
        <pt x="469" y="332" on="0"/>
        <pt x="381" y="317" on="0"/>
        <pt x="341" y="312" on="1"/>
        <pt x="318" y="259" on="0"/>
        <pt x="280" y="160" on="0"/>
        <pt x="253" y="78" on="0"/>
        <pt x="238" y="18" on="0"/>
        <pt x="237" y="3" on="1"/>
        <pt x="318" y="20" on="0"/>
        <pt x="483" y="44" on="0"/>
        <pt x="574" y="50" on="1"/>
        <pt x="585" y="33" on="0"/>
        <pt x="600" y="-7" on="0"/>
        <pt x="600" y="-30" on="1"/>
        <pt x="600" y="-36" on="0"/>
        <pt x="600" y="-50" on="0"/>
        <pt x="598" y="-57" on="1"/>
        <pt x="570" y="-56" on="0"/>
        <pt x="508" y="-55" on="0"/>
        <pt x="458" y="-55" on="1"/>
        <pt x="425" y="-55" on="0"/>
        <pt x="366" y="-58" on="0"/>
        <pt x="306" y="-64" on="0"/>
        <pt x="239" y="-74" on="0"/>
        <pt x="197" y="-81" on="1"/>
        <pt x="151" y="-63" on="0"/>
        <pt x="108" y="7" on="1"/>
        <pt x="125" y="43" on="0"/>
        <pt x="186" y="190" on="0"/>
        <pt x="233" y="313" on="1"/>
        <pt x="188" y="327" on="0"/>
        <pt x="174" y="363" on="1"/>
        <pt x="179" y="368" on="0"/>
        <pt x="227" y="383" on="0"/>
        <pt x="262" y="391" on="1"/>
        <pt x="277" y="430" on="0"/>
        <pt x="298" y="488" on="0"/>
        <pt x="314" y="539" on="0"/>
        <pt x="327" y="588" on="0"/>
        <pt x="333" y="617" on="1"/>
        <pt x="298" y="619" on="0"/>
        <pt x="258" y="654" on="0"/>
        <pt x="258" y="682" on="1"/>
        <pt x="258" y="690" on="0"/>
        <pt x="263" y="712" on="0"/>
        <pt x="266" y="720" on="1"/>
        <pt x="286" y="717" on="0"/>
        <pt x="323" y="715" on="0"/>
        <pt x="353" y="715" on="1"/>
        <pt x="416" y="715" on="0"/>
        <pt x="526" y="722" on="0"/>
        <pt x="615" y="730" on="0"/>
        <pt x="679" y="737" on="0"/>
        <pt x="696" y="737" on="1"/>
        <pt x="719" y="737" on="0"/>
        <pt x="755" y="689" on="0"/>
        <pt x="764" y="645" on="1"/>
        <pt x="733" y="648" on="0"/>
        <pt x="694" y="650" on="0"/>
        <pt x="679" y="650" on="1"/>
        <pt x="624" y="650" on="0"/>
        <pt x="533" y="639" on="0"/>
        <pt x="491" y="633" on="1"/>
        <pt x="485" y="624" on="0"/>
        <pt x="470" y="596" on="0"/>
        <pt x="446" y="546" on="0"/>
        <pt x="411" y="470" on="0"/>
        <pt x="386" y="413" on="1"/>
        <pt x="424" y="419" on="0"/>
        <pt x="491" y="426" on="0"/>
      </contour>
      <contour>
        <pt x="363" y="853" on="1"/>
        <pt x="410" y="837" on="0"/>
        <pt x="455" y="837" on="1"/>
        <pt x="493" y="837" on="0"/>
        <pt x="575" y="859" on="0"/>
        <pt x="626" y="883" on="1"/>
        <pt x="638" y="871" on="0"/>
        <pt x="656" y="821" on="0"/>
        <pt x="660" y="803" on="1"/>
        <pt x="615" y="782" on="0"/>
        <pt x="539" y="771" on="0"/>
        <pt x="506" y="771" on="1"/>
        <pt x="444" y="771" on="0"/>
        <pt x="370" y="818" on="0"/>
      </contour>
    </TTGlyph>
    <TTGlyph name="Euro" xMin="127" yMin="-78" xMax="837" yMax="738">
      <contour>
        <pt x="241" y="350" on="1"/>
        <pt x="206" y="350" on="0"/>
        <pt x="175" y="383" on="0"/>
        <pt x="175" y="409" on="1"/>
        <pt x="175" y="425" on="0"/>
        <pt x="179" y="438" on="1"/>
        <pt x="196" y="436" on="0"/>
        <pt x="226" y="432" on="0"/>
        <pt x="250" y="432" on="1"/>
        <pt x="295" y="432" on="1"/>
        <pt x="323" y="498" on="0"/>
        <pt x="408" y="610" on="0"/>
        <pt x="511" y="692" on="0"/>
        <pt x="629" y="738" on="0"/>
        <pt x="691" y="738" on="1"/>
        <pt x="760" y="738" on="0"/>
        <pt x="837" y="680" on="0"/>
        <pt x="837" y="628" on="1"/>
        <pt x="837" y="608" on="0"/>
        <pt x="826" y="566" on="0"/>
        <pt x="805" y="525" on="0"/>
        <pt x="777" y="487" on="0"/>
        <pt x="760" y="473" on="1"/>
        <pt x="734" y="477" on="0"/>
        <pt x="696" y="516" on="0"/>
        <pt x="691" y="542" on="1"/>
        <pt x="726" y="571" on="0"/>
        <pt x="767" y="634" on="0"/>
        <pt x="767" y="660" on="1"/>
        <pt x="767" y="704" on="0"/>
        <pt x="712" y="704" on="1"/>
        <pt x="689" y="704" on="0"/>
        <pt x="640" y="685" on="0"/>
        <pt x="590" y="651" on="0"/>
        <pt x="543" y="603" on="0"/>
        <pt x="523" y="574" on="1"/>
        <pt x="479" y="511" on="0"/>
        <pt x="448" y="444" on="1"/>
        <pt x="476" y="447" on="0"/>
        <pt x="517" y="452" on="0"/>
        <pt x="528" y="452" on="1"/>
        <pt x="547" y="452" on="0"/>
        <pt x="576" y="416" on="0"/>
        <pt x="583" y="374" on="1"/>
        <pt x="558" y="377" on="0"/>
        <pt x="526" y="379" on="0"/>
        <pt x="514" y="379" on="1"/>
        <pt x="488" y="379" on="0"/>
        <pt x="441" y="375" on="0"/>
        <pt x="419" y="373" on="1"/>
        <pt x="411" y="350" on="0"/>
        <pt x="400" y="303" on="0"/>
        <pt x="395" y="280" on="1"/>
        <pt x="424" y="285" on="0"/>
        <pt x="468" y="289" on="0"/>
        <pt x="480" y="289" on="1"/>
        <pt x="499" y="289" on="0"/>
        <pt x="528" y="253" on="0"/>
        <pt x="535" y="211" on="1"/>
        <pt x="510" y="214" on="0"/>
        <pt x="478" y="216" on="0"/>
        <pt x="466" y="216" on="1"/>
        <pt x="444" y="216" on="0"/>
        <pt x="404" y="213" on="0"/>
        <pt x="385" y="211" on="1"/>
        <pt x="384" y="200" on="0"/>
        <pt x="384" y="176" on="0"/>
        <pt x="384" y="165" on="1"/>
        <pt x="384" y="91" on="0"/>
        <pt x="430" y="1" on="0"/>
        <pt x="468" y="-7" on="1"/>
        <pt x="511" y="3" on="0"/>
        <pt x="643" y="93" on="0"/>
        <pt x="721" y="165" on="1"/>
        <pt x="731" y="155" on="0"/>
        <pt x="733" y="144" on="1"/>
        <pt x="704" y="106" on="0"/>
        <pt x="642" y="36" on="0"/>
        <pt x="581" y="-22" on="0"/>
        <pt x="522" y="-66" on="0"/>
        <pt x="497" y="-78" on="1"/>
        <pt x="374" y="-76" on="0"/>
        <pt x="247" y="59" on="0"/>
        <pt x="245" y="190" on="1"/>
        <pt x="218" y="187" on="0"/>
        <pt x="193" y="187" on="1"/>
        <pt x="158" y="187" on="0"/>
        <pt x="127" y="220" on="0"/>
        <pt x="127" y="246" on="1"/>
        <pt x="127" y="262" on="0"/>
        <pt x="131" y="275" on="1"/>
        <pt x="148" y="273" on="0"/>
        <pt x="178" y="269" on="0"/>
        <pt x="202" y="269" on="1"/>
        <pt x="250" y="269" on="1"/>
        <pt x="252" y="290" on="0"/>
        <pt x="261" y="330" on="0"/>
        <pt x="266" y="350" on="1"/>
      </contour>
    </TTGlyph>
    <TTGlyph name="F" xMin="113" yMin="-81" xMax="756" yMax="738">
      <contour>
        <pt x="520" y="417" on="1"/>
        <pt x="552" y="417" on="0"/>
        <pt x="589" y="381" on="0"/>
        <pt x="589" y="349" on="1"/>
        <pt x="589" y="341" on="0"/>
        <pt x="587" y="324" on="0"/>
        <pt x="584" y="318" on="1"/>
        <pt x="571" y="320" on="0"/>
        <pt x="539" y="323" on="0"/>
        <pt x="517" y="323" on="1"/>
        <pt x="472" y="323" on="0"/>
        <pt x="382" y="307" on="0"/>
        <pt x="341" y="302" on="1"/>
        <pt x="296" y="196" on="0"/>
        <pt x="238" y="10" on="0"/>
        <pt x="222" y="-81" on="1"/>
        <pt x="188" y="-73" on="0"/>
        <pt x="136" y="-31" on="0"/>
        <pt x="113" y="7" on="1"/>
        <pt x="120" y="23" on="0"/>
        <pt x="140" y="68" on="0"/>
        <pt x="168" y="137" on="0"/>
        <pt x="207" y="236" on="0"/>
        <pt x="234" y="305" on="1"/>
        <pt x="192" y="319" on="0"/>
        <pt x="179" y="354" on="1"/>
        <pt x="184" y="359" on="0"/>
        <pt x="230" y="372" on="0"/>
        <pt x="263" y="380" on="1"/>
        <pt x="278" y="419" on="0"/>
        <pt x="300" y="480" on="0"/>
        <pt x="318" y="535" on="0"/>
        <pt x="333" y="588" on="0"/>
        <pt x="339" y="618" on="1"/>
        <pt x="334" y="618" on="1"/>
        <pt x="296" y="618" on="0"/>
        <pt x="249" y="654" on="0"/>
        <pt x="249" y="683" on="1"/>
        <pt x="249" y="691" on="0"/>
        <pt x="254" y="713" on="0"/>
        <pt x="258" y="721" on="1"/>
        <pt x="277" y="718" on="0"/>
        <pt x="314" y="716" on="0"/>
        <pt x="344" y="716" on="1"/>
        <pt x="407" y="716" on="0"/>
        <pt x="517" y="723" on="0"/>
        <pt x="606" y="731" on="0"/>
        <pt x="670" y="738" on="0"/>
        <pt x="687" y="738" on="1"/>
        <pt x="710" y="738" on="0"/>
        <pt x="746" y="690" on="0"/>
        <pt x="756" y="646" on="1"/>
        <pt x="724" y="649" on="0"/>
        <pt x="685" y="651" on="0"/>
        <pt x="670" y="651" on="1"/>
        <pt x="619" y="651" on="0"/>
        <pt x="534" y="642" on="0"/>
        <pt x="496" y="636" on="1"/>
        <pt x="490" y="627" on="0"/>
        <pt x="475" y="599" on="0"/>
        <pt x="451" y="548" on="0"/>
        <pt x="414" y="466" on="0"/>
        <pt x="386" y="403" on="1"/>
        <pt x="425" y="409" on="0"/>
        <pt x="496" y="417" on="0"/>
      </contour>
    </TTGlyph>
    <TTGlyph name="G" xMin="141" yMin="-76" xMax="740" yMax="738">
      <contour>
        <pt x="655" y="318" on="1"/>
        <pt x="681" y="318" on="0"/>
        <pt x="711" y="282" on="0"/>
        <pt x="711" y="250" on="1"/>
        <pt x="711" y="242" on="0"/>
        <pt x="709" y="225" on="0"/>
        <pt x="707" y="219" on="1"/>
        <pt x="686" y="224" on="0"/>
        <pt x="661" y="225" on="1"/>
        <pt x="655" y="181" on="0"/>
        <pt x="603" y="84" on="0"/>
        <pt x="529" y="-1" on="0"/>
        <pt x="441" y="-65" on="0"/>
        <pt x="398" y="-76" on="1"/>
        <pt x="264" y="-73" on="0"/>
        <pt x="141" y="60" on="0"/>
        <pt x="141" y="201" on="1"/>
        <pt x="141" y="304" on="0"/>
        <pt x="217" y="497" on="0"/>
        <pt x="343" y="647" on="0"/>
        <pt x="506" y="738" on="0"/>
        <pt x="594" y="738" on="1"/>
        <pt x="663" y="738" on="0"/>
        <pt x="740" y="680" on="0"/>
        <pt x="740" y="627" on="1"/>
        <pt x="740" y="592" on="0"/>
        <pt x="707" y="532" on="0"/>
        <pt x="669" y="497" on="1"/>
        <pt x="646" y="504" on="0"/>
        <pt x="612" y="539" on="0"/>
        <pt x="608" y="562" on="1"/>
        <pt x="642" y="587" on="0"/>
        <pt x="670" y="629" on="0"/>
        <pt x="670" y="658" on="1"/>
        <pt x="670" y="704" on="0"/>
        <pt x="615" y="704" on="1"/>
        <pt x="570" y="704" on="0"/>
        <pt x="467" y="637" on="0"/>
        <pt x="415" y="574" on="1"/>
        <pt x="341" y="485" on="0"/>
        <pt x="273" y="296" on="0"/>
        <pt x="273" y="178" on="1"/>
        <pt x="273" y="134" on="0"/>
        <pt x="291" y="62" on="0"/>
        <pt x="321" y="8" on="0"/>
        <pt x="362" y="-24" on="0"/>
        <pt x="386" y="-26" on="1"/>
        <pt x="418" y="-19" on="0"/>
        <pt x="482" y="32" on="0"/>
        <pt x="535" y="101" on="0"/>
        <pt x="572" y="180" on="0"/>
        <pt x="576" y="216" on="1"/>
        <pt x="548" y="210" on="0"/>
        <pt x="497" y="199" on="0"/>
        <pt x="474" y="199" on="1"/>
        <pt x="444" y="199" on="0"/>
        <pt x="399" y="229" on="0"/>
        <pt x="391" y="255" on="1"/>
        <pt x="409" y="265" on="0"/>
        <pt x="478" y="287" on="0"/>
        <pt x="556" y="306" on="0"/>
        <pt x="631" y="318" on="0"/>
      </contour>
    </TTGlyph>
    <TTGlyph name="Gbreve" xMin="141" yMin="-76" xMax="824" yMax="883">
      <contour>
        <pt x="655" y="318" on="1"/>
        <pt x="681" y="318" on="0"/>
        <pt x="711" y="282" on="0"/>
        <pt x="711" y="250" on="1"/>
        <pt x="711" y="242" on="0"/>
        <pt x="709" y="225" on="0"/>
        <pt x="707" y="219" on="1"/>
        <pt x="686" y="224" on="0"/>
        <pt x="661" y="225" on="1"/>
        <pt x="655" y="181" on="0"/>
        <pt x="603" y="84" on="0"/>
        <pt x="529" y="-1" on="0"/>
        <pt x="441" y="-65" on="0"/>
        <pt x="398" y="-76" on="1"/>
        <pt x="264" y="-73" on="0"/>
        <pt x="141" y="60" on="0"/>
        <pt x="141" y="201" on="1"/>
        <pt x="141" y="304" on="0"/>
        <pt x="217" y="497" on="0"/>
        <pt x="343" y="647" on="0"/>
        <pt x="506" y="738" on="0"/>
        <pt x="594" y="738" on="1"/>
        <pt x="663" y="738" on="0"/>
        <pt x="740" y="680" on="0"/>
        <pt x="740" y="627" on="1"/>
        <pt x="740" y="592" on="0"/>
        <pt x="707" y="532" on="0"/>
        <pt x="669" y="497" on="1"/>
        <pt x="646" y="504" on="0"/>
        <pt x="612" y="539" on="0"/>
        <pt x="608" y="562" on="1"/>
        <pt x="642" y="587" on="0"/>
        <pt x="670" y="629" on="0"/>
        <pt x="670" y="658" on="1"/>
        <pt x="670" y="704" on="0"/>
        <pt x="615" y="704" on="1"/>
        <pt x="570" y="704" on="0"/>
        <pt x="467" y="637" on="0"/>
        <pt x="415" y="574" on="1"/>
        <pt x="341" y="485" on="0"/>
        <pt x="273" y="296" on="0"/>
        <pt x="273" y="178" on="1"/>
        <pt x="273" y="134" on="0"/>
        <pt x="291" y="62" on="0"/>
        <pt x="321" y="8" on="0"/>
        <pt x="362" y="-24" on="0"/>
        <pt x="386" y="-26" on="1"/>
        <pt x="418" y="-19" on="0"/>
        <pt x="482" y="32" on="0"/>
        <pt x="535" y="101" on="0"/>
        <pt x="572" y="180" on="0"/>
        <pt x="576" y="216" on="1"/>
        <pt x="548" y="210" on="0"/>
        <pt x="497" y="199" on="0"/>
        <pt x="474" y="199" on="1"/>
        <pt x="444" y="199" on="0"/>
        <pt x="399" y="229" on="0"/>
        <pt x="391" y="255" on="1"/>
        <pt x="409" y="265" on="0"/>
        <pt x="478" y="287" on="0"/>
        <pt x="556" y="306" on="0"/>
        <pt x="631" y="318" on="0"/>
      </contour>
      <contour>
        <pt x="678" y="764" on="1"/>
        <pt x="658" y="765" on="0"/>
        <pt x="614" y="776" on="0"/>
        <pt x="575" y="797" on="0"/>
        <pt x="544" y="829" on="0"/>
        <pt x="537" y="852" on="1"/>
        <pt x="550" y="866" on="0"/>
        <pt x="578" y="880" on="0"/>
        <pt x="606" y="883" on="1"/>
        <pt x="620" y="849" on="0"/>
        <pt x="673" y="821" on="0"/>
        <pt x="704" y="819" on="1"/>
        <pt x="742" y="825" on="0"/>
        <pt x="791" y="856" on="0"/>
        <pt x="808" y="880" on="1"/>
        <pt x="818" y="877" on="0"/>
        <pt x="824" y="861" on="1"/>
        <pt x="814" y="827" on="0"/>
        <pt x="736" y="775" on="0"/>
      </contour>
    </TTGlyph>
    <TTGlyph name="Gcircumflex" xMin="141" yMin="-76" xMax="769" yMax="883">
      <contour>
        <pt x="655" y="318" on="1"/>
        <pt x="681" y="318" on="0"/>
        <pt x="711" y="282" on="0"/>
        <pt x="711" y="250" on="1"/>
        <pt x="711" y="242" on="0"/>
        <pt x="709" y="225" on="0"/>
        <pt x="707" y="219" on="1"/>
        <pt x="686" y="224" on="0"/>
        <pt x="661" y="225" on="1"/>
        <pt x="655" y="181" on="0"/>
        <pt x="603" y="84" on="0"/>
        <pt x="529" y="-1" on="0"/>
        <pt x="441" y="-65" on="0"/>
        <pt x="398" y="-76" on="1"/>
        <pt x="264" y="-73" on="0"/>
        <pt x="141" y="60" on="0"/>
        <pt x="141" y="201" on="1"/>
        <pt x="141" y="304" on="0"/>
        <pt x="217" y="497" on="0"/>
        <pt x="343" y="647" on="0"/>
        <pt x="506" y="738" on="0"/>
        <pt x="594" y="738" on="1"/>
        <pt x="663" y="738" on="0"/>
        <pt x="740" y="680" on="0"/>
        <pt x="740" y="627" on="1"/>
        <pt x="740" y="592" on="0"/>
        <pt x="707" y="532" on="0"/>
        <pt x="669" y="497" on="1"/>
        <pt x="646" y="504" on="0"/>
        <pt x="612" y="539" on="0"/>
        <pt x="608" y="562" on="1"/>
        <pt x="642" y="587" on="0"/>
        <pt x="670" y="629" on="0"/>
        <pt x="670" y="658" on="1"/>
        <pt x="670" y="704" on="0"/>
        <pt x="615" y="704" on="1"/>
        <pt x="570" y="704" on="0"/>
        <pt x="467" y="637" on="0"/>
        <pt x="415" y="574" on="1"/>
        <pt x="341" y="485" on="0"/>
        <pt x="273" y="296" on="0"/>
        <pt x="273" y="178" on="1"/>
        <pt x="273" y="134" on="0"/>
        <pt x="291" y="62" on="0"/>
        <pt x="321" y="8" on="0"/>
        <pt x="362" y="-24" on="0"/>
        <pt x="386" y="-26" on="1"/>
        <pt x="418" y="-19" on="0"/>
        <pt x="482" y="32" on="0"/>
        <pt x="535" y="101" on="0"/>
        <pt x="572" y="180" on="0"/>
        <pt x="576" y="216" on="1"/>
        <pt x="548" y="210" on="0"/>
        <pt x="497" y="199" on="0"/>
        <pt x="474" y="199" on="1"/>
        <pt x="444" y="199" on="0"/>
        <pt x="399" y="229" on="0"/>
        <pt x="391" y="255" on="1"/>
        <pt x="409" y="265" on="0"/>
        <pt x="478" y="287" on="0"/>
        <pt x="556" y="306" on="0"/>
        <pt x="631" y="318" on="0"/>
      </contour>
      <contour>
        <pt x="717" y="882" on="1"/>
        <pt x="724" y="826" on="0"/>
        <pt x="746" y="768" on="0"/>
        <pt x="769" y="754" on="1"/>
        <pt x="767" y="753" on="0"/>
        <pt x="760" y="753" on="1"/>
        <pt x="735" y="753" on="0"/>
        <pt x="682" y="784" on="0"/>
        <pt x="661" y="809" on="1"/>
        <pt x="634" y="789" on="0"/>
        <pt x="572" y="764" on="0"/>
        <pt x="549" y="764" on="1"/>
        <pt x="534" y="764" on="0"/>
        <pt x="507" y="773" on="0"/>
        <pt x="495" y="786" on="1"/>
        <pt x="571" y="805" on="0"/>
        <pt x="632" y="857" on="1"/>
        <pt x="630" y="861" on="0"/>
        <pt x="628" y="869" on="1"/>
        <pt x="648" y="883" on="0"/>
        <pt x="689" y="883" on="1"/>
        <pt x="701" y="883" on="0"/>
        <pt x="712" y="883" on="0"/>
      </contour>
    </TTGlyph>
    <TTGlyph name="Gcommaaccent" xMin="141" yMin="-350" xMax="740" yMax="738">
      <contour>
        <pt x="655" y="318" on="1"/>
        <pt x="681" y="318" on="0"/>
        <pt x="711" y="282" on="0"/>
        <pt x="711" y="250" on="1"/>
        <pt x="711" y="242" on="0"/>
        <pt x="709" y="225" on="0"/>
        <pt x="707" y="219" on="1"/>
        <pt x="686" y="224" on="0"/>
        <pt x="661" y="225" on="1"/>
        <pt x="655" y="181" on="0"/>
        <pt x="603" y="84" on="0"/>
        <pt x="529" y="-1" on="0"/>
        <pt x="441" y="-65" on="0"/>
        <pt x="398" y="-76" on="1"/>
        <pt x="264" y="-73" on="0"/>
        <pt x="141" y="60" on="0"/>
        <pt x="141" y="201" on="1"/>
        <pt x="141" y="304" on="0"/>
        <pt x="217" y="497" on="0"/>
        <pt x="343" y="647" on="0"/>
        <pt x="506" y="738" on="0"/>
        <pt x="594" y="738" on="1"/>
        <pt x="663" y="738" on="0"/>
        <pt x="740" y="680" on="0"/>
        <pt x="740" y="627" on="1"/>
        <pt x="740" y="592" on="0"/>
        <pt x="707" y="532" on="0"/>
        <pt x="669" y="497" on="1"/>
        <pt x="646" y="504" on="0"/>
        <pt x="612" y="539" on="0"/>
        <pt x="608" y="562" on="1"/>
        <pt x="642" y="587" on="0"/>
        <pt x="670" y="629" on="0"/>
        <pt x="670" y="658" on="1"/>
        <pt x="670" y="704" on="0"/>
        <pt x="615" y="704" on="1"/>
        <pt x="570" y="704" on="0"/>
        <pt x="467" y="637" on="0"/>
        <pt x="415" y="574" on="1"/>
        <pt x="341" y="485" on="0"/>
        <pt x="273" y="296" on="0"/>
        <pt x="273" y="178" on="1"/>
        <pt x="273" y="134" on="0"/>
        <pt x="291" y="62" on="0"/>
        <pt x="321" y="8" on="0"/>
        <pt x="362" y="-24" on="0"/>
        <pt x="386" y="-26" on="1"/>
        <pt x="418" y="-19" on="0"/>
        <pt x="482" y="32" on="0"/>
        <pt x="535" y="101" on="0"/>
        <pt x="572" y="180" on="0"/>
        <pt x="576" y="216" on="1"/>
        <pt x="548" y="210" on="0"/>
        <pt x="497" y="199" on="0"/>
        <pt x="474" y="199" on="1"/>
        <pt x="444" y="199" on="0"/>
        <pt x="399" y="229" on="0"/>
        <pt x="391" y="255" on="1"/>
        <pt x="409" y="265" on="0"/>
        <pt x="478" y="287" on="0"/>
        <pt x="556" y="306" on="0"/>
        <pt x="631" y="318" on="0"/>
      </contour>
      <contour>
        <pt x="239" y="-350" on="1"/>
        <pt x="233" y="-345" on="0"/>
        <pt x="223" y="-322" on="0"/>
        <pt x="223" y="-312" on="1"/>
        <pt x="253" y="-277" on="0"/>
        <pt x="286" y="-207" on="0"/>
        <pt x="286" y="-163" on="1"/>
        <pt x="286" y="-128" on="0"/>
        <pt x="274" y="-84" on="1"/>
        <pt x="299" y="-86" on="0"/>
        <pt x="348" y="-99" on="0"/>
        <pt x="387" y="-118" on="0"/>
        <pt x="413" y="-143" on="0"/>
        <pt x="416" y="-155" on="1"/>
        <pt x="410" y="-178" on="0"/>
        <pt x="377" y="-233" on="0"/>
        <pt x="331" y="-287" on="0"/>
        <pt x="272" y="-335" on="0"/>
      </contour>
    </TTGlyph>
    <TTGlyph name="Gdotaccent" xMin="141" yMin="-76" xMax="740" yMax="883">
      <contour>
        <pt x="655" y="318" on="1"/>
        <pt x="681" y="318" on="0"/>
        <pt x="711" y="282" on="0"/>
        <pt x="711" y="250" on="1"/>
        <pt x="711" y="242" on="0"/>
        <pt x="709" y="225" on="0"/>
        <pt x="707" y="219" on="1"/>
        <pt x="686" y="224" on="0"/>
        <pt x="661" y="225" on="1"/>
        <pt x="655" y="181" on="0"/>
        <pt x="603" y="84" on="0"/>
        <pt x="529" y="-1" on="0"/>
        <pt x="441" y="-65" on="0"/>
        <pt x="398" y="-76" on="1"/>
        <pt x="264" y="-73" on="0"/>
        <pt x="141" y="60" on="0"/>
        <pt x="141" y="201" on="1"/>
        <pt x="141" y="304" on="0"/>
        <pt x="217" y="497" on="0"/>
        <pt x="343" y="647" on="0"/>
        <pt x="506" y="738" on="0"/>
        <pt x="594" y="738" on="1"/>
        <pt x="663" y="738" on="0"/>
        <pt x="740" y="680" on="0"/>
        <pt x="740" y="627" on="1"/>
        <pt x="740" y="592" on="0"/>
        <pt x="707" y="532" on="0"/>
        <pt x="669" y="497" on="1"/>
        <pt x="646" y="504" on="0"/>
        <pt x="612" y="539" on="0"/>
        <pt x="608" y="562" on="1"/>
        <pt x="642" y="587" on="0"/>
        <pt x="670" y="629" on="0"/>
        <pt x="670" y="658" on="1"/>
        <pt x="670" y="704" on="0"/>
        <pt x="615" y="704" on="1"/>
        <pt x="570" y="704" on="0"/>
        <pt x="467" y="637" on="0"/>
        <pt x="415" y="574" on="1"/>
        <pt x="341" y="485" on="0"/>
        <pt x="273" y="296" on="0"/>
        <pt x="273" y="178" on="1"/>
        <pt x="273" y="134" on="0"/>
        <pt x="291" y="62" on="0"/>
        <pt x="321" y="8" on="0"/>
        <pt x="362" y="-24" on="0"/>
        <pt x="386" y="-26" on="1"/>
        <pt x="418" y="-19" on="0"/>
        <pt x="482" y="32" on="0"/>
        <pt x="535" y="101" on="0"/>
        <pt x="572" y="180" on="0"/>
        <pt x="576" y="216" on="1"/>
        <pt x="548" y="210" on="0"/>
        <pt x="497" y="199" on="0"/>
        <pt x="474" y="199" on="1"/>
        <pt x="444" y="199" on="0"/>
        <pt x="399" y="229" on="0"/>
        <pt x="391" y="255" on="1"/>
        <pt x="409" y="265" on="0"/>
        <pt x="478" y="287" on="0"/>
        <pt x="556" y="306" on="0"/>
        <pt x="631" y="318" on="0"/>
      </contour>
      <contour>
        <pt x="628" y="791" on="1"/>
        <pt x="628" y="797" on="0"/>
        <pt x="631" y="809" on="1"/>
        <pt x="616" y="824" on="0"/>
        <pt x="616" y="849" on="1"/>
        <pt x="616" y="865" on="0"/>
        <pt x="621" y="883" on="1"/>
        <pt x="633" y="883" on="0"/>
        <pt x="667" y="879" on="0"/>
        <pt x="701" y="873" on="0"/>
        <pt x="731" y="864" on="0"/>
        <pt x="739" y="860" on="1"/>
        <pt x="731" y="855" on="0"/>
        <pt x="708" y="829" on="0"/>
        <pt x="685" y="799" on="0"/>
        <pt x="666" y="771" on="0"/>
        <pt x="663" y="764" on="1"/>
        <pt x="650" y="766" on="0"/>
        <pt x="628" y="783" on="0"/>
      </contour>
    </TTGlyph>
    <TTGlyph name="H" xMin="72" yMin="-81" xMax="827" yMax="742">
      <contour>
        <pt x="491" y="58" on="1"/>
        <pt x="491" y="100" on="0"/>
        <pt x="519" y="232" on="0"/>
        <pt x="542" y="307" on="1"/>
        <pt x="476" y="302" on="0"/>
        <pt x="343" y="286" on="0"/>
        <pt x="294" y="285" on="1"/>
        <pt x="249" y="180" on="0"/>
        <pt x="196" y="3" on="0"/>
        <pt x="181" y="-81" on="1"/>
        <pt x="143" y="-72" on="0"/>
        <pt x="93" y="-27" on="0"/>
        <pt x="72" y="7" on="1"/>
        <pt x="80" y="23" on="0"/>
        <pt x="101" y="73" on="0"/>
        <pt x="130" y="144" on="0"/>
        <pt x="167" y="239" on="0"/>
        <pt x="191" y="302" on="1"/>
        <pt x="158" y="316" on="0"/>
        <pt x="147" y="341" on="1"/>
        <pt x="152" y="345" on="0"/>
        <pt x="187" y="354" on="0"/>
        <pt x="213" y="359" on="1"/>
        <pt x="226" y="391" on="1"/>
        <pt x="247" y="445" on="0"/>
        <pt x="274" y="519" on="0"/>
        <pt x="293" y="590" on="0"/>
        <pt x="310" y="676" on="0"/>
        <pt x="322" y="742" on="1"/>
        <pt x="364" y="734" on="0"/>
        <pt x="433" y="676" on="0"/>
        <pt x="458" y="635" on="1"/>
        <pt x="449" y="623" on="0"/>
        <pt x="423" y="575" on="0"/>
        <pt x="392" y="508" on="0"/>
        <pt x="356" y="425" on="0"/>
        <pt x="335" y="379" on="1"/>
        <pt x="397" y="387" on="0"/>
        <pt x="524" y="401" on="0"/>
        <pt x="573" y="404" on="1"/>
        <pt x="591" y="456" on="0"/>
        <pt x="630" y="555" on="0"/>
        <pt x="668" y="637" on="0"/>
        <pt x="703" y="699" on="0"/>
        <pt x="717" y="714" on="1"/>
        <pt x="727" y="713" on="0"/>
        <pt x="760" y="700" on="0"/>
        <pt x="794" y="682" on="0"/>
        <pt x="822" y="661" on="0"/>
        <pt x="827" y="652" on="1"/>
        <pt x="809" y="635" on="0"/>
        <pt x="773" y="581" on="0"/>
        <pt x="738" y="511" on="0"/>
        <pt x="704" y="429" on="0"/>
        <pt x="689" y="385" on="1"/>
        <pt x="709" y="367" on="0"/>
        <pt x="709" y="340" on="1"/>
        <pt x="709" y="321" on="0"/>
        <pt x="701" y="305" on="1"/>
        <pt x="692" y="307" on="0"/>
        <pt x="674" y="308" on="0"/>
        <pt x="664" y="309" on="1"/>
        <pt x="647" y="255" on="0"/>
        <pt x="619" y="149" on="0"/>
        <pt x="600" y="53" on="0"/>
        <pt x="589" y="-27" on="0"/>
        <pt x="589" y="-54" on="1"/>
        <pt x="589" y="-64" on="0"/>
        <pt x="590" y="-76" on="0"/>
        <pt x="591" y="-80" on="1"/>
        <pt x="569" y="-79" on="0"/>
        <pt x="549" y="-66" on="0"/>
        <pt x="539" y="-51" on="0"/>
        <pt x="531" y="-36" on="0"/>
        <pt x="522" y="-32" on="1"/>
        <pt x="515" y="-29" on="0"/>
        <pt x="503" y="-7" on="0"/>
        <pt x="495" y="21" on="0"/>
        <pt x="491" y="49" on="0"/>
      </contour>
    </TTGlyph>
    <TTGlyph name="Hbar" xMin="103" yMin="-81" xMax="935" yMax="742">
      <contour>
        <pt x="522" y="58" on="1"/>
        <pt x="522" y="100" on="0"/>
        <pt x="550" y="232" on="0"/>
        <pt x="573" y="307" on="1"/>
        <pt x="507" y="302" on="0"/>
        <pt x="374" y="286" on="0"/>
        <pt x="325" y="285" on="1"/>
        <pt x="280" y="180" on="0"/>
        <pt x="227" y="3" on="0"/>
        <pt x="212" y="-81" on="1"/>
        <pt x="174" y="-72" on="0"/>
        <pt x="124" y="-27" on="0"/>
        <pt x="103" y="7" on="1"/>
        <pt x="111" y="23" on="0"/>
        <pt x="132" y="73" on="0"/>
        <pt x="161" y="144" on="0"/>
        <pt x="198" y="239" on="0"/>
        <pt x="222" y="302" on="1"/>
        <pt x="189" y="316" on="0"/>
        <pt x="178" y="341" on="1"/>
        <pt x="183" y="345" on="0"/>
        <pt x="218" y="354" on="0"/>
        <pt x="244" y="359" on="1"/>
        <pt x="261" y="394" on="0"/>
        <pt x="282" y="456" on="0"/>
        <pt x="289" y="474" on="1"/>
        <pt x="257" y="476" on="0"/>
        <pt x="198" y="480" on="0"/>
        <pt x="170" y="482" on="1"/>
        <pt x="172" y="492" on="0"/>
        <pt x="175" y="523" on="0"/>
        <pt x="175" y="549" on="1"/>
        <pt x="225" y="546" on="0"/>
        <pt x="292" y="546" on="0"/>
        <pt x="312" y="545" on="1"/>
        <pt x="317" y="564" on="0"/>
        <pt x="327" y="604" on="0"/>
        <pt x="336" y="650" on="0"/>
        <pt x="347" y="707" on="0"/>
        <pt x="353" y="742" on="1"/>
        <pt x="395" y="734" on="0"/>
        <pt x="464" y="676" on="0"/>
        <pt x="489" y="635" on="1"/>
        <pt x="480" y="623" on="0"/>
        <pt x="455" y="577" on="0"/>
        <pt x="440" y="545" on="1"/>
        <pt x="497" y="545" on="0"/>
        <pt x="607" y="548" on="0"/>
        <pt x="659" y="550" on="1"/>
        <pt x="684" y="608" on="0"/>
        <pt x="730" y="694" on="0"/>
        <pt x="748" y="714" on="1"/>
        <pt x="758" y="713" on="0"/>
        <pt x="791" y="700" on="0"/>
        <pt x="825" y="682" on="0"/>
        <pt x="853" y="661" on="0"/>
        <pt x="858" y="652" on="1"/>
        <pt x="841" y="636" on="0"/>
        <pt x="809" y="588" on="0"/>
        <pt x="792" y="557" on="1"/>
        <pt x="818" y="559" on="0"/>
        <pt x="866" y="563" on="0"/>
        <pt x="890" y="565" on="1"/>
        <pt x="907" y="552" on="0"/>
        <pt x="935" y="499" on="0"/>
        <pt x="935" y="478" on="1"/>
        <pt x="890" y="476" on="0"/>
        <pt x="800" y="473" on="0"/>
        <pt x="752" y="471" on="1"/>
        <pt x="744" y="451" on="0"/>
        <pt x="728" y="408" on="0"/>
        <pt x="720" y="385" on="1"/>
        <pt x="740" y="367" on="0"/>
        <pt x="740" y="340" on="1"/>
        <pt x="740" y="321" on="0"/>
        <pt x="732" y="305" on="1"/>
        <pt x="723" y="307" on="0"/>
        <pt x="705" y="308" on="0"/>
        <pt x="695" y="309" on="1"/>
        <pt x="678" y="255" on="0"/>
        <pt x="650" y="149" on="0"/>
        <pt x="631" y="53" on="0"/>
        <pt x="620" y="-27" on="0"/>
        <pt x="620" y="-54" on="1"/>
        <pt x="620" y="-64" on="0"/>
        <pt x="621" y="-76" on="0"/>
        <pt x="622" y="-80" on="1"/>
        <pt x="600" y="-79" on="0"/>
        <pt x="580" y="-66" on="0"/>
        <pt x="570" y="-51" on="0"/>
        <pt x="562" y="-36" on="0"/>
        <pt x="553" y="-32" on="1"/>
        <pt x="546" y="-29" on="0"/>
        <pt x="534" y="-7" on="0"/>
        <pt x="526" y="21" on="0"/>
        <pt x="522" y="49" on="0"/>
      </contour>
      <contour>
        <pt x="627" y="469" on="1"/>
        <pt x="579" y="469" on="0"/>
        <pt x="510" y="469" on="0"/>
        <pt x="460" y="469" on="0"/>
        <pt x="423" y="470" on="0"/>
        <pt x="406" y="470" on="1"/>
        <pt x="396" y="449" on="0"/>
        <pt x="377" y="403" on="0"/>
        <pt x="366" y="379" on="1"/>
        <pt x="428" y="387" on="0"/>
        <pt x="555" y="401" on="0"/>
        <pt x="604" y="404" on="1"/>
        <pt x="609" y="421" on="0"/>
        <pt x="621" y="452" on="0"/>
      </contour>
    </TTGlyph>
    <TTGlyph name="Hcircumflex" xMin="72" yMin="-81" xMax="827" yMax="883">
      <contour>
        <pt x="491" y="58" on="1"/>
        <pt x="491" y="100" on="0"/>
        <pt x="519" y="232" on="0"/>
        <pt x="542" y="307" on="1"/>
        <pt x="476" y="302" on="0"/>
        <pt x="343" y="286" on="0"/>
        <pt x="294" y="285" on="1"/>
        <pt x="249" y="180" on="0"/>
        <pt x="196" y="3" on="0"/>
        <pt x="181" y="-81" on="1"/>
        <pt x="143" y="-72" on="0"/>
        <pt x="93" y="-27" on="0"/>
        <pt x="72" y="7" on="1"/>
        <pt x="80" y="23" on="0"/>
        <pt x="101" y="73" on="0"/>
        <pt x="130" y="144" on="0"/>
        <pt x="167" y="239" on="0"/>
        <pt x="191" y="302" on="1"/>
        <pt x="158" y="316" on="0"/>
        <pt x="147" y="341" on="1"/>
        <pt x="152" y="345" on="0"/>
        <pt x="187" y="354" on="0"/>
        <pt x="213" y="359" on="1"/>
        <pt x="239" y="425" on="0"/>
        <pt x="271" y="512" on="0"/>
        <pt x="293" y="589" on="0"/>
        <pt x="310" y="676" on="0"/>
        <pt x="322" y="742" on="1"/>
        <pt x="364" y="734" on="0"/>
        <pt x="433" y="676" on="0"/>
        <pt x="458" y="635" on="1"/>
        <pt x="449" y="623" on="0"/>
        <pt x="423" y="575" on="0"/>
        <pt x="392" y="508" on="0"/>
        <pt x="356" y="425" on="0"/>
        <pt x="335" y="379" on="1"/>
        <pt x="397" y="387" on="0"/>
        <pt x="524" y="401" on="0"/>
        <pt x="573" y="404" on="1"/>
        <pt x="591" y="456" on="0"/>
        <pt x="630" y="555" on="0"/>
        <pt x="668" y="637" on="0"/>
        <pt x="703" y="699" on="0"/>
        <pt x="717" y="714" on="1"/>
        <pt x="727" y="713" on="0"/>
        <pt x="760" y="700" on="0"/>
        <pt x="794" y="682" on="0"/>
        <pt x="822" y="661" on="0"/>
        <pt x="827" y="652" on="1"/>
        <pt x="809" y="635" on="0"/>
        <pt x="773" y="581" on="0"/>
        <pt x="738" y="511" on="0"/>
        <pt x="704" y="429" on="0"/>
        <pt x="689" y="385" on="1"/>
        <pt x="709" y="367" on="0"/>
        <pt x="709" y="340" on="1"/>
        <pt x="709" y="321" on="0"/>
        <pt x="701" y="305" on="1"/>
        <pt x="692" y="307" on="0"/>
        <pt x="674" y="308" on="0"/>
        <pt x="664" y="309" on="1"/>
        <pt x="647" y="255" on="0"/>
        <pt x="619" y="149" on="0"/>
        <pt x="600" y="53" on="0"/>
        <pt x="589" y="-27" on="0"/>
        <pt x="589" y="-54" on="1"/>
        <pt x="589" y="-64" on="0"/>
        <pt x="590" y="-76" on="0"/>
        <pt x="591" y="-80" on="1"/>
        <pt x="569" y="-79" on="0"/>
        <pt x="549" y="-66" on="0"/>
        <pt x="539" y="-51" on="0"/>
        <pt x="531" y="-36" on="0"/>
        <pt x="522" y="-32" on="1"/>
        <pt x="515" y="-29" on="0"/>
        <pt x="503" y="-7" on="0"/>
        <pt x="495" y="21" on="0"/>
        <pt x="491" y="49" on="0"/>
      </contour>
      <contour>
        <pt x="630" y="882" on="1"/>
        <pt x="637" y="826" on="0"/>
        <pt x="659" y="768" on="0"/>
        <pt x="682" y="754" on="1"/>
        <pt x="680" y="753" on="0"/>
        <pt x="673" y="753" on="1"/>
        <pt x="648" y="753" on="0"/>
        <pt x="595" y="784" on="0"/>
        <pt x="574" y="809" on="1"/>
        <pt x="547" y="789" on="0"/>
        <pt x="485" y="764" on="0"/>
        <pt x="462" y="764" on="1"/>
        <pt x="447" y="764" on="0"/>
        <pt x="420" y="773" on="0"/>
        <pt x="408" y="786" on="1"/>
        <pt x="484" y="805" on="0"/>
        <pt x="545" y="857" on="1"/>
        <pt x="543" y="861" on="0"/>
        <pt x="541" y="869" on="1"/>
        <pt x="561" y="883" on="0"/>
        <pt x="602" y="883" on="1"/>
        <pt x="614" y="883" on="0"/>
        <pt x="625" y="883" on="0"/>
      </contour>
    </TTGlyph>
    <TTGlyph name="I" xMin="131" yMin="-80" xMax="465" yMax="714">
      <contour>
        <pt x="131" y="57" on="1"/>
        <pt x="131" y="93" on="0"/>
        <pt x="154" y="208" on="0"/>
        <pt x="191" y="341" on="0"/>
        <pt x="239" y="480" on="0"/>
        <pt x="289" y="602" on="0"/>
        <pt x="337" y="694" on="0"/>
        <pt x="356" y="714" on="1"/>
        <pt x="366" y="713" on="0"/>
        <pt x="399" y="700" on="0"/>
        <pt x="433" y="682" on="0"/>
        <pt x="461" y="661" on="0"/>
        <pt x="465" y="652" on="1"/>
        <pt x="436" y="626" on="0"/>
        <pt x="379" y="521" on="0"/>
        <pt x="326" y="387" on="0"/>
        <pt x="280" y="238" on="0"/>
        <pt x="246" y="98" on="0"/>
        <pt x="227" y="-22" on="0"/>
        <pt x="227" y="-59" on="1"/>
        <pt x="227" y="-76" on="0"/>
        <pt x="230" y="-80" on="1"/>
        <pt x="208" y="-79" on="0"/>
        <pt x="188" y="-66" on="0"/>
        <pt x="177" y="-51" on="0"/>
        <pt x="168" y="-36" on="0"/>
        <pt x="159" y="-32" on="1"/>
        <pt x="152" y="-29" on="0"/>
        <pt x="142" y="-7" on="0"/>
        <pt x="135" y="20" on="0"/>
        <pt x="131" y="48" on="0"/>
      </contour>
    </TTGlyph>
    <TTGlyph name="IJ" xMin="131" yMin="-146" xMax="850" yMax="739">
      <contour>
        <pt x="131" y="57" on="1"/>
        <pt x="131" y="93" on="0"/>
        <pt x="154" y="208" on="0"/>
        <pt x="191" y="341" on="0"/>
        <pt x="239" y="480" on="0"/>
        <pt x="289" y="602" on="0"/>
        <pt x="337" y="694" on="0"/>
        <pt x="356" y="714" on="1"/>
        <pt x="366" y="713" on="0"/>
        <pt x="399" y="700" on="0"/>
        <pt x="433" y="682" on="0"/>
        <pt x="461" y="661" on="0"/>
        <pt x="465" y="652" on="1"/>
        <pt x="436" y="626" on="0"/>
        <pt x="379" y="521" on="0"/>
        <pt x="326" y="387" on="0"/>
        <pt x="280" y="238" on="0"/>
        <pt x="246" y="98" on="0"/>
        <pt x="227" y="-22" on="0"/>
        <pt x="227" y="-59" on="1"/>
        <pt x="227" y="-76" on="0"/>
        <pt x="230" y="-80" on="1"/>
        <pt x="208" y="-79" on="0"/>
        <pt x="188" y="-66" on="0"/>
        <pt x="177" y="-51" on="0"/>
        <pt x="168" y="-36" on="0"/>
        <pt x="159" y="-32" on="1"/>
        <pt x="152" y="-29" on="0"/>
        <pt x="142" y="-7" on="0"/>
        <pt x="135" y="20" on="0"/>
        <pt x="131" y="48" on="0"/>
      </contour>
      <contour>
        <pt x="699" y="739" on="1"/>
        <pt x="737" y="739" on="0"/>
        <pt x="819" y="711" on="0"/>
        <pt x="850" y="689" on="1"/>
        <pt x="840" y="638" on="0"/>
        <pt x="823" y="556" on="0"/>
        <pt x="809" y="489" on="0"/>
        <pt x="796" y="434" on="0"/>
        <pt x="790" y="410" on="1"/>
        <pt x="766" y="320" on="0"/>
        <pt x="715" y="175" on="0"/>
        <pt x="658" y="59" on="0"/>
        <pt x="595" y="-31" on="0"/>
        <pt x="559" y="-65" on="1"/>
        <pt x="524" y="-98" on="0"/>
        <pt x="454" y="-140" on="0"/>
        <pt x="424" y="-146" on="1"/>
        <pt x="384" y="-146" on="0"/>
        <pt x="316" y="-128" on="0"/>
        <pt x="267" y="-97" on="0"/>
        <pt x="240" y="-54" on="0"/>
        <pt x="240" y="-28" on="1"/>
        <pt x="240" y="0" on="0"/>
        <pt x="268" y="85" on="0"/>
        <pt x="297" y="143" on="1"/>
        <pt x="309" y="142" on="0"/>
        <pt x="341" y="132" on="0"/>
        <pt x="373" y="118" on="0"/>
        <pt x="399" y="101" on="0"/>
        <pt x="405" y="93" on="1"/>
        <pt x="373" y="60" on="0"/>
        <pt x="333" y="-19" on="0"/>
        <pt x="333" y="-48" on="1"/>
        <pt x="333" y="-65" on="0"/>
        <pt x="346" y="-92" on="0"/>
        <pt x="362" y="-103" on="1"/>
        <pt x="423" y="-80" on="0"/>
        <pt x="539" y="45" on="0"/>
        <pt x="584" y="138" on="1"/>
        <pt x="611" y="193" on="0"/>
        <pt x="655" y="335" on="0"/>
        <pt x="686" y="478" on="0"/>
        <pt x="703" y="609" on="0"/>
        <pt x="703" y="654" on="1"/>
        <pt x="703" y="661" on="0"/>
        <pt x="702" y="686" on="0"/>
        <pt x="701" y="713" on="0"/>
        <pt x="699" y="735" on="0"/>
      </contour>
    </TTGlyph>
    <TTGlyph name="Iacute" xMin="131" yMin="-80" xMax="617" yMax="883">
      <contour>
        <pt x="131" y="57" on="1"/>
        <pt x="131" y="93" on="0"/>
        <pt x="154" y="208" on="0"/>
        <pt x="191" y="341" on="0"/>
        <pt x="239" y="480" on="0"/>
        <pt x="289" y="602" on="0"/>
        <pt x="337" y="694" on="0"/>
        <pt x="356" y="714" on="1"/>
        <pt x="366" y="713" on="0"/>
        <pt x="399" y="700" on="0"/>
        <pt x="433" y="682" on="0"/>
        <pt x="461" y="661" on="0"/>
        <pt x="465" y="652" on="1"/>
        <pt x="436" y="626" on="0"/>
        <pt x="379" y="521" on="0"/>
        <pt x="326" y="387" on="0"/>
        <pt x="280" y="238" on="0"/>
        <pt x="246" y="98" on="0"/>
        <pt x="227" y="-22" on="0"/>
        <pt x="227" y="-59" on="1"/>
        <pt x="227" y="-76" on="0"/>
        <pt x="230" y="-80" on="1"/>
        <pt x="208" y="-79" on="0"/>
        <pt x="188" y="-66" on="0"/>
        <pt x="177" y="-51" on="0"/>
        <pt x="168" y="-36" on="0"/>
        <pt x="159" y="-32" on="1"/>
        <pt x="152" y="-29" on="0"/>
        <pt x="142" y="-7" on="0"/>
        <pt x="135" y="20" on="0"/>
        <pt x="131" y="48" on="0"/>
      </contour>
      <contour>
        <pt x="559" y="883" on="1"/>
        <pt x="580" y="877" on="0"/>
        <pt x="617" y="837" on="0"/>
        <pt x="617" y="819" on="1"/>
        <pt x="579" y="803" on="0"/>
        <pt x="522" y="782" on="0"/>
        <pt x="477" y="769" on="0"/>
        <pt x="443" y="764" on="0"/>
        <pt x="427" y="764" on="1"/>
        <pt x="395" y="764" on="0"/>
        <pt x="372" y="783" on="1"/>
        <pt x="417" y="793" on="0"/>
        <pt x="517" y="846" on="0"/>
      </contour>
    </TTGlyph>
    <TTGlyph name="Ibreve" xMin="131" yMin="-80" xMax="630" yMax="883">
      <contour>
        <pt x="131" y="57" on="1"/>
        <pt x="131" y="93" on="0"/>
        <pt x="154" y="208" on="0"/>
        <pt x="191" y="341" on="0"/>
        <pt x="239" y="480" on="0"/>
        <pt x="289" y="602" on="0"/>
        <pt x="337" y="694" on="0"/>
        <pt x="356" y="714" on="1"/>
        <pt x="366" y="713" on="0"/>
        <pt x="399" y="700" on="0"/>
        <pt x="433" y="682" on="0"/>
        <pt x="461" y="661" on="0"/>
        <pt x="465" y="652" on="1"/>
        <pt x="436" y="626" on="0"/>
        <pt x="379" y="521" on="0"/>
        <pt x="326" y="387" on="0"/>
        <pt x="280" y="238" on="0"/>
        <pt x="246" y="98" on="0"/>
        <pt x="227" y="-22" on="0"/>
        <pt x="227" y="-59" on="1"/>
        <pt x="227" y="-76" on="0"/>
        <pt x="230" y="-80" on="1"/>
        <pt x="208" y="-79" on="0"/>
        <pt x="188" y="-66" on="0"/>
        <pt x="177" y="-51" on="0"/>
        <pt x="168" y="-36" on="0"/>
        <pt x="159" y="-32" on="1"/>
        <pt x="152" y="-29" on="0"/>
        <pt x="142" y="-7" on="0"/>
        <pt x="135" y="20" on="0"/>
        <pt x="131" y="48" on="0"/>
      </contour>
      <contour>
        <pt x="484" y="764" on="1"/>
        <pt x="464" y="765" on="0"/>
        <pt x="420" y="776" on="0"/>
        <pt x="381" y="797" on="0"/>
        <pt x="350" y="829" on="0"/>
        <pt x="343" y="852" on="1"/>
        <pt x="356" y="866" on="0"/>
        <pt x="384" y="880" on="0"/>
        <pt x="412" y="883" on="1"/>
        <pt x="426" y="849" on="0"/>
        <pt x="479" y="821" on="0"/>
        <pt x="510" y="819" on="1"/>
        <pt x="548" y="825" on="0"/>
        <pt x="597" y="856" on="0"/>
        <pt x="614" y="880" on="1"/>
        <pt x="624" y="877" on="0"/>
        <pt x="630" y="861" on="1"/>
        <pt x="620" y="827" on="0"/>
        <pt x="542" y="775" on="0"/>
      </contour>
    </TTGlyph>
    <TTGlyph name="Icircumflex" xMin="131" yMin="-80" xMax="575" yMax="883">
      <contour>
        <pt x="131" y="57" on="1"/>
        <pt x="131" y="93" on="0"/>
        <pt x="154" y="208" on="0"/>
        <pt x="191" y="341" on="0"/>
        <pt x="239" y="480" on="0"/>
        <pt x="289" y="602" on="0"/>
        <pt x="337" y="694" on="0"/>
        <pt x="356" y="714" on="1"/>
        <pt x="366" y="713" on="0"/>
        <pt x="399" y="700" on="0"/>
        <pt x="433" y="682" on="0"/>
        <pt x="461" y="661" on="0"/>
        <pt x="465" y="652" on="1"/>
        <pt x="436" y="626" on="0"/>
        <pt x="379" y="521" on="0"/>
        <pt x="326" y="387" on="0"/>
        <pt x="280" y="238" on="0"/>
        <pt x="246" y="98" on="0"/>
        <pt x="227" y="-22" on="0"/>
        <pt x="227" y="-59" on="1"/>
        <pt x="227" y="-76" on="0"/>
        <pt x="230" y="-80" on="1"/>
        <pt x="208" y="-79" on="0"/>
        <pt x="188" y="-66" on="0"/>
        <pt x="177" y="-51" on="0"/>
        <pt x="168" y="-36" on="0"/>
        <pt x="159" y="-32" on="1"/>
        <pt x="152" y="-29" on="0"/>
        <pt x="142" y="-7" on="0"/>
        <pt x="135" y="20" on="0"/>
        <pt x="131" y="48" on="0"/>
      </contour>
      <contour>
        <pt x="523" y="882" on="1"/>
        <pt x="530" y="826" on="0"/>
        <pt x="552" y="768" on="0"/>
        <pt x="575" y="754" on="1"/>
        <pt x="573" y="753" on="0"/>
        <pt x="566" y="753" on="1"/>
        <pt x="541" y="753" on="0"/>
        <pt x="488" y="784" on="0"/>
        <pt x="467" y="809" on="1"/>
        <pt x="440" y="789" on="0"/>
        <pt x="378" y="764" on="0"/>
        <pt x="355" y="764" on="1"/>
        <pt x="340" y="764" on="0"/>
        <pt x="313" y="773" on="0"/>
        <pt x="301" y="786" on="1"/>
        <pt x="377" y="805" on="0"/>
        <pt x="438" y="857" on="1"/>
        <pt x="436" y="861" on="0"/>
        <pt x="434" y="869" on="1"/>
        <pt x="454" y="883" on="0"/>
        <pt x="495" y="883" on="1"/>
        <pt x="507" y="883" on="0"/>
        <pt x="518" y="883" on="0"/>
      </contour>
    </TTGlyph>
    <TTGlyph name="Idieresis" xMin="131" yMin="-80" xMax="627" yMax="883">
      <contour>
        <pt x="131" y="57" on="1"/>
        <pt x="131" y="93" on="0"/>
        <pt x="154" y="208" on="0"/>
        <pt x="191" y="341" on="0"/>
        <pt x="239" y="480" on="0"/>
        <pt x="289" y="602" on="0"/>
        <pt x="337" y="694" on="0"/>
        <pt x="356" y="714" on="1"/>
        <pt x="366" y="713" on="0"/>
        <pt x="399" y="700" on="0"/>
        <pt x="433" y="682" on="0"/>
        <pt x="461" y="661" on="0"/>
        <pt x="465" y="652" on="1"/>
        <pt x="436" y="626" on="0"/>
        <pt x="379" y="521" on="0"/>
        <pt x="326" y="387" on="0"/>
        <pt x="280" y="238" on="0"/>
        <pt x="246" y="98" on="0"/>
        <pt x="227" y="-22" on="0"/>
        <pt x="227" y="-59" on="1"/>
        <pt x="227" y="-76" on="0"/>
        <pt x="230" y="-80" on="1"/>
        <pt x="208" y="-79" on="0"/>
        <pt x="188" y="-66" on="0"/>
        <pt x="177" y="-51" on="0"/>
        <pt x="168" y="-36" on="0"/>
        <pt x="159" y="-32" on="1"/>
        <pt x="152" y="-29" on="0"/>
        <pt x="142" y="-7" on="0"/>
        <pt x="135" y="20" on="0"/>
        <pt x="131" y="48" on="0"/>
      </contour>
      <contour>
        <pt x="371" y="788" on="1"/>
        <pt x="371" y="803" on="0"/>
        <pt x="375" y="836" on="0"/>
        <pt x="387" y="863" on="0"/>
        <pt x="410" y="882" on="0"/>
        <pt x="429" y="883" on="1"/>
        <pt x="442" y="881" on="0"/>
        <pt x="487" y="856" on="0"/>
        <pt x="497" y="839" on="1"/>
        <pt x="497" y="839" on="0"/>
        <pt x="480" y="817" on="0"/>
        <pt x="457" y="791" on="0"/>
        <pt x="436" y="767" on="0"/>
        <pt x="432" y="764" on="1"/>
        <pt x="407" y="769" on="0"/>
        <pt x="376" y="779" on="0"/>
      </contour>
      <contour>
        <pt x="502" y="788" on="1"/>
        <pt x="502" y="804" on="0"/>
        <pt x="506" y="837" on="0"/>
        <pt x="518" y="864" on="0"/>
        <pt x="540" y="882" on="0"/>
        <pt x="558" y="883" on="1"/>
        <pt x="564" y="883" on="0"/>
        <pt x="583" y="875" on="0"/>
        <pt x="603" y="863" on="0"/>
        <pt x="621" y="847" on="0"/>
        <pt x="627" y="839" on="1"/>
        <pt x="627" y="838" on="0"/>
        <pt x="610" y="816" on="0"/>
        <pt x="588" y="789" on="0"/>
        <pt x="566" y="765" on="0"/>
        <pt x="560" y="763" on="1"/>
        <pt x="537" y="766" on="0"/>
        <pt x="508" y="780" on="0"/>
      </contour>
    </TTGlyph>
    <TTGlyph name="Idotaccent" xMin="131" yMin="-80" xMax="545" yMax="883">
      <contour>
        <pt x="131" y="57" on="1"/>
        <pt x="131" y="93" on="0"/>
        <pt x="154" y="208" on="0"/>
        <pt x="191" y="341" on="0"/>
        <pt x="239" y="480" on="0"/>
        <pt x="289" y="602" on="0"/>
        <pt x="337" y="694" on="0"/>
        <pt x="356" y="714" on="1"/>
        <pt x="366" y="713" on="0"/>
        <pt x="399" y="700" on="0"/>
        <pt x="433" y="682" on="0"/>
        <pt x="461" y="661" on="0"/>
        <pt x="465" y="652" on="1"/>
        <pt x="436" y="626" on="0"/>
        <pt x="379" y="521" on="0"/>
        <pt x="326" y="387" on="0"/>
        <pt x="280" y="238" on="0"/>
        <pt x="246" y="98" on="0"/>
        <pt x="227" y="-22" on="0"/>
        <pt x="227" y="-59" on="1"/>
        <pt x="227" y="-76" on="0"/>
        <pt x="230" y="-80" on="1"/>
        <pt x="208" y="-79" on="0"/>
        <pt x="188" y="-66" on="0"/>
        <pt x="177" y="-51" on="0"/>
        <pt x="168" y="-36" on="0"/>
        <pt x="159" y="-32" on="1"/>
        <pt x="152" y="-29" on="0"/>
        <pt x="142" y="-7" on="0"/>
        <pt x="135" y="20" on="0"/>
        <pt x="131" y="48" on="0"/>
      </contour>
      <contour>
        <pt x="434" y="791" on="1"/>
        <pt x="434" y="797" on="0"/>
        <pt x="437" y="809" on="1"/>
        <pt x="422" y="824" on="0"/>
        <pt x="422" y="849" on="1"/>
        <pt x="422" y="865" on="0"/>
        <pt x="427" y="883" on="1"/>
        <pt x="439" y="883" on="0"/>
        <pt x="473" y="879" on="0"/>
        <pt x="507" y="873" on="0"/>
        <pt x="537" y="864" on="0"/>
        <pt x="545" y="860" on="1"/>
        <pt x="537" y="855" on="0"/>
        <pt x="514" y="829" on="0"/>
        <pt x="491" y="799" on="0"/>
        <pt x="472" y="771" on="0"/>
        <pt x="469" y="764" on="1"/>
        <pt x="456" y="766" on="0"/>
        <pt x="434" y="783" on="0"/>
      </contour>
    </TTGlyph>
    <TTGlyph name="Igrave" xMin="131" yMin="-80" xMax="566" yMax="883">
      <contour>
        <pt x="131" y="57" on="1"/>
        <pt x="131" y="93" on="0"/>
        <pt x="154" y="208" on="0"/>
        <pt x="191" y="341" on="0"/>
        <pt x="239" y="480" on="0"/>
        <pt x="289" y="602" on="0"/>
        <pt x="337" y="694" on="0"/>
        <pt x="356" y="714" on="1"/>
        <pt x="366" y="713" on="0"/>
        <pt x="399" y="700" on="0"/>
        <pt x="433" y="682" on="0"/>
        <pt x="461" y="661" on="0"/>
        <pt x="465" y="652" on="1"/>
        <pt x="436" y="626" on="0"/>
        <pt x="379" y="521" on="0"/>
        <pt x="326" y="387" on="0"/>
        <pt x="280" y="238" on="0"/>
        <pt x="246" y="98" on="0"/>
        <pt x="227" y="-22" on="0"/>
        <pt x="227" y="-59" on="1"/>
        <pt x="227" y="-76" on="0"/>
        <pt x="230" y="-80" on="1"/>
        <pt x="208" y="-79" on="0"/>
        <pt x="188" y="-66" on="0"/>
        <pt x="177" y="-51" on="0"/>
        <pt x="168" y="-36" on="0"/>
        <pt x="159" y="-32" on="1"/>
        <pt x="152" y="-29" on="0"/>
        <pt x="142" y="-7" on="0"/>
        <pt x="135" y="20" on="0"/>
        <pt x="131" y="48" on="0"/>
      </contour>
      <contour>
        <pt x="379" y="883" on="1"/>
        <pt x="421" y="846" on="0"/>
        <pt x="521" y="793" on="0"/>
        <pt x="566" y="783" on="1"/>
        <pt x="543" y="764" on="0"/>
        <pt x="511" y="764" on="1"/>
        <pt x="495" y="764" on="0"/>
        <pt x="461" y="769" on="0"/>
        <pt x="416" y="782" on="0"/>
        <pt x="359" y="803" on="0"/>
        <pt x="321" y="819" on="1"/>
        <pt x="321" y="828" on="0"/>
        <pt x="331" y="848" on="0"/>
        <pt x="348" y="866" on="0"/>
        <pt x="368" y="880" on="0"/>
      </contour>
    </TTGlyph>
    <TTGlyph name="Imacron" xMin="131" yMin="-80" xMax="614" yMax="883">
      <contour>
        <pt x="131" y="57" on="1"/>
        <pt x="131" y="93" on="0"/>
        <pt x="154" y="208" on="0"/>
        <pt x="191" y="341" on="0"/>
        <pt x="239" y="480" on="0"/>
        <pt x="289" y="602" on="0"/>
        <pt x="337" y="694" on="0"/>
        <pt x="356" y="714" on="1"/>
        <pt x="366" y="713" on="0"/>
        <pt x="399" y="700" on="0"/>
        <pt x="433" y="682" on="0"/>
        <pt x="461" y="661" on="0"/>
        <pt x="465" y="652" on="1"/>
        <pt x="436" y="626" on="0"/>
        <pt x="379" y="521" on="0"/>
        <pt x="326" y="387" on="0"/>
        <pt x="280" y="238" on="0"/>
        <pt x="246" y="98" on="0"/>
        <pt x="227" y="-22" on="0"/>
        <pt x="227" y="-59" on="1"/>
        <pt x="227" y="-76" on="0"/>
        <pt x="230" y="-80" on="1"/>
        <pt x="208" y="-79" on="0"/>
        <pt x="188" y="-66" on="0"/>
        <pt x="177" y="-51" on="0"/>
        <pt x="168" y="-36" on="0"/>
        <pt x="159" y="-32" on="1"/>
        <pt x="152" y="-29" on="0"/>
        <pt x="142" y="-7" on="0"/>
        <pt x="135" y="20" on="0"/>
        <pt x="131" y="48" on="0"/>
      </contour>
      <contour>
        <pt x="310" y="866" on="1"/>
        <pt x="355" y="863" on="0"/>
        <pt x="401" y="863" on="1"/>
        <pt x="507" y="863" on="0"/>
        <pt x="596" y="883" on="1"/>
        <pt x="603" y="872" on="0"/>
        <pt x="614" y="825" on="0"/>
        <pt x="614" y="806" on="1"/>
        <pt x="577" y="799" on="0"/>
        <pt x="499" y="797" on="0"/>
        <pt x="460" y="797" on="1"/>
        <pt x="367" y="797" on="0"/>
        <pt x="308" y="810" on="1"/>
        <pt x="309" y="818" on="0"/>
        <pt x="310" y="843" on="0"/>
      </contour>
    </TTGlyph>
    <TTGlyph name="Iogonek" xMin="27" yMin="-271" xMax="466" yMax="714">
      <contour>
        <pt x="27" y="-174" on="1"/>
        <pt x="27" y="-150" on="0"/>
        <pt x="47" y="-102" on="0"/>
        <pt x="80" y="-60" on="0"/>
        <pt x="124" y="-28" on="0"/>
        <pt x="149" y="-20" on="1"/>
        <pt x="141" y="-5" on="0"/>
        <pt x="132" y="43" on="0"/>
        <pt x="132" y="57" on="1"/>
        <pt x="132" y="93" on="0"/>
        <pt x="155" y="208" on="0"/>
        <pt x="192" y="341" on="0"/>
        <pt x="240" y="480" on="0"/>
        <pt x="290" y="602" on="0"/>
        <pt x="338" y="694" on="0"/>
        <pt x="357" y="714" on="1"/>
        <pt x="367" y="713" on="0"/>
        <pt x="400" y="700" on="0"/>
        <pt x="434" y="682" on="0"/>
        <pt x="462" y="661" on="0"/>
        <pt x="466" y="652" on="1"/>
        <pt x="437" y="626" on="0"/>
        <pt x="380" y="521" on="0"/>
        <pt x="327" y="387" on="0"/>
        <pt x="281" y="238" on="0"/>
        <pt x="247" y="98" on="0"/>
        <pt x="228" y="-22" on="0"/>
        <pt x="228" y="-59" on="1"/>
        <pt x="228" y="-76" on="0"/>
        <pt x="231" y="-80" on="1"/>
        <pt x="215" y="-79" on="0"/>
        <pt x="196" y="-72" on="0"/>
        <pt x="185" y="-62" on="0"/>
        <pt x="178" y="-50" on="0"/>
        <pt x="175" y="-45" on="1"/>
        <pt x="144" y="-61" on="0"/>
        <pt x="93" y="-136" on="0"/>
        <pt x="93" y="-186" on="1"/>
        <pt x="93" y="-212" on="0"/>
        <pt x="115" y="-233" on="0"/>
        <pt x="132" y="-233" on="1"/>
        <pt x="145" y="-233" on="0"/>
        <pt x="175" y="-223" on="0"/>
        <pt x="204" y="-209" on="0"/>
        <pt x="230" y="-193" on="0"/>
        <pt x="239" y="-187" on="1"/>
        <pt x="245" y="-199" on="1"/>
        <pt x="235" y="-211" on="0"/>
        <pt x="205" y="-236" on="0"/>
        <pt x="172" y="-256" on="0"/>
        <pt x="142" y="-270" on="0"/>
        <pt x="132" y="-271" on="1"/>
        <pt x="112" y="-270" on="0"/>
        <pt x="74" y="-255" on="0"/>
        <pt x="45" y="-230" on="0"/>
        <pt x="27" y="-196" on="0"/>
      </contour>
    </TTGlyph>
    <TTGlyph name="Itilde" xMin="131" yMin="-80" xMax="585" yMax="883">
      <contour>
        <pt x="131" y="57" on="1"/>
        <pt x="131" y="93" on="0"/>
        <pt x="154" y="208" on="0"/>
        <pt x="191" y="341" on="0"/>
        <pt x="239" y="480" on="0"/>
        <pt x="289" y="602" on="0"/>
        <pt x="337" y="694" on="0"/>
        <pt x="356" y="714" on="1"/>
        <pt x="366" y="713" on="0"/>
        <pt x="399" y="700" on="0"/>
        <pt x="433" y="682" on="0"/>
        <pt x="461" y="661" on="0"/>
        <pt x="465" y="652" on="1"/>
        <pt x="436" y="626" on="0"/>
        <pt x="379" y="521" on="0"/>
        <pt x="326" y="387" on="0"/>
        <pt x="280" y="238" on="0"/>
        <pt x="246" y="98" on="0"/>
        <pt x="227" y="-22" on="0"/>
        <pt x="227" y="-59" on="1"/>
        <pt x="227" y="-76" on="0"/>
        <pt x="230" y="-80" on="1"/>
        <pt x="208" y="-79" on="0"/>
        <pt x="188" y="-66" on="0"/>
        <pt x="177" y="-51" on="0"/>
        <pt x="168" y="-36" on="0"/>
        <pt x="159" y="-32" on="1"/>
        <pt x="152" y="-29" on="0"/>
        <pt x="142" y="-7" on="0"/>
        <pt x="135" y="20" on="0"/>
        <pt x="131" y="48" on="0"/>
      </contour>
      <contour>
        <pt x="288" y="853" on="1"/>
        <pt x="335" y="837" on="0"/>
        <pt x="380" y="837" on="1"/>
        <pt x="418" y="837" on="0"/>
        <pt x="500" y="859" on="0"/>
        <pt x="551" y="883" on="1"/>
        <pt x="563" y="871" on="0"/>
        <pt x="581" y="821" on="0"/>
        <pt x="585" y="803" on="1"/>
        <pt x="540" y="782" on="0"/>
        <pt x="464" y="771" on="0"/>
        <pt x="431" y="771" on="1"/>
        <pt x="369" y="771" on="0"/>
        <pt x="295" y="818" on="0"/>
      </contour>
    </TTGlyph>
    <TTGlyph name="J" xMin="17" yMin="-146" xMax="627" yMax="739">
      <contour>
        <pt x="476" y="739" on="1"/>
        <pt x="514" y="739" on="0"/>
        <pt x="596" y="711" on="0"/>
        <pt x="627" y="689" on="1"/>
        <pt x="617" y="638" on="0"/>
        <pt x="600" y="556" on="0"/>
        <pt x="586" y="489" on="0"/>
        <pt x="573" y="434" on="0"/>
        <pt x="567" y="410" on="1"/>
        <pt x="543" y="320" on="0"/>
        <pt x="492" y="175" on="0"/>
        <pt x="435" y="59" on="0"/>
        <pt x="372" y="-31" on="0"/>
        <pt x="336" y="-65" on="1"/>
        <pt x="301" y="-98" on="0"/>
        <pt x="231" y="-140" on="0"/>
        <pt x="201" y="-146" on="1"/>
        <pt x="161" y="-146" on="0"/>
        <pt x="93" y="-128" on="0"/>
        <pt x="44" y="-97" on="0"/>
        <pt x="17" y="-54" on="0"/>
        <pt x="17" y="-28" on="1"/>
        <pt x="17" y="0" on="0"/>
        <pt x="45" y="85" on="0"/>
        <pt x="74" y="143" on="1"/>
        <pt x="86" y="142" on="0"/>
        <pt x="118" y="132" on="0"/>
        <pt x="150" y="118" on="0"/>
        <pt x="176" y="101" on="0"/>
        <pt x="182" y="93" on="1"/>
        <pt x="150" y="60" on="0"/>
        <pt x="110" y="-19" on="0"/>
        <pt x="110" y="-48" on="1"/>
        <pt x="110" y="-65" on="0"/>
        <pt x="123" y="-92" on="0"/>
        <pt x="139" y="-103" on="1"/>
        <pt x="200" y="-80" on="0"/>
        <pt x="316" y="45" on="0"/>
        <pt x="361" y="138" on="1"/>
        <pt x="388" y="193" on="0"/>
        <pt x="432" y="335" on="0"/>
        <pt x="463" y="478" on="0"/>
        <pt x="480" y="609" on="0"/>
        <pt x="480" y="654" on="1"/>
        <pt x="480" y="661" on="0"/>
        <pt x="479" y="686" on="0"/>
        <pt x="478" y="713" on="0"/>
        <pt x="476" y="735" on="0"/>
      </contour>
    </TTGlyph>
    <TTGlyph name="Jcircumflex" xMin="17" yMin="-146" xMax="726" yMax="883">
      <contour>
        <pt x="476" y="739" on="1"/>
        <pt x="514" y="739" on="0"/>
        <pt x="596" y="711" on="0"/>
        <pt x="627" y="689" on="1"/>
        <pt x="617" y="638" on="0"/>
        <pt x="600" y="556" on="0"/>
        <pt x="586" y="489" on="0"/>
        <pt x="573" y="434" on="0"/>
        <pt x="567" y="410" on="1"/>
        <pt x="543" y="320" on="0"/>
        <pt x="492" y="175" on="0"/>
        <pt x="435" y="59" on="0"/>
        <pt x="372" y="-31" on="0"/>
        <pt x="336" y="-65" on="1"/>
        <pt x="301" y="-98" on="0"/>
        <pt x="231" y="-140" on="0"/>
        <pt x="201" y="-146" on="1"/>
        <pt x="161" y="-146" on="0"/>
        <pt x="93" y="-128" on="0"/>
        <pt x="44" y="-97" on="0"/>
        <pt x="17" y="-54" on="0"/>
        <pt x="17" y="-28" on="1"/>
        <pt x="17" y="0" on="0"/>
        <pt x="45" y="85" on="0"/>
        <pt x="74" y="143" on="1"/>
        <pt x="86" y="142" on="0"/>
        <pt x="118" y="132" on="0"/>
        <pt x="150" y="118" on="0"/>
        <pt x="176" y="101" on="0"/>
        <pt x="182" y="93" on="1"/>
        <pt x="150" y="60" on="0"/>
        <pt x="110" y="-19" on="0"/>
        <pt x="110" y="-48" on="1"/>
        <pt x="110" y="-65" on="0"/>
        <pt x="123" y="-92" on="0"/>
        <pt x="139" y="-103" on="1"/>
        <pt x="200" y="-80" on="0"/>
        <pt x="316" y="45" on="0"/>
        <pt x="361" y="138" on="1"/>
        <pt x="388" y="193" on="0"/>
        <pt x="432" y="335" on="0"/>
        <pt x="463" y="478" on="0"/>
        <pt x="480" y="609" on="0"/>
        <pt x="480" y="654" on="1"/>
        <pt x="480" y="661" on="0"/>
        <pt x="479" y="686" on="0"/>
        <pt x="478" y="713" on="0"/>
        <pt x="476" y="735" on="0"/>
      </contour>
      <contour>
        <pt x="674" y="882" on="1"/>
        <pt x="681" y="826" on="0"/>
        <pt x="703" y="768" on="0"/>
        <pt x="726" y="754" on="1"/>
        <pt x="724" y="753" on="0"/>
        <pt x="717" y="753" on="1"/>
        <pt x="692" y="753" on="0"/>
        <pt x="639" y="784" on="0"/>
        <pt x="618" y="809" on="1"/>
        <pt x="591" y="789" on="0"/>
        <pt x="529" y="764" on="0"/>
        <pt x="506" y="764" on="1"/>
        <pt x="491" y="764" on="0"/>
        <pt x="464" y="773" on="0"/>
        <pt x="452" y="786" on="1"/>
        <pt x="528" y="805" on="0"/>
        <pt x="589" y="857" on="1"/>
        <pt x="587" y="861" on="0"/>
        <pt x="585" y="869" on="1"/>
        <pt x="605" y="883" on="0"/>
        <pt x="646" y="883" on="1"/>
        <pt x="658" y="883" on="0"/>
        <pt x="669" y="883" on="0"/>
      </contour>
    </TTGlyph>
    <TTGlyph name="K" xMin="74" yMin="-81" xMax="842" yMax="742">
      <contour>
        <pt x="334" y="317" on="1"/>
        <pt x="396" y="409" on="0"/>
        <pt x="517" y="564" on="0"/>
        <pt x="627" y="676" on="0"/>
        <pt x="719" y="738" on="0"/>
        <pt x="753" y="738" on="1"/>
        <pt x="766" y="738" on="0"/>
        <pt x="797" y="718" on="0"/>
        <pt x="824" y="686" on="0"/>
        <pt x="842" y="649" on="0"/>
        <pt x="842" y="632" on="1"/>
        <pt x="780" y="612" on="0"/>
        <pt x="661" y="547" on="0"/>
        <pt x="552" y="462" on="0"/>
        <pt x="453" y="358" on="0"/>
        <pt x="413" y="299" on="1"/>
        <pt x="429" y="258" on="0"/>
        <pt x="476" y="165" on="0"/>
        <pt x="532" y="78" on="0"/>
        <pt x="596" y="4" on="0"/>
        <pt x="629" y="-18" on="1"/>
        <pt x="624" y="-29" on="0"/>
        <pt x="600" y="-49" on="0"/>
        <pt x="572" y="-66" on="0"/>
        <pt x="541" y="-76" on="0"/>
        <pt x="528" y="-76" on="1"/>
        <pt x="502" y="-76" on="0"/>
        <pt x="458" y="-27" on="0"/>
        <pt x="413" y="72" on="0"/>
        <pt x="364" y="219" on="0"/>
      </contour>
      <contour>
        <pt x="183" y="-81" on="1"/>
        <pt x="145" y="-72" on="0"/>
        <pt x="95" y="-27" on="0"/>
        <pt x="74" y="7" on="1"/>
        <pt x="83" y="26" on="0"/>
        <pt x="108" y="88" on="0"/>
        <pt x="144" y="179" on="0"/>
        <pt x="194" y="306" on="0"/>
        <pt x="227" y="391" on="1"/>
        <pt x="248" y="445" on="0"/>
        <pt x="275" y="519" on="0"/>
        <pt x="294" y="590" on="0"/>
        <pt x="312" y="676" on="0"/>
        <pt x="324" y="742" on="1"/>
        <pt x="366" y="734" on="0"/>
        <pt x="435" y="676" on="0"/>
        <pt x="460" y="635" on="1"/>
        <pt x="449" y="621" on="0"/>
        <pt x="420" y="564" on="0"/>
        <pt x="384" y="484" on="0"/>
        <pt x="340" y="386" on="0"/>
        <pt x="316" y="331" on="1"/>
        <pt x="262" y="211" on="0"/>
        <pt x="200" y="12" on="0"/>
      </contour>
    </TTGlyph>
    <TTGlyph name="Kcommaaccent" xMin="74" yMin="-350" xMax="842" yMax="742">
      <contour>
        <pt x="334" y="317" on="1"/>
        <pt x="396" y="409" on="0"/>
        <pt x="517" y="564" on="0"/>
        <pt x="627" y="676" on="0"/>
        <pt x="719" y="738" on="0"/>
        <pt x="753" y="738" on="1"/>
        <pt x="766" y="738" on="0"/>
        <pt x="797" y="718" on="0"/>
        <pt x="824" y="686" on="0"/>
        <pt x="842" y="649" on="0"/>
        <pt x="842" y="632" on="1"/>
        <pt x="780" y="612" on="0"/>
        <pt x="661" y="547" on="0"/>
        <pt x="552" y="462" on="0"/>
        <pt x="453" y="358" on="0"/>
        <pt x="413" y="299" on="1"/>
        <pt x="429" y="258" on="0"/>
        <pt x="476" y="165" on="0"/>
        <pt x="532" y="78" on="0"/>
        <pt x="596" y="4" on="0"/>
        <pt x="629" y="-18" on="1"/>
        <pt x="624" y="-29" on="0"/>
        <pt x="600" y="-49" on="0"/>
        <pt x="572" y="-66" on="0"/>
        <pt x="541" y="-76" on="0"/>
        <pt x="528" y="-76" on="1"/>
        <pt x="502" y="-76" on="0"/>
        <pt x="458" y="-27" on="0"/>
        <pt x="413" y="72" on="0"/>
        <pt x="364" y="219" on="0"/>
      </contour>
      <contour>
        <pt x="183" y="-81" on="1"/>
        <pt x="145" y="-72" on="0"/>
        <pt x="95" y="-27" on="0"/>
        <pt x="74" y="7" on="1"/>
        <pt x="83" y="26" on="0"/>
        <pt x="108" y="88" on="0"/>
        <pt x="144" y="179" on="0"/>
        <pt x="194" y="306" on="0"/>
        <pt x="227" y="391" on="1"/>
        <pt x="248" y="445" on="0"/>
        <pt x="275" y="519" on="0"/>
        <pt x="294" y="590" on="0"/>
        <pt x="312" y="676" on="0"/>
        <pt x="324" y="742" on="1"/>
        <pt x="366" y="734" on="0"/>
        <pt x="435" y="676" on="0"/>
        <pt x="460" y="635" on="1"/>
        <pt x="449" y="621" on="0"/>
        <pt x="420" y="564" on="0"/>
        <pt x="384" y="484" on="0"/>
        <pt x="340" y="386" on="0"/>
        <pt x="316" y="331" on="1"/>
        <pt x="262" y="211" on="0"/>
        <pt x="200" y="12" on="0"/>
      </contour>
      <contour>
        <pt x="241" y="-350" on="1"/>
        <pt x="235" y="-345" on="0"/>
        <pt x="225" y="-322" on="0"/>
        <pt x="225" y="-312" on="1"/>
        <pt x="255" y="-277" on="0"/>
        <pt x="288" y="-207" on="0"/>
        <pt x="288" y="-163" on="1"/>
        <pt x="288" y="-128" on="0"/>
        <pt x="276" y="-84" on="1"/>
        <pt x="301" y="-86" on="0"/>
        <pt x="350" y="-99" on="0"/>
        <pt x="389" y="-118" on="0"/>
        <pt x="415" y="-143" on="0"/>
        <pt x="418" y="-155" on="1"/>
        <pt x="412" y="-178" on="0"/>
        <pt x="379" y="-233" on="0"/>
        <pt x="333" y="-287" on="0"/>
        <pt x="274" y="-335" on="0"/>
      </contour>
    </TTGlyph>
    <TTGlyph name="L" xMin="74" yMin="-81" xMax="498" yMax="746">
      <contour>
        <pt x="473" y="57" on="1"/>
        <pt x="498" y="14" on="0"/>
        <pt x="498" y="-26" on="1"/>
        <pt x="498" y="-35" on="0"/>
        <pt x="495" y="-50" on="0"/>
        <pt x="493" y="-58" on="1"/>
        <pt x="476" y="-56" on="0"/>
        <pt x="439" y="-54" on="0"/>
        <pt x="419" y="-54" on="1"/>
        <pt x="395" y="-54" on="0"/>
        <pt x="346" y="-57" on="0"/>
        <pt x="286" y="-63" on="0"/>
        <pt x="212" y="-73" on="0"/>
        <pt x="163" y="-81" on="1"/>
        <pt x="140" y="-73" on="0"/>
        <pt x="94" y="-26" on="0"/>
        <pt x="74" y="7" on="1"/>
        <pt x="84" y="29" on="0"/>
        <pt x="114" y="94" on="0"/>
        <pt x="154" y="187" on="0"/>
        <pt x="203" y="312" on="0"/>
        <pt x="231" y="394" on="1"/>
        <pt x="249" y="448" on="0"/>
        <pt x="275" y="530" on="0"/>
        <pt x="296" y="607" on="0"/>
        <pt x="316" y="691" on="0"/>
        <pt x="328" y="746" on="1"/>
        <pt x="368" y="738" on="0"/>
        <pt x="427" y="695" on="0"/>
        <pt x="454" y="655" on="1"/>
        <pt x="446" y="642" on="0"/>
        <pt x="420" y="584" on="0"/>
        <pt x="385" y="501" on="0"/>
        <pt x="343" y="396" on="0"/>
        <pt x="320" y="336" on="1"/>
        <pt x="298" y="277" on="0"/>
        <pt x="256" y="173" on="0"/>
        <pt x="223" y="89" on="0"/>
        <pt x="203" y="29" on="0"/>
        <pt x="203" y="14" on="1"/>
        <pt x="219" y="15" on="0"/>
        <pt x="245" y="17" on="0"/>
        <pt x="273" y="22" on="0"/>
        <pt x="306" y="29" on="0"/>
        <pt x="329" y="35" on="1"/>
        <pt x="349" y="40" on="0"/>
        <pt x="383" y="47" on="0"/>
        <pt x="416" y="52" on="0"/>
        <pt x="451" y="55" on="0"/>
      </contour>
    </TTGlyph>
    <TTGlyph name="Lacute" xMin="74" yMin="-81" xMax="585" yMax="883">
      <contour>
        <pt x="473" y="57" on="1"/>
        <pt x="498" y="14" on="0"/>
        <pt x="498" y="-26" on="1"/>
        <pt x="498" y="-35" on="0"/>
        <pt x="495" y="-50" on="0"/>
        <pt x="493" y="-58" on="1"/>
        <pt x="476" y="-56" on="0"/>
        <pt x="439" y="-54" on="0"/>
        <pt x="419" y="-54" on="1"/>
        <pt x="395" y="-54" on="0"/>
        <pt x="346" y="-57" on="0"/>
        <pt x="286" y="-63" on="0"/>
        <pt x="212" y="-73" on="0"/>
        <pt x="163" y="-81" on="1"/>
        <pt x="140" y="-73" on="0"/>
        <pt x="94" y="-26" on="0"/>
        <pt x="74" y="7" on="1"/>
        <pt x="84" y="29" on="0"/>
        <pt x="114" y="94" on="0"/>
        <pt x="154" y="187" on="0"/>
        <pt x="203" y="312" on="0"/>
        <pt x="231" y="394" on="1"/>
        <pt x="249" y="448" on="0"/>
        <pt x="275" y="530" on="0"/>
        <pt x="296" y="607" on="0"/>
        <pt x="316" y="691" on="0"/>
        <pt x="328" y="746" on="1"/>
        <pt x="368" y="738" on="0"/>
        <pt x="427" y="695" on="0"/>
        <pt x="454" y="655" on="1"/>
        <pt x="446" y="642" on="0"/>
        <pt x="420" y="584" on="0"/>
        <pt x="385" y="501" on="0"/>
        <pt x="343" y="396" on="0"/>
        <pt x="320" y="336" on="1"/>
        <pt x="298" y="277" on="0"/>
        <pt x="256" y="173" on="0"/>
        <pt x="223" y="89" on="0"/>
        <pt x="203" y="29" on="0"/>
        <pt x="203" y="14" on="1"/>
        <pt x="219" y="15" on="0"/>
        <pt x="245" y="17" on="0"/>
        <pt x="273" y="22" on="0"/>
        <pt x="306" y="29" on="0"/>
        <pt x="329" y="35" on="1"/>
        <pt x="349" y="40" on="0"/>
        <pt x="383" y="47" on="0"/>
        <pt x="416" y="52" on="0"/>
        <pt x="451" y="55" on="0"/>
      </contour>
      <contour>
        <pt x="527" y="883" on="1"/>
        <pt x="548" y="877" on="0"/>
        <pt x="585" y="837" on="0"/>
        <pt x="585" y="819" on="1"/>
        <pt x="547" y="803" on="0"/>
        <pt x="490" y="782" on="0"/>
        <pt x="445" y="769" on="0"/>
        <pt x="411" y="764" on="0"/>
        <pt x="395" y="764" on="1"/>
        <pt x="363" y="764" on="0"/>
        <pt x="340" y="783" on="1"/>
        <pt x="385" y="793" on="0"/>
        <pt x="485" y="846" on="0"/>
      </contour>
    </TTGlyph>
    <TTGlyph name="Lcaron" xMin="74" yMin="-81" xMax="577" yMax="883">
      <contour>
        <pt x="473" y="57" on="1"/>
        <pt x="498" y="14" on="0"/>
        <pt x="498" y="-26" on="1"/>
        <pt x="498" y="-35" on="0"/>
        <pt x="495" y="-50" on="0"/>
        <pt x="493" y="-58" on="1"/>
        <pt x="476" y="-56" on="0"/>
        <pt x="439" y="-54" on="0"/>
        <pt x="419" y="-54" on="1"/>
        <pt x="395" y="-54" on="0"/>
        <pt x="346" y="-57" on="0"/>
        <pt x="286" y="-63" on="0"/>
        <pt x="212" y="-73" on="0"/>
        <pt x="163" y="-81" on="1"/>
        <pt x="140" y="-73" on="0"/>
        <pt x="94" y="-26" on="0"/>
        <pt x="74" y="7" on="1"/>
        <pt x="84" y="29" on="0"/>
        <pt x="114" y="94" on="0"/>
        <pt x="154" y="187" on="0"/>
        <pt x="203" y="312" on="0"/>
        <pt x="231" y="394" on="1"/>
        <pt x="249" y="448" on="0"/>
        <pt x="275" y="530" on="0"/>
        <pt x="296" y="607" on="0"/>
        <pt x="316" y="691" on="0"/>
        <pt x="328" y="746" on="1"/>
        <pt x="368" y="738" on="0"/>
        <pt x="427" y="695" on="0"/>
        <pt x="454" y="655" on="1"/>
        <pt x="446" y="642" on="0"/>
        <pt x="420" y="584" on="0"/>
        <pt x="385" y="501" on="0"/>
        <pt x="343" y="396" on="0"/>
        <pt x="320" y="336" on="1"/>
        <pt x="298" y="277" on="0"/>
        <pt x="256" y="173" on="0"/>
        <pt x="223" y="89" on="0"/>
        <pt x="203" y="29" on="0"/>
        <pt x="203" y="14" on="1"/>
        <pt x="219" y="15" on="0"/>
        <pt x="245" y="17" on="0"/>
        <pt x="273" y="22" on="0"/>
        <pt x="306" y="29" on="0"/>
        <pt x="329" y="35" on="1"/>
        <pt x="349" y="40" on="0"/>
        <pt x="383" y="47" on="0"/>
        <pt x="416" y="52" on="0"/>
        <pt x="451" y="55" on="0"/>
      </contour>
      <contour>
        <pt x="427" y="751" on="1"/>
        <pt x="412" y="759" on="0"/>
        <pt x="384" y="764" on="0"/>
        <pt x="374" y="764" on="1"/>
        <pt x="363" y="786" on="0"/>
        <pt x="347" y="818" on="0"/>
        <pt x="331" y="844" on="0"/>
        <pt x="311" y="867" on="0"/>
        <pt x="296" y="881" on="1"/>
        <pt x="304" y="883" on="0"/>
        <pt x="310" y="883" on="0"/>
        <pt x="313" y="883" on="1"/>
        <pt x="342" y="883" on="0"/>
        <pt x="387" y="848" on="0"/>
        <pt x="414" y="803" on="1"/>
        <pt x="444" y="835" on="0"/>
        <pt x="506" y="876" on="0"/>
        <pt x="528" y="883" on="1"/>
        <pt x="545" y="879" on="0"/>
        <pt x="577" y="838" on="1"/>
        <pt x="545" y="827" on="0"/>
        <pt x="468" y="790" on="0"/>
      </contour>
    </TTGlyph>
    <TTGlyph name="Lcommaaccent" xMin="74" yMin="-351" xMax="498" yMax="746">
      <contour>
        <pt x="473" y="57" on="1"/>
        <pt x="498" y="14" on="0"/>
        <pt x="498" y="-26" on="1"/>
        <pt x="498" y="-35" on="0"/>
        <pt x="495" y="-50" on="0"/>
        <pt x="493" y="-58" on="1"/>
        <pt x="476" y="-56" on="0"/>
        <pt x="439" y="-54" on="0"/>
        <pt x="419" y="-54" on="1"/>
        <pt x="395" y="-54" on="0"/>
        <pt x="346" y="-57" on="0"/>
        <pt x="286" y="-63" on="0"/>
        <pt x="212" y="-73" on="0"/>
        <pt x="163" y="-81" on="1"/>
        <pt x="140" y="-73" on="0"/>
        <pt x="94" y="-26" on="0"/>
        <pt x="74" y="7" on="1"/>
        <pt x="84" y="29" on="0"/>
        <pt x="114" y="94" on="0"/>
        <pt x="154" y="187" on="0"/>
        <pt x="203" y="312" on="0"/>
        <pt x="231" y="394" on="1"/>
        <pt x="249" y="448" on="0"/>
        <pt x="275" y="530" on="0"/>
        <pt x="296" y="607" on="0"/>
        <pt x="316" y="691" on="0"/>
        <pt x="328" y="746" on="1"/>
        <pt x="368" y="738" on="0"/>
        <pt x="427" y="695" on="0"/>
        <pt x="454" y="655" on="1"/>
        <pt x="446" y="642" on="0"/>
        <pt x="420" y="584" on="0"/>
        <pt x="385" y="501" on="0"/>
        <pt x="343" y="396" on="0"/>
        <pt x="320" y="336" on="1"/>
        <pt x="298" y="277" on="0"/>
        <pt x="256" y="173" on="0"/>
        <pt x="223" y="89" on="0"/>
        <pt x="203" y="29" on="0"/>
        <pt x="203" y="14" on="1"/>
        <pt x="219" y="15" on="0"/>
        <pt x="245" y="17" on="0"/>
        <pt x="273" y="22" on="0"/>
        <pt x="306" y="29" on="0"/>
        <pt x="329" y="35" on="1"/>
        <pt x="349" y="40" on="0"/>
        <pt x="383" y="47" on="0"/>
        <pt x="416" y="52" on="0"/>
        <pt x="451" y="55" on="0"/>
      </contour>
      <contour>
        <pt x="231" y="-351" on="1"/>
        <pt x="225" y="-346" on="0"/>
        <pt x="215" y="-323" on="0"/>
        <pt x="215" y="-313" on="1"/>
        <pt x="245" y="-278" on="0"/>
        <pt x="278" y="-208" on="0"/>
        <pt x="278" y="-164" on="1"/>
        <pt x="278" y="-129" on="0"/>
        <pt x="266" y="-85" on="1"/>
        <pt x="291" y="-87" on="0"/>
        <pt x="340" y="-100" on="0"/>
        <pt x="379" y="-119" on="0"/>
        <pt x="405" y="-144" on="0"/>
        <pt x="408" y="-156" on="1"/>
        <pt x="402" y="-179" on="0"/>
        <pt x="369" y="-234" on="0"/>
        <pt x="323" y="-288" on="0"/>
        <pt x="264" y="-336" on="0"/>
      </contour>
    </TTGlyph>
</ttFont>
